<svg xmlns="http://www.w3.org/2000/svg" height="612" width="960.0" font-size="16" font-family="sans-serif" stroke-width="2">
<g transform="translate(10.0 0)">
<text fill="hsl(0, 100%, 40%)" y="22">catch.deep.10000.heftia.5+5+0 573  μs</text>
<g>
<title>573  μs ±  30 μs</title>
<rect y="28" rx="5" height="22" width="38.25972114214153" fill="hsl(0, 100%, 80%)" stroke="hsl(0, 100%, 55%)" />
<g stroke="hsl(0, 100%, 40%)"><line x1="36.28008473633345" x2="40.23935754794961" y1="39" y2="39" />
<line x1="36.28008473633345" x2="36.28008473633345" y1="33" y2="45" />
<line x1="40.23935754794961" x2="40.23935754794961" y1="33" y2="45" />
</g>
</g>
<text fill="hsl(32, 100%, 40%)" y="77">catch.deep.10000.heftia.5+4+1 1.04 ms</text>
<g>
<title>1.04 ms ±  97 μs</title>
<rect y="83" rx="5" height="22" width="69.4311604453183" fill="hsl(32, 100%, 80%)" stroke="hsl(32, 100%, 55%)" />
<g stroke="hsl(32, 100%, 40%)"><line x1="62.97674456607815" x2="75.88557632455844" y1="94" y2="94" />
<line x1="62.97674456607815" x2="62.97674456607815" y1="88" y2="100" />
<line x1="75.88557632455844" x2="75.88557632455844" y1="88" y2="100" />
</g>
</g>
<text fill="hsl(65, 100%, 40%)" y="132">catch.deep.10000.heftia.5+3+2 1.59 ms</text>
<g>
<title>1.59 ms ±  96 μs</title>
<rect y="138" rx="5" height="22" width="106.45007020256722" fill="hsl(65, 100%, 80%)" stroke="hsl(65, 100%, 55%)" />
<g stroke="hsl(65, 100%, 40%)"><line x1="100.06312520097887" x2="112.83701520415556" y1="149" y2="149" />
<line x1="100.06312520097887" x2="100.06312520097887" y1="143" y2="155" />
<line x1="112.83701520415556" x2="112.83701520415556" y1="143" y2="155" />
</g>
</g>
<text fill="hsl(98, 100%, 40%)" y="187">catch.deep.10000.heftia.5+2+3 2.34 ms</text>
<g>
<title>2.34 ms ± 130 μs</title>
<rect y="193" rx="5" height="22" width="156.17435459365413" fill="hsl(98, 100%, 80%)" stroke="hsl(98, 100%, 55%)" />
<g stroke="hsl(98, 100%, 40%)"><line x1="147.5265919108194" x2="164.82211727648885" y1="204" y2="204" />
<line x1="147.5265919108194" x2="147.5265919108194" y1="198" y2="210" />
<line x1="164.82211727648885" x2="164.82211727648885" y1="198" y2="210" />
</g>
</g>
<text fill="hsl(130, 100%, 40%)" y="242">catch.deep.10000.heftia.5+1+4 3.11 ms</text>
<g>
<title>3.11 ms ± 216 μs</title>
<rect y="248" rx="5" height="22" width="207.38956619730217" fill="hsl(130, 100%, 80%)" stroke="hsl(130, 100%, 55%)" />
<g stroke="hsl(130, 100%, 40%)"><line x1="192.9895228323153" x2="221.78960956228906" y1="259" y2="259" />
<line x1="192.9895228323153" x2="192.9895228323153" y1="253" y2="265" />
<line x1="221.78960956228906" x2="221.78960956228906" y1="253" y2="265" />
</g>
</g>
<text fill="hsl(163, 100%, 40%)" y="297">catch.deep.10000.heftia.5+0+5 3.92 ms</text>
<g>
<title>3.92 ms ± 298 μs</title>
<rect y="303" rx="5" height="22" width="261.79718123692487" fill="hsl(163, 100%, 80%)" stroke="hsl(163, 100%, 55%)" />
<g stroke="hsl(163, 100%, 40%)"><line x1="241.91071270988442" x2="281.6836497639653" y1="314" y2="314" />
<line x1="241.91071270988442" x2="241.91071270988442" y1="308" y2="320" />
<line x1="281.6836497639653" x2="281.6836497639653" y1="308" y2="320" />
</g>
</g>
<g fill="hsl(196, 100%, 40%)">
<text y="352">catch.deep.10000.polysemy.5+5</text>
<text y="352" x="473.4467671436241" text-anchor="end">7.09 ms</text>
</g>
<g>
<title>7.09 ms ± 417 μs</title>
<rect y="358" rx="5" height="22" width="473.4467671436241" fill="hsl(196, 100%, 80%)" stroke="hsl(196, 100%, 55%)" />
<g stroke="hsl(196, 100%, 40%)"><line x1="445.57516087229067" x2="501.3183734149575" y1="369" y2="369" />
<line x1="445.57516087229067" x2="445.57516087229067" y1="363" y2="375" />
<line x1="501.3183734149575" x2="501.3183734149575" y1="363" y2="375" />
</g>
</g>
<g fill="hsl(229, 100%, 40%)">
<text y="407">catch.deep.10000.fused.5+5</text>
<text y="407" x="883.2763682105651" text-anchor="end">13.2 ms</text>
</g>
<g>
<title>13.2 ms ± 849 μs</title>
<rect y="413" rx="5" height="22" width="883.2763682105651" fill="hsl(229, 100%, 80%)" stroke="hsl(229, 100%, 55%)" />
<g stroke="hsl(229, 100%, 40%)"><line x1="826.5527364211302" x2="940.0" y1="424" y2="424" />
<line x1="826.5527364211302" x2="826.5527364211302" y1="418" y2="430" />
<line x1="940.0" x2="940.0" y1="418" y2="430" />
</g>
</g>
<text fill="hsl(261, 100%, 40%)" y="462">catch.deep.10000.effectful.5+5 3.12 ms</text>
<g>
<title>3.12 ms ± 285 μs</title>
<rect y="468" rx="5" height="22" width="208.38025828223576" fill="hsl(261, 100%, 80%)" stroke="hsl(261, 100%, 55%)" />
<g stroke="hsl(261, 100%, 40%)"><line x1="189.35077561926352" x2="227.409740945208" y1="479" y2="479" />
<line x1="189.35077561926352" x2="189.35077561926352" y1="473" y2="485" />
<line x1="227.409740945208" x2="227.409740945208" y1="473" y2="485" />
</g>
</g>
<g fill="hsl(294, 100%, 40%)">
<text y="517">catch.deep.10000.mtl.5+5</text>
<text y="517" x="266.4549192349141" text-anchor="end">3.99 ms</text>
</g>
<g>
<title>3.99 ms ± 393 μs</title>
<rect y="523" rx="5" height="22" width="266.4549192349141" fill="hsl(294, 100%, 80%)" stroke="hsl(294, 100%, 55%)" />
<g stroke="hsl(294, 100%, 40%)"><line x1="240.2280370697356" x2="292.6818014000926" y1="534" y2="534" />
<line x1="240.2280370697356" x2="240.2280370697356" y1="528" y2="540" />
<line x1="292.6818014000926" x2="292.6818014000926" y1="528" y2="540" />
</g>
</g>
<text fill="hsl(327, 100%, 40%)" y="572">catch.deep.10000.monad-effect.10 36.7 μs</text>
<g>
<title>36.7 μs ± 1.4 μs</title>
<rect y="578" rx="5" height="22" width="2.4533557210446104" fill="hsl(327, 100%, 80%)" stroke="hsl(327, 100%, 55%)" />
<g stroke="hsl(327, 100%, 40%)"><line x1="2.3607490661438844" x2="2.5459623759453365" y1="589" y2="589" />
<line x1="2.3607490661438844" x2="2.3607490661438844" y1="583" y2="595" />
<line x1="2.5459623759453365" x2="2.5459623759453365" y1="583" y2="595" />
</g>
</g>
</g>
</svg>
