<svg xmlns="http://www.w3.org/2000/svg" height="337" width="960.0" font-size="16" font-family="sans-serif" stroke-width="2">
<g transform="translate(10.0 0)">
<text fill="hsl(0, 100%, 40%)" y="22">catch.shallow.10000.heftia 571  μs</text>
<g>
<title>571  μs ±  23 μs</title>
<rect y="28" rx="5" height="22" width="169.0117848707908" fill="hsl(0, 100%, 80%)" stroke="hsl(0, 100%, 55%)" />
<g stroke="hsl(0, 100%, 40%)"><line x1="162.29843773731446" x2="175.72513200426712" y1="39" y2="39" />
<line x1="162.29843773731446" x2="162.29843773731446" y1="33" y2="45" />
<line x1="175.72513200426712" x2="175.72513200426712" y1="33" y2="45" />
</g>
</g>
<g fill="hsl(60, 100%, 40%)">
<text y="77">catch.shallow.10000.polysemy</text>
<text y="77" x="433.0195609945218" text-anchor="end">1.46 ms</text>
</g>
<g>
<title>1.46 ms ±  93 μs</title>
<rect y="83" rx="5" height="22" width="433.0195609945218" fill="hsl(60, 100%, 80%)" stroke="hsl(60, 100%, 55%)" />
<g stroke="hsl(60, 100%, 40%)"><line x1="405.52098923675135" x2="460.5181327522922" y1="94" y2="94" />
<line x1="405.52098923675135" x2="405.52098923675135" y1="88" y2="100" />
<line x1="460.5181327522922" x2="460.5181327522922" y1="88" y2="100" />
</g>
</g>
<g fill="hsl(120, 100%, 40%)">
<text y="132">catch.shallow.10000.fused</text>
<text y="132" x="623.8911593054569" text-anchor="end">2.11 ms</text>
</g>
<g>
<title>2.11 ms ±  91 μs</title>
<rect y="138" rx="5" height="22" width="623.8911593054569" fill="hsl(120, 100%, 80%)" stroke="hsl(120, 100%, 55%)" />
<g stroke="hsl(120, 100%, 40%)"><line x1="597.0773519544853" x2="650.7049666564285" y1="149" y2="149" />
<line x1="597.0773519544853" x2="597.0773519544853" y1="143" y2="155" />
<line x1="650.7049666564285" x2="650.7049666564285" y1="143" y2="155" />
</g>
</g>
<g fill="hsl(180, 100%, 40%)">
<text y="187">catch.shallow.10000.effectful</text>
<text y="187" x="899.0379211790092" text-anchor="end">3.04 ms</text>
</g>
<g>
<title>3.04 ms ± 138 μs</title>
<rect y="193" rx="5" height="22" width="899.0379211790092" fill="hsl(180, 100%, 80%)" stroke="hsl(180, 100%, 55%)" />
<g stroke="hsl(180, 100%, 40%)"><line x1="858.0758423580185" x2="940.0" y1="204" y2="204" />
<line x1="858.0758423580185" x2="858.0758423580185" y1="198" y2="210" />
<line x1="940.0" x2="940.0" y1="198" y2="210" />
</g>
</g>
<text fill="hsl(240, 100%, 40%)" y="242">catch.shallow.10000.mtl 208  μs</text>
<g>
<title>208  μs ±  11 μs</title>
<rect y="248" rx="5" height="22" width="61.63573118968999" fill="hsl(240, 100%, 80%)" stroke="hsl(240, 100%, 55%)" />
<g stroke="hsl(240, 100%, 40%)"><line x1="58.468034632529026" x2="64.80342774685096" y1="259" y2="259" />
<line x1="58.468034632529026" x2="58.468034632529026" y1="253" y2="265" />
<line x1="64.80342774685096" x2="64.80342774685096" y1="253" y2="265" />
</g>
</g>
<text fill="hsl(300, 100%, 40%)" y="297">catch.shallow.10000.monad-effect 37.0 μs</text>
<g>
<title>37.0 μs ± 2.5 μs</title>
<rect y="303" rx="5" height="22" width="10.95767299328187" fill="hsl(300, 100%, 80%)" stroke="hsl(300, 100%, 55%)" />
<g stroke="hsl(300, 100%, 40%)"><line x1="10.217107663972818" x2="11.698238322590921" y1="314" y2="314" />
<line x1="10.217107663972818" x2="10.217107663972818" y1="308" y2="320" />
<line x1="11.698238322590921" x2="11.698238322590921" y1="308" y2="320" />
</g>
</g>
</g>
</svg>
