<svg xmlns="http://www.w3.org/2000/svg" height="337" width="960.0" font-size="16" font-family="sans-serif" stroke-width="2">
<g transform="translate(10.0 0)">
<text fill="hsl(0, 100%, 40%)" y="22">countdown.shallow.10000.heftia 161  μs</text>
<g>
<title>161  μs ±  14 μs</title>
<rect y="28" rx="5" height="22" width="111.38457057195347" fill="hsl(0, 100%, 80%)" stroke="hsl(0, 100%, 55%)" />
<g stroke="hsl(0, 100%, 40%)"><line x1="102.00942287831354" x2="120.7597182655934" y1="39" y2="39" />
<line x1="102.00942287831354" x2="102.00942287831354" y1="33" y2="45" />
<line x1="120.7597182655934" x2="120.7597182655934" y1="33" y2="45" />
</g>
</g>
<g fill="hsl(60, 100%, 40%)">
<text y="77">countdown.shallow.10000.polyemy</text>
<text y="77" x="868.5736070077774" text-anchor="end">1.25 ms</text>
</g>
<g>
<title>1.25 ms ± 103 μs</title>
<rect y="83" rx="5" height="22" width="868.5736070077774" fill="hsl(60, 100%, 80%)" stroke="hsl(60, 100%, 55%)" />
<g stroke="hsl(60, 100%, 40%)"><line x1="797.1472140155547" x2="940.0" y1="94" y2="94" />
<line x1="797.1472140155547" x2="797.1472140155547" y1="88" y2="100" />
<line x1="940.0" x2="940.0" y1="88" y2="100" />
</g>
</g>
<text fill="hsl(120, 100%, 40%)" y="132">countdown.shallow.10000.fused 912  ns</text>
<g>
<title>912  ns ±  52 ns</title>
<rect y="138" rx="5" height="22" width="0.632678278505011" fill="hsl(120, 100%, 80%)" stroke="hsl(120, 100%, 55%)" />
<g stroke="hsl(120, 100%, 40%)"><line x1="0.5963902854734964" x2="0.6689662715365257" y1="149" y2="149" />
<line x1="0.5963902854734964" x2="0.5963902854734964" y1="143" y2="155" />
<line x1="0.6689662715365257" x2="0.6689662715365257" y1="143" y2="155" />
</g>
</g>
<text fill="hsl(180, 100%, 40%)" y="187">countdown.shallow.10000.effectful 134  μs</text>
<g>
<title>134  μs ±  12 μs</title>
<rect y="193" rx="5" height="22" width="92.97347527375294" fill="hsl(180, 100%, 80%)" stroke="hsl(180, 100%, 55%)" />
<g stroke="hsl(180, 100%, 40%)"><line x1="84.48823352970379" x2="101.45871701780209" y1="204" y2="204" />
<line x1="84.48823352970379" x2="84.48823352970379" y1="198" y2="210" />
<line x1="101.45871701780209" x2="101.45871701780209" y1="198" y2="210" />
</g>
</g>
<text fill="hsl(240, 100%, 40%)" y="242">countdown.shallow.10000.mtl 934  ns</text>
<g>
<title>934  ns ±  85 ns</title>
<rect y="248" rx="5" height="22" width="0.6480505357939971" fill="hsl(240, 100%, 80%)" stroke="hsl(240, 100%, 55%)" />
<g stroke="hsl(240, 100%, 40%)"><line x1="0.5891986145653765" x2="0.7069024570226177" y1="259" y2="259" />
<line x1="0.5891986145653765" x2="0.5891986145653765" y1="253" y2="265" />
<line x1="0.7069024570226177" x2="0.7069024570226177" y1="253" y2="265" />
</g>
</g>
<text fill="hsl(300, 100%, 40%)" y="297">countdown.shallow.10000.monad-effect 903  ns</text>
<g>
<title>903  ns ±  41 ns</title>
<rect y="303" rx="5" height="22" width="0.6263263182790126" fill="hsl(300, 100%, 80%)" stroke="hsl(300, 100%, 55%)" />
<g stroke="hsl(300, 100%, 40%)"><line x1="0.5976304201751088" x2="0.6550222163829165" y1="314" y2="314" />
<line x1="0.5976304201751088" x2="0.5976304201751088" y1="308" y2="320" />
<line x1="0.6550222163829165" x2="0.6550222163829165" y1="308" y2="320" />
</g>
</g>
</g>
</svg>
