<svg xmlns="http://www.w3.org/2000/svg" height="337" width="960.0" font-size="16" font-family="sans-serif" stroke-width="2">
<g transform="translate(10.0 0)">
<text fill="hsl(0, 100%, 40%)" y="22">countdown.shallow.10000.heftia 157  μs</text>
<g>
<title>157  μs ±  14 μs</title>
<rect y="28" rx="5" height="22" width="108.5589145378802" fill="hsl(0, 100%, 80%)" stroke="hsl(0, 100%, 55%)" />
<g stroke="hsl(0, 100%, 40%)"><line x1="99.18977240092461" x2="117.92805667483579" y1="39" y2="39" />
<line x1="99.18977240092461" x2="99.18977240092461" y1="33" y2="45" />
<line x1="117.92805667483579" x2="117.92805667483579" y1="33" y2="45" />
</g>
</g>
<g fill="hsl(60, 100%, 40%)">
<text y="77">countdown.shallow.10000.polyemy</text>
<text y="77" x="873.4462433664897" text-anchor="end">1.27 ms</text>
</g>
<g>
<title>1.27 ms ±  96 μs</title>
<rect y="83" rx="5" height="22" width="873.4462433664897" fill="hsl(60, 100%, 80%)" stroke="hsl(60, 100%, 55%)" />
<g stroke="hsl(60, 100%, 40%)"><line x1="806.8924867329795" x2="940.0" y1="94" y2="94" />
<line x1="806.8924867329795" x2="806.8924867329795" y1="88" y2="100" />
<line x1="940.0" x2="940.0" y1="88" y2="100" />
</g>
</g>
<text fill="hsl(120, 100%, 40%)" y="132">countdown.shallow.10000.fused 916  ns</text>
<g>
<title>916  ns ±  46 ns</title>
<rect y="138" rx="5" height="22" width="0.6323066894841337" fill="hsl(120, 100%, 80%)" stroke="hsl(120, 100%, 55%)" />
<g stroke="hsl(120, 100%, 40%)"><line x1="0.6004287774311091" x2="0.6641846015371583" y1="149" y2="149" />
<line x1="0.6004287774311091" x2="0.6004287774311091" y1="143" y2="155" />
<line x1="0.6641846015371583" x2="0.6641846015371583" y1="143" y2="155" />
</g>
</g>
<text fill="hsl(180, 100%, 40%)" y="187">countdown.shallow.10000.effectful 135  μs</text>
<g>
<title>135  μs ±  12 μs</title>
<rect y="193" rx="5" height="22" width="93.43988116057304" fill="hsl(180, 100%, 80%)" stroke="hsl(180, 100%, 55%)" />
<g stroke="hsl(180, 100%, 40%)"><line x1="84.90752627693848" x2="101.97223604420759" y1="204" y2="204" />
<line x1="84.90752627693848" x2="84.90752627693848" y1="198" y2="210" />
<line x1="101.97223604420759" x2="101.97223604420759" y1="198" y2="210" />
</g>
</g>
<text fill="hsl(240, 100%, 40%)" y="242">countdown.shallow.10000.mtl 921  ns</text>
<g>
<title>921  ns ±  48 ns</title>
<rect y="248" rx="5" height="22" width="0.6356613872576753" fill="hsl(240, 100%, 80%)" stroke="hsl(240, 100%, 55%)" />
<g stroke="hsl(240, 100%, 40%)"><line x1="0.6024126048799071" x2="0.6689101696354435" y1="259" y2="259" />
<line x1="0.6024126048799071" x2="0.6024126048799071" y1="253" y2="265" />
<line x1="0.6689101696354435" x2="0.6689101696354435" y1="253" y2="265" />
</g>
</g>
<text fill="hsl(300, 100%, 40%)" y="297">countdown.shallow.10000.monad-effect 905  ns</text>
<g>
<title>905  ns ±  48 ns</title>
<rect y="303" rx="5" height="22" width="0.6245418756457448" fill="hsl(300, 100%, 80%)" stroke="hsl(300, 100%, 55%)" />
<g stroke="hsl(300, 100%, 40%)"><line x1="0.5913510756986304" x2="0.6577326755928592" y1="314" y2="314" />
<line x1="0.5913510756986304" x2="0.5913510756986304" y1="308" y2="320" />
<line x1="0.6577326755928592" x2="0.6577326755928592" y1="308" y2="320" />
</g>
</g>
</g>
</svg>
