<svg xmlns="http://www.w3.org/2000/svg" height="337" width="960.0" font-size="16" font-family="sans-serif" stroke-width="2">
<g transform="translate(10.0 0)">
<g fill="hsl(0, 100%, 40%)">
<text y="22">countdown.deep.10000.heftia.5+5</text>
<text y="22" x="435.7126960539526" text-anchor="end">1.11 ms</text>
</g>
<g>
<title>1.11 ms ± 101 μs</title>
<rect y="28" rx="5" height="22" width="435.7126960539526" fill="hsl(0, 100%, 80%)" stroke="hsl(0, 100%, 55%)" />
<g stroke="hsl(0, 100%, 40%)"><line x1="396.08774231397825" x2="475.3376497939269" y1="39" y2="39" />
<line x1="396.08774231397825" x2="396.08774231397825" y1="33" y2="45" />
<line x1="475.3376497939269" x2="475.3376497939269" y1="33" y2="45" />
</g>
</g>
<g fill="hsl(60, 100%, 40%)">
<text y="77">countdown.deep.10000.polysemy.5+5</text>
<text y="77" x="849.173585840174" text-anchor="end">2.17 ms</text>
</g>
<g>
<title>2.17 ms ± 170 μs</title>
<rect y="83" rx="5" height="22" width="849.173585840174" fill="hsl(60, 100%, 80%)" stroke="hsl(60, 100%, 55%)" />
<g stroke="hsl(60, 100%, 40%)"><line x1="782.7346309933046" x2="915.6125406870435" y1="94" y2="94" />
<line x1="782.7346309933046" x2="782.7346309933046" y1="88" y2="100" />
<line x1="915.6125406870435" x2="915.6125406870435" y1="88" y2="100" />
</g>
</g>
<g fill="hsl(120, 100%, 40%)">
<text y="132">countdown.deep.10000.fused.5+5</text>
<text y="132" x="863.7094130680672" text-anchor="end">2.21 ms</text>
</g>
<g>
<title>2.21 ms ± 195 μs</title>
<rect y="138" rx="5" height="22" width="863.7094130680672" fill="hsl(120, 100%, 80%)" stroke="hsl(120, 100%, 55%)" />
<g stroke="hsl(120, 100%, 40%)"><line x1="787.4188261361344" x2="940.0" y1="149" y2="149" />
<line x1="787.4188261361344" x2="787.4188261361344" y1="143" y2="155" />
<line x1="940.0" x2="940.0" y1="143" y2="155" />
</g>
</g>
<text fill="hsl(180, 100%, 40%)" y="187">countdown.deep.10000.effectful.5+5 135  μs</text>
<g>
<title>135  μs ±  13 μs</title>
<rect y="193" rx="5" height="22" width="52.67871986456409" fill="hsl(180, 100%, 80%)" stroke="hsl(180, 100%, 55%)" />
<g stroke="hsl(180, 100%, 40%)"><line x1="47.77829558406829" x2="57.579144145059885" y1="204" y2="204" />
<line x1="47.77829558406829" x2="47.77829558406829" y1="198" y2="210" />
<line x1="57.579144145059885" x2="57.579144145059885" y1="198" y2="210" />
</g>
</g>
<text fill="hsl(240, 100%, 40%)" y="242">countdown.deep.10000.mtl.5+5 913  ns</text>
<g>
<title>913  ns ±  90 ns</title>
<rect y="248" rx="5" height="22" width="0.3571431103745762" fill="hsl(240, 100%, 80%)" stroke="hsl(240, 100%, 55%)" />
<g stroke="hsl(240, 100%, 40%)"><line x1="0.3217917008392964" x2="0.39249451990985595" y1="259" y2="259" />
<line x1="0.3217917008392964" x2="0.3217917008392964" y1="253" y2="265" />
<line x1="0.39249451990985595" x2="0.39249451990985595" y1="253" y2="265" />
</g>
</g>
<text fill="hsl(300, 100%, 40%)" y="297">countdown.deep.10000.monad-effect.5+5 1.84 μs</text>
<g>
<title>1.84 μs ± 173 ns</title>
<rect y="303" rx="5" height="22" width="0.7206982107526028" fill="hsl(300, 100%, 80%)" stroke="hsl(300, 100%, 55%)" />
<g stroke="hsl(300, 100%, 40%)"><line x1="0.6530611622943194" x2="0.7883352592108861" y1="314" y2="314" />
<line x1="0.6530611622943194" x2="0.6530611622943194" y1="308" y2="320" />
<line x1="0.7883352592108861" x2="0.7883352592108861" y1="308" y2="320" />
</g>
</g>
</g>
</svg>
