<svg xmlns="http://www.w3.org/2000/svg" height="337" width="960.0" font-size="16" font-family="sans-serif" stroke-width="2">
<g transform="translate(10.0 0)">
<g fill="hsl(0, 100%, 40%)">
<text y="22">countdown.deep.10000.heftia.5+5</text>
<text y="22" x="447.14500808238006" text-anchor="end">1.12 ms</text>
</g>
<g>
<title>1.12 ms ± 111 μs</title>
<rect y="28" rx="5" height="22" width="447.14500808238006" fill="hsl(0, 100%, 80%)" stroke="hsl(0, 100%, 55%)" />
<g stroke="hsl(0, 100%, 40%)"><line x1="402.84172064184975" x2="491.44829552291037" y1="39" y2="39" />
<line x1="402.84172064184975" x2="402.84172064184975" y1="33" y2="45" />
<line x1="491.44829552291037" x2="491.44829552291037" y1="33" y2="45" />
</g>
</g>
<g fill="hsl(60, 100%, 40%)">
<text y="77">countdown.deep.10000.polysemy.5+5</text>
<text y="77" x="869.8558111726826" text-anchor="end">2.18 ms</text>
</g>
<g>
<title>2.18 ms ± 176 μs</title>
<rect y="83" rx="5" height="22" width="869.8558111726826" fill="hsl(60, 100%, 80%)" stroke="hsl(60, 100%, 55%)" />
<g stroke="hsl(60, 100%, 40%)"><line x1="799.7116223453652" x2="940.0" y1="94" y2="94" />
<line x1="799.7116223453652" x2="799.7116223453652" y1="88" y2="100" />
<line x1="940.0" x2="940.0" y1="88" y2="100" />
</g>
</g>
<g fill="hsl(120, 100%, 40%)">
<text y="132">countdown.deep.10000.fused.5+5</text>
<text y="132" x="889.0726328701662" text-anchor="end">2.23 ms</text>
</g>
<g>
<title>2.23 ms ± 120 μs</title>
<rect y="138" rx="5" height="22" width="889.0726328701662" fill="hsl(120, 100%, 80%)" stroke="hsl(120, 100%, 55%)" />
<g stroke="hsl(120, 100%, 40%)"><line x1="841.3142062349078" x2="936.8310595054246" y1="149" y2="149" />
<line x1="841.3142062349078" x2="841.3142062349078" y1="143" y2="155" />
<line x1="936.8310595054246" x2="936.8310595054246" y1="143" y2="155" />
</g>
</g>
<text fill="hsl(180, 100%, 40%)" y="187">countdown.deep.10000.effectful.5+5 137  μs</text>
<g>
<title>137  μs ±  11 μs</title>
<rect y="193" rx="5" height="22" width="54.64279646961818" fill="hsl(180, 100%, 80%)" stroke="hsl(180, 100%, 55%)" />
<g stroke="hsl(180, 100%, 40%)"><line x1="50.29927851377101" x2="58.98631442546536" y1="204" y2="204" />
<line x1="50.29927851377101" x2="50.29927851377101" y1="198" y2="210" />
<line x1="58.98631442546536" x2="58.98631442546536" y1="198" y2="210" />
</g>
</g>
<text fill="hsl(240, 100%, 40%)" y="242">countdown.deep.10000.mtl.5+5 890  ns</text>
<g>
<title>890  ns ±  42 ns</title>
<rect y="248" rx="5" height="22" width="0.35540915886829666" fill="hsl(240, 100%, 80%)" stroke="hsl(240, 100%, 55%)" />
<g stroke="hsl(240, 100%, 40%)"><line x1="0.3385272737306577" x2="0.3722910440059356" y1="259" y2="259" />
<line x1="0.3385272737306577" x2="0.3385272737306577" y1="253" y2="265" />
<line x1="0.3722910440059356" x2="0.3722910440059356" y1="253" y2="265" />
</g>
</g>
<text fill="hsl(300, 100%, 40%)" y="297">countdown.deep.10000.monad-effect.5+5 1.85 μs</text>
<g>
<title>1.85 μs ± 167 ns</title>
<rect y="303" rx="5" height="22" width="0.7403801827285708" fill="hsl(300, 100%, 80%)" stroke="hsl(300, 100%, 55%)" />
<g stroke="hsl(300, 100%, 40%)"><line x1="0.6735745202426489" x2="0.8071858452144927" y1="314" y2="314" />
<line x1="0.6735745202426489" x2="0.6735745202426489" y1="308" y2="320" />
<line x1="0.8071858452144927" x2="0.8071858452144927" y1="308" y2="320" />
</g>
</g>
</g>
</svg>
