<svg xmlns="http://www.w3.org/2000/svg" height="997" width="960.0" font-size="16" font-family="sans-serif" stroke-width="2">
<g transform="translate(10.0 0)">
<text fill="hsl(0, 100%, 40%)" y="22">filesize.shallow.1000.reference 816  μs</text>
<g>
<title>816  μs ±  72 μs</title>
<rect y="28" rx="5" height="22" width="99.15889048841531" fill="hsl(0, 100%, 80%)" stroke="hsl(0, 100%, 55%)" />
<g stroke="hsl(0, 100%, 40%)"><line x1="90.4154623169454" x2="107.90231865988522" y1="39" y2="39" />
<line x1="90.4154623169454" x2="90.4154623169454" y1="33" y2="45" />
<line x1="107.90231865988522" x2="107.90231865988522" y1="33" y2="45" />
</g>
</g>
<text fill="hsl(20, 100%, 40%)" y="77">filesize.shallow.1000.heftia 1.05 ms</text>
<g>
<title>1.05 ms ±  62 μs</title>
<rect y="83" rx="5" height="22" width="127.9052299138039" fill="hsl(20, 100%, 80%)" stroke="hsl(20, 100%, 55%)" />
<g stroke="hsl(20, 100%, 40%)"><line x1="120.3527866477239" x2="135.4576731798839" y1="94" y2="94" />
<line x1="120.3527866477239" x2="120.3527866477239" y1="88" y2="100" />
<line x1="135.4576731798839" x2="135.4576731798839" y1="88" y2="100" />
</g>
</g>
<text fill="hsl(40, 100%, 40%)" y="132">filesize.shallow.1000.effectful 802  μs</text>
<g>
<title>802  μs ±  46 μs</title>
<rect y="138" rx="5" height="22" width="97.47311670014778" fill="hsl(40, 100%, 80%)" stroke="hsl(40, 100%, 55%)" />
<g stroke="hsl(40, 100%, 40%)"><line x1="91.93702159261028" x2="103.00921180768529" y1="149" y2="149" />
<line x1="91.93702159261028" x2="91.93702159261028" y1="143" y2="155" />
<line x1="103.00921180768529" x2="103.00921180768529" y1="143" y2="155" />
</g>
</g>
<text fill="hsl(60, 100%, 40%)" y="187">filesize.shallow.1000.mtl 1.06 ms</text>
<g>
<title>1.06 ms ±  89 μs</title>
<rect y="193" rx="5" height="22" width="129.41430784489955" fill="hsl(60, 100%, 80%)" stroke="hsl(60, 100%, 55%)" />
<g stroke="hsl(60, 100%, 40%)"><line x1="118.63546545504886" x2="140.19315023475025" y1="204" y2="204" />
<line x1="118.63546545504886" x2="118.63546545504886" y1="198" y2="210" />
<line x1="140.19315023475025" x2="140.19315023475025" y1="198" y2="210" />
</g>
</g>
<text fill="hsl(80, 100%, 40%)" y="242">filesize.shallow.1000.fused-effects 1.73 ms</text>
<g>
<title>1.73 ms ± 147 μs</title>
<rect y="248" rx="5" height="22" width="209.90077217567693" fill="hsl(80, 100%, 80%)" stroke="hsl(80, 100%, 55%)" />
<g stroke="hsl(80, 100%, 40%)"><line x1="192.03890411685262" x2="227.76264023450125" y1="259" y2="259" />
<line x1="192.03890411685262" x2="192.03890411685262" y1="253" y2="265" />
<line x1="227.76264023450125" x2="227.76264023450125" y1="253" y2="265" />
</g>
</g>
<text fill="hsl(100, 100%, 40%)" y="297">filesize.shallow.1000.polysemy 2.29 ms</text>
<g>
<title>2.29 ms ± 183 μs</title>
<rect y="303" rx="5" height="22" width="278.74977892664583" fill="hsl(100, 100%, 80%)" stroke="hsl(100, 100%, 55%)" />
<g stroke="hsl(100, 100%, 40%)"><line x1="256.50519834787946" x2="300.9943595054122" y1="314" y2="314" />
<line x1="256.50519834787946" x2="256.50519834787946" y1="308" y2="320" />
<line x1="300.9943595054122" x2="300.9943595054122" y1="308" y2="320" />
</g>
</g>
<text fill="hsl(120, 100%, 40%)" y="352">filesize.shallow.2000.reference 1.72 ms</text>
<g>
<title>1.72 ms ± 144 μs</title>
<rect y="358" rx="5" height="22" width="208.55655490151696" fill="hsl(120, 100%, 80%)" stroke="hsl(120, 100%, 55%)" />
<g stroke="hsl(120, 100%, 40%)"><line x1="191.09455475243132" x2="226.0185550506026" y1="369" y2="369" />
<line x1="191.09455475243132" x2="191.09455475243132" y1="363" y2="375" />
<line x1="226.0185550506026" x2="226.0185550506026" y1="363" y2="375" />
</g>
</g>
<text fill="hsl(140, 100%, 40%)" y="407">filesize.shallow.2000.heftia 2.22 ms</text>
<g>
<title>2.22 ms ±  91 μs</title>
<rect y="413" rx="5" height="22" width="270.1098794892747" fill="hsl(140, 100%, 80%)" stroke="hsl(140, 100%, 55%)" />
<g stroke="hsl(140, 100%, 40%)"><line x1="259.0914248981372" x2="281.12833408041223" y1="424" y2="424" />
<line x1="259.0914248981372" x2="259.0914248981372" y1="418" y2="430" />
<line x1="281.12833408041223" x2="281.12833408041223" y1="418" y2="430" />
</g>
</g>
<text fill="hsl(160, 100%, 40%)" y="462">filesize.shallow.2000.effectful 1.71 ms</text>
<g>
<title>1.71 ms ± 113 μs</title>
<rect y="468" rx="5" height="22" width="207.80718405728885" fill="hsl(160, 100%, 80%)" stroke="hsl(160, 100%, 55%)" />
<g stroke="hsl(160, 100%, 40%)"><line x1="194.09878696405772" x2="221.51558115051998" y1="479" y2="479" />
<line x1="194.09878696405772" x2="194.09878696405772" y1="473" y2="485" />
<line x1="221.51558115051998" x2="221.51558115051998" y1="473" y2="485" />
</g>
</g>
<g fill="hsl(180, 100%, 40%)">
<text y="517">filesize.shallow.2000.mtl</text>
<text y="517" x="283.91129146025474" text-anchor="end">2.34 ms</text>
</g>
<g>
<title>2.34 ms ± 201 μs</title>
<rect y="523" rx="5" height="22" width="283.91129146025474" fill="hsl(180, 100%, 80%)" stroke="hsl(180, 100%, 55%)" />
<g stroke="hsl(180, 100%, 40%)"><line x1="259.51662312457086" x2="308.30595979593863" y1="534" y2="534" />
<line x1="259.51662312457086" x2="259.51662312457086" y1="528" y2="540" />
<line x1="308.30595979593863" x2="308.30595979593863" y1="528" y2="540" />
</g>
</g>
<g fill="hsl(200, 100%, 40%)">
<text y="572">filesize.shallow.2000.fused-effects</text>
<text y="572" x="439.2541222590348" text-anchor="end">3.61 ms</text>
</g>
<g>
<title>3.61 ms ± 274 μs</title>
<rect y="578" rx="5" height="22" width="439.2541222590348" fill="hsl(200, 100%, 80%)" stroke="hsl(200, 100%, 55%)" />
<g stroke="hsl(200, 100%, 40%)"><line x1="405.9774984853735" x2="472.5307460326961" y1="589" y2="589" />
<line x1="405.9774984853735" x2="405.9774984853735" y1="583" y2="595" />
<line x1="472.5307460326961" x2="472.5307460326961" y1="583" y2="595" />
</g>
</g>
<g fill="hsl(220, 100%, 40%)">
<text y="627">filesize.shallow.2000.polysemy</text>
<text y="627" x="575.7508437897334" text-anchor="end">4.74 ms</text>
</g>
<g>
<title>4.74 ms ± 396 μs</title>
<rect y="633" rx="5" height="22" width="575.7508437897334" fill="hsl(220, 100%, 80%)" stroke="hsl(220, 100%, 55%)" />
<g stroke="hsl(220, 100%, 40%)"><line x1="527.5715133222074" x2="623.9301742572594" y1="644" y2="644" />
<line x1="527.5715133222074" x2="527.5715133222074" y1="638" y2="650" />
<line x1="623.9301742572594" x2="623.9301742572594" y1="638" y2="650" />
</g>
</g>
<g fill="hsl(240, 100%, 40%)">
<text y="682">filesize.shallow.3000.reference</text>
<text y="682" x="317.6125265205868" text-anchor="end">2.61 ms</text>
</g>
<g>
<title>2.61 ms ± 201 μs</title>
<rect y="688" rx="5" height="22" width="317.6125265205868" fill="hsl(240, 100%, 80%)" stroke="hsl(240, 100%, 55%)" />
<g stroke="hsl(240, 100%, 40%)"><line x1="293.1886899045966" x2="342.03636313657705" y1="699" y2="699" />
<line x1="293.1886899045966" x2="293.1886899045966" y1="693" y2="705" />
<line x1="342.03636313657705" x2="342.03636313657705" y1="693" y2="705" />
</g>
</g>
<g fill="hsl(260, 100%, 40%)">
<text y="737">filesize.shallow.3000.heftia</text>
<text y="737" x="421.33647462054927" text-anchor="end">3.47 ms</text>
</g>
<g>
<title>3.47 ms ± 345 μs</title>
<rect y="743" rx="5" height="22" width="421.33647462054927" fill="hsl(260, 100%, 80%)" stroke="hsl(260, 100%, 55%)" />
<g stroke="hsl(260, 100%, 40%)"><line x1="379.38994308079253" x2="463.283006160306" y1="754" y2="754" />
<line x1="379.38994308079253" x2="379.38994308079253" y1="748" y2="760" />
<line x1="463.283006160306" x2="463.283006160306" y1="748" y2="760" />
</g>
</g>
<g fill="hsl(280, 100%, 40%)">
<text y="792">filesize.shallow.3000.effectful</text>
<text y="792" x="324.1065064702309" text-anchor="end">2.67 ms</text>
</g>
<g>
<title>2.67 ms ± 169 μs</title>
<rect y="798" rx="5" height="22" width="324.1065064702309" fill="hsl(280, 100%, 80%)" stroke="hsl(280, 100%, 55%)" />
<g stroke="hsl(280, 100%, 40%)"><line x1="303.5336864321072" x2="344.6793265083546" y1="809" y2="809" />
<line x1="303.5336864321072" x2="303.5336864321072" y1="803" y2="815" />
<line x1="344.6793265083546" x2="344.6793265083546" y1="803" y2="815" />
</g>
</g>
<g fill="hsl(300, 100%, 40%)">
<text y="847">filesize.shallow.3000.mtl</text>
<text y="847" x="447.7381721695546" text-anchor="end">3.68 ms</text>
</g>
<g>
<title>3.68 ms ± 353 μs</title>
<rect y="853" rx="5" height="22" width="447.7381721695546" fill="hsl(300, 100%, 80%)" stroke="hsl(300, 100%, 55%)" />
<g stroke="hsl(300, 100%, 40%)"><line x1="404.79854608826344" x2="490.6777982508458" y1="864" y2="864" />
<line x1="404.79854608826344" x2="404.79854608826344" y1="858" y2="870" />
<line x1="490.6777982508458" x2="490.6777982508458" y1="858" y2="870" />
</g>
</g>
<g fill="hsl(320, 100%, 40%)">
<text y="902">filesize.shallow.3000.fused-effects</text>
<text y="902" x="672.3901870269525" text-anchor="end">5.53 ms</text>
</g>
<g>
<title>5.53 ms ± 522 μs</title>
<rect y="908" rx="5" height="22" width="672.3901870269525" fill="hsl(320, 100%, 80%)" stroke="hsl(320, 100%, 55%)" />
<g stroke="hsl(320, 100%, 40%)"><line x1="608.9566826036719" x2="735.8236914502331" y1="919" y2="919" />
<line x1="608.9566826036719" x2="608.9566826036719" y1="913" y2="925" />
<line x1="735.8236914502331" x2="735.8236914502331" y1="913" y2="925" />
</g>
</g>
<g fill="hsl(340, 100%, 40%)">
<text y="957">filesize.shallow.3000.polysemy</text>
<text y="957" x="894.3665747312301" text-anchor="end">7.36 ms</text>
</g>
<g>
<title>7.36 ms ± 375 μs</title>
<rect y="963" rx="5" height="22" width="894.3665747312301" fill="hsl(340, 100%, 80%)" stroke="hsl(340, 100%, 55%)" />
<g stroke="hsl(340, 100%, 40%)"><line x1="848.7331494624602" x2="940.0" y1="974" y2="974" />
<line x1="848.7331494624602" x2="848.7331494624602" y1="968" y2="980" />
<line x1="940.0" x2="940.0" y1="968" y2="980" />
</g>
</g>
</g>
</svg>
