<svg xmlns="http://www.w3.org/2000/svg" height="997" width="960.0" font-size="16" font-family="sans-serif" stroke-width="2">
<g transform="translate(10.0 0)">
<text fill="hsl(0, 100%, 40%)" y="22">filesize.deep.1000.reference 851  μs</text>
<g>
<title>851  μs ±  59 μs</title>
<rect y="28" rx="5" height="22" width="65.4406975740419" fill="hsl(0, 100%, 80%)" stroke="hsl(0, 100%, 55%)" />
<g stroke="hsl(0, 100%, 40%)"><line x1="60.92123062734395" x2="69.96016452073985" y1="39" y2="39" />
<line x1="60.92123062734395" x2="60.92123062734395" y1="33" y2="45" />
<line x1="69.96016452073985" x2="69.96016452073985" y1="33" y2="45" />
</g>
</g>
<text fill="hsl(20, 100%, 40%)" y="77">filesize.deep.1000.heftia 1.38 ms</text>
<g>
<title>1.38 ms ±  98 μs</title>
<rect y="83" rx="5" height="22" width="106.04177807995269" fill="hsl(20, 100%, 80%)" stroke="hsl(20, 100%, 55%)" />
<g stroke="hsl(20, 100%, 40%)"><line x1="98.48106381569912" x2="113.60249234420627" y1="94" y2="94" />
<line x1="98.48106381569912" x2="98.48106381569912" y1="88" y2="100" />
<line x1="113.60249234420627" x2="113.60249234420627" y1="88" y2="100" />
</g>
</g>
<text fill="hsl(40, 100%, 40%)" y="132">filesize.deep.1000.effectful 866  μs</text>
<g>
<title>866  μs ±  43 μs</title>
<rect y="138" rx="5" height="22" width="66.57362577573596" fill="hsl(40, 100%, 80%)" stroke="hsl(40, 100%, 55%)" />
<g stroke="hsl(40, 100%, 40%)"><line x1="63.243558844853524" x2="69.9036927066184" y1="149" y2="149" />
<line x1="63.243558844853524" x2="63.243558844853524" y1="143" y2="155" />
<line x1="69.9036927066184" x2="69.9036927066184" y1="143" y2="155" />
</g>
</g>
<text fill="hsl(60, 100%, 40%)" y="187">filesize.deep.1000.mtl 2.44 ms</text>
<g>
<title>2.44 ms ± 175 μs</title>
<rect y="193" rx="5" height="22" width="187.54985170218606" fill="hsl(60, 100%, 80%)" stroke="hsl(60, 100%, 55%)" />
<g stroke="hsl(60, 100%, 40%)"><line x1="174.1273781405502" x2="200.97232526382192" y1="204" y2="204" />
<line x1="174.1273781405502" x2="174.1273781405502" y1="198" y2="210" />
<line x1="200.97232526382192" x2="200.97232526382192" y1="198" y2="210" />
</g>
</g>
<text fill="hsl(80, 100%, 40%)" y="242">filesize.deep.1000.fused-effects 3.62 ms</text>
<g>
<title>3.62 ms ± 345 μs</title>
<rect y="248" rx="5" height="22" width="278.20209242136826" fill="hsl(80, 100%, 80%)" stroke="hsl(80, 100%, 55%)" />
<g stroke="hsl(80, 100%, 40%)"><line x1="251.67547384356928" x2="304.7287109991673" y1="259" y2="259" />
<line x1="251.67547384356928" x2="251.67547384356928" y1="253" y2="265" />
<line x1="304.7287109991673" x2="304.7287109991673" y1="253" y2="265" />
</g>
</g>
<text fill="hsl(100, 100%, 40%)" y="297">filesize.deep.1000.polysemy 2.65 ms</text>
<g>
<title>2.65 ms ± 170 μs</title>
<rect y="303" rx="5" height="22" width="203.38084074722067" fill="hsl(100, 100%, 80%)" stroke="hsl(100, 100%, 55%)" />
<g stroke="hsl(100, 100%, 40%)"><line x1="190.301165153861" x2="216.46051634058034" y1="314" y2="314" />
<line x1="190.301165153861" x2="190.301165153861" y1="308" y2="320" />
<line x1="216.46051634058034" x2="216.46051634058034" y1="308" y2="320" />
</g>
</g>
<text fill="hsl(120, 100%, 40%)" y="352">filesize.deep.2000.reference 1.84 ms</text>
<g>
<title>1.84 ms ± 170 μs</title>
<rect y="358" rx="5" height="22" width="141.65991832013995" fill="hsl(120, 100%, 80%)" stroke="hsl(120, 100%, 55%)" />
<g stroke="hsl(120, 100%, 40%)"><line x1="128.58855102808207" x2="154.73128561219784" y1="369" y2="369" />
<line x1="128.58855102808207" x2="128.58855102808207" y1="363" y2="375" />
<line x1="154.73128561219784" x2="154.73128561219784" y1="363" y2="375" />
</g>
</g>
<text fill="hsl(140, 100%, 40%)" y="407">filesize.deep.2000.heftia 2.87 ms</text>
<g>
<title>2.87 ms ± 179 μs</title>
<rect y="413" rx="5" height="22" width="220.47265468848235" fill="hsl(140, 100%, 80%)" stroke="hsl(140, 100%, 55%)" />
<g stroke="hsl(140, 100%, 40%)"><line x1="206.73045123117734" x2="234.21485814578736" y1="424" y2="424" />
<line x1="206.73045123117734" x2="206.73045123117734" y1="418" y2="430" />
<line x1="234.21485814578736" x2="234.21485814578736" y1="418" y2="430" />
</g>
</g>
<text fill="hsl(160, 100%, 40%)" y="462">filesize.deep.2000.effectful 1.85 ms</text>
<g>
<title>1.85 ms ±  89 μs</title>
<rect y="468" rx="5" height="22" width="141.92109429023589" fill="hsl(160, 100%, 80%)" stroke="hsl(160, 100%, 55%)" />
<g stroke="hsl(160, 100%, 40%)"><line x1="135.076494887887" x2="148.76569369258476" y1="479" y2="479" />
<line x1="135.076494887887" x2="135.076494887887" y1="473" y2="485" />
<line x1="148.76569369258476" x2="148.76569369258476" y1="473" y2="485" />
</g>
</g>
<g fill="hsl(180, 100%, 40%)">
<text y="517">filesize.deep.2000.mtl</text>
<text y="517" x="389.7937879376743" text-anchor="end">5.07 ms</text>
</g>
<g>
<title>5.07 ms ± 345 μs</title>
<rect y="523" rx="5" height="22" width="389.7937879376743" fill="hsl(180, 100%, 80%)" stroke="hsl(180, 100%, 55%)" />
<g stroke="hsl(180, 100%, 40%)"><line x1="363.2628798104701" x2="416.32469606487854" y1="534" y2="534" />
<line x1="363.2628798104701" x2="363.2628798104701" y1="528" y2="540" />
<line x1="416.32469606487854" x2="416.32469606487854" y1="528" y2="540" />
</g>
</g>
<g fill="hsl(200, 100%, 40%)">
<text y="572">filesize.deep.2000.fused-effects</text>
<text y="572" x="566.5634355549328" text-anchor="end">7.37 ms</text>
</g>
<g>
<title>7.37 ms ± 719 μs</title>
<rect y="578" rx="5" height="22" width="566.5634355549328" fill="hsl(200, 100%, 80%)" stroke="hsl(200, 100%, 55%)" />
<g stroke="hsl(200, 100%, 40%)"><line x1="511.2571832722392" x2="621.8696878376263" y1="589" y2="589" />
<line x1="511.2571832722392" x2="511.2571832722392" y1="583" y2="595" />
<line x1="621.8696878376263" x2="621.8696878376263" y1="583" y2="595" />
</g>
</g>
<g fill="hsl(220, 100%, 40%)">
<text y="627">filesize.deep.2000.polysemy</text>
<text y="627" x="422.44224506073044" text-anchor="end">5.49 ms</text>
</g>
<g>
<title>5.49 ms ± 372 μs</title>
<rect y="633" rx="5" height="22" width="422.44224506073044" fill="hsl(220, 100%, 80%)" stroke="hsl(220, 100%, 55%)" />
<g stroke="hsl(220, 100%, 40%)"><line x1="393.8483340058082" x2="451.03615611565266" y1="644" y2="644" />
<line x1="393.8483340058082" x2="393.8483340058082" y1="638" y2="650" />
<line x1="451.03615611565266" x2="451.03615611565266" y1="638" y2="650" />
</g>
</g>
<text fill="hsl(240, 100%, 40%)" y="682">filesize.deep.3000.reference 2.76 ms</text>
<g>
<title>2.76 ms ± 201 μs</title>
<rect y="688" rx="5" height="22" width="212.2128424408589" fill="hsl(240, 100%, 80%)" stroke="hsl(240, 100%, 55%)" />
<g stroke="hsl(240, 100%, 40%)"><line x1="196.72420249531703" x2="227.70148238640078" y1="699" y2="699" />
<line x1="196.72420249531703" x2="196.72420249531703" y1="693" y2="705" />
<line x1="227.70148238640078" x2="227.70148238640078" y1="693" y2="705" />
</g>
</g>
<g fill="hsl(260, 100%, 40%)">
<text y="737">filesize.deep.3000.heftia</text>
<text y="737" x="335.1323641107252" text-anchor="end">4.36 ms</text>
</g>
<g>
<title>4.36 ms ± 219 μs</title>
<rect y="743" rx="5" height="22" width="335.1323641107252" fill="hsl(260, 100%, 80%)" stroke="hsl(260, 100%, 55%)" />
<g stroke="hsl(260, 100%, 40%)"><line x1="318.2981061258456" x2="351.96662209560475" y1="754" y2="754" />
<line x1="318.2981061258456" x2="318.2981061258456" y1="748" y2="760" />
<line x1="351.96662209560475" x2="351.96662209560475" y1="748" y2="760" />
</g>
</g>
<text fill="hsl(280, 100%, 40%)" y="792">filesize.deep.3000.effectful 2.86 ms</text>
<g>
<title>2.86 ms ± 228 μs</title>
<rect y="798" rx="5" height="22" width="219.79146863015433" fill="hsl(280, 100%, 80%)" stroke="hsl(280, 100%, 55%)" />
<g stroke="hsl(280, 100%, 40%)"><line x1="202.24987478948378" x2="237.33306247082487" y1="809" y2="809" />
<line x1="202.24987478948378" x2="202.24987478948378" y1="803" y2="815" />
<line x1="237.33306247082487" x2="237.33306247082487" y1="803" y2="815" />
</g>
</g>
<g fill="hsl(300, 100%, 40%)">
<text y="847">filesize.deep.3000.mtl</text>
<text y="847" x="606.4932182635006" text-anchor="end">7.89 ms</text>
</g>
<g>
<title>7.89 ms ± 419 μs</title>
<rect y="853" rx="5" height="22" width="606.4932182635006" fill="hsl(300, 100%, 80%)" stroke="hsl(300, 100%, 55%)" />
<g stroke="hsl(300, 100%, 40%)"><line x1="574.3118494755014" x2="638.6745870514998" y1="864" y2="864" />
<line x1="574.3118494755014" x2="574.3118494755014" y1="858" y2="870" />
<line x1="638.6745870514998" x2="638.6745870514998" y1="858" y2="870" />
</g>
</g>
<g fill="hsl(320, 100%, 40%)">
<text y="902">filesize.deep.3000.fused-effects</text>
<text y="902" x="876.5330801118755" text-anchor="end">11.4 ms</text>
</g>
<g>
<title>11.4 ms ± 825 μs</title>
<rect y="908" rx="5" height="22" width="876.5330801118755" fill="hsl(320, 100%, 80%)" stroke="hsl(320, 100%, 55%)" />
<g stroke="hsl(320, 100%, 40%)"><line x1="813.066160223751" x2="940.0" y1="919" y2="919" />
<line x1="813.066160223751" x2="813.066160223751" y1="913" y2="925" />
<line x1="940.0" x2="940.0" y1="913" y2="925" />
</g>
</g>
<g fill="hsl(340, 100%, 40%)">
<text y="957">filesize.deep.3000.polysemy</text>
<text y="957" x="647.5755626851231" text-anchor="end">8.42 ms</text>
</g>
<g>
<title>8.42 ms ± 588 μs</title>
<rect y="963" rx="5" height="22" width="647.5755626851231" fill="hsl(340, 100%, 80%)" stroke="hsl(340, 100%, 55%)" />
<g stroke="hsl(340, 100%, 40%)"><line x1="602.3273824925093" x2="692.823742877737" y1="974" y2="974" />
<line x1="602.3273824925093" x2="602.3273824925093" y1="968" y2="980" />
<line x1="692.823742877737" x2="692.823742877737" y1="968" y2="980" />
</g>
</g>
</g>
</svg>
