<svg xmlns="http://www.w3.org/2000/svg" height="557" width="960.0" font-size="16" font-family="sans-serif" stroke-width="2">
<g transform="translate(10.0 0)">
<text fill="hsl(0, 100%, 40%)" y="22">local.deep.10000.heftia.5+5+0 928  μs</text>
<g>
<title>928  μs ±  55 μs</title>
<rect y="28" rx="5" height="22" width="158.84992583429548" fill="hsl(0, 100%, 80%)" stroke="hsl(0, 100%, 55%)" />
<g stroke="hsl(0, 100%, 40%)"><line x1="149.49445652047447" x2="168.20539514811648" y1="39" y2="39" />
<line x1="149.49445652047447" x2="149.49445652047447" y1="33" y2="45" />
<line x1="168.20539514811648" x2="168.20539514811648" y1="33" y2="45" />
</g>
</g>
<text fill="hsl(36, 100%, 40%)" y="77">local.deep.10000.heftia.5+4+1 1.41 ms</text>
<g>
<title>1.41 ms ±  45 μs</title>
<rect y="83" rx="5" height="22" width="241.01555826013015" fill="hsl(36, 100%, 80%)" stroke="hsl(36, 100%, 55%)" />
<g stroke="hsl(36, 100%, 40%)"><line x1="233.38724832327122" x2="248.64386819698908" y1="94" y2="94" />
<line x1="233.38724832327122" x2="233.38724832327122" y1="88" y2="100" />
<line x1="248.64386819698908" x2="248.64386819698908" y1="88" y2="100" />
</g>
</g>
<g fill="hsl(72, 100%, 40%)">
<text y="132">local.deep.10000.heftia.5+3+2</text>
<text y="132" x="323.407957262157" text-anchor="end">1.89 ms</text>
</g>
<g>
<title>1.89 ms ± 173 μs</title>
<rect y="138" rx="5" height="22" width="323.407957262157" fill="hsl(72, 100%, 80%)" stroke="hsl(72, 100%, 55%)" />
<g stroke="hsl(72, 100%, 40%)"><line x1="293.709301963688" x2="353.10661256062605" y1="149" y2="149" />
<line x1="293.709301963688" x2="293.709301963688" y1="143" y2="155" />
<line x1="353.10661256062605" x2="353.10661256062605" y1="143" y2="155" />
</g>
</g>
<g fill="hsl(108, 100%, 40%)">
<text y="187">local.deep.10000.heftia.5+2+3</text>
<text y="187" x="427.4230574091069" text-anchor="end">2.50 ms</text>
</g>
<g>
<title>2.50 ms ± 198 μs</title>
<rect y="193" rx="5" height="22" width="427.4230574091069" fill="hsl(108, 100%, 80%)" stroke="hsl(108, 100%, 55%)" />
<g stroke="hsl(108, 100%, 40%)"><line x1="393.5148995718061" x2="461.3312152464077" y1="204" y2="204" />
<line x1="393.5148995718061" x2="393.5148995718061" y1="198" y2="210" />
<line x1="461.3312152464077" x2="461.3312152464077" y1="198" y2="210" />
</g>
</g>
<g fill="hsl(144, 100%, 40%)">
<text y="242">local.deep.10000.heftia.5+1+4</text>
<text y="242" x="520.3058872144234" text-anchor="end">3.04 ms</text>
</g>
<g>
<title>3.04 ms ± 199 μs</title>
<rect y="248" rx="5" height="22" width="520.3058872144234" fill="hsl(144, 100%, 80%)" stroke="hsl(144, 100%, 55%)" />
<g stroke="hsl(144, 100%, 40%)"><line x1="486.18523350841235" x2="554.4265409204344" y1="259" y2="259" />
<line x1="486.18523350841235" x2="486.18523350841235" y1="253" y2="265" />
<line x1="554.4265409204344" x2="554.4265409204344" y1="253" y2="265" />
</g>
</g>
<g fill="hsl(180, 100%, 40%)">
<text y="297">local.deep.10000.heftia.5+0+5</text>
<text y="297" x="621.358740033131" text-anchor="end">3.63 ms</text>
</g>
<g>
<title>3.63 ms ± 306 μs</title>
<rect y="303" rx="5" height="22" width="621.358740033131" fill="hsl(180, 100%, 80%)" stroke="hsl(180, 100%, 55%)" />
<g stroke="hsl(180, 100%, 40%)"><line x1="569.0141202667883" x2="673.7033597994737" y1="314" y2="314" />
<line x1="569.0141202667883" x2="569.0141202667883" y1="308" y2="320" />
<line x1="673.7033597994737" x2="673.7033597994737" y1="308" y2="320" />
</g>
</g>
<g fill="hsl(216, 100%, 40%)">
<text y="352">local.deep.10000.polysemy.5+5</text>
<text y="352" x="881.1231551530224" text-anchor="end">5.15 ms</text>
</g>
<g>
<title>5.15 ms ± 344 μs</title>
<rect y="358" rx="5" height="22" width="881.1231551530224" fill="hsl(216, 100%, 80%)" stroke="hsl(216, 100%, 55%)" />
<g stroke="hsl(216, 100%, 40%)"><line x1="822.2463103060447" x2="940.0" y1="369" y2="369" />
<line x1="822.2463103060447" x2="822.2463103060447" y1="363" y2="375" />
<line x1="940.0" x2="940.0" y1="363" y2="375" />
</g>
</g>
<g fill="hsl(252, 100%, 40%)">
<text y="407">local.deep.10000.fused.5+5</text>
<text y="407" x="599.6408859409011" text-anchor="end">3.50 ms</text>
</g>
<g>
<title>3.50 ms ± 199 μs</title>
<rect y="413" rx="5" height="22" width="599.6408859409011" fill="hsl(252, 100%, 80%)" stroke="hsl(252, 100%, 55%)" />
<g stroke="hsl(252, 100%, 40%)"><line x1="565.5614316680745" x2="633.7203402137276" y1="424" y2="424" />
<line x1="565.5614316680745" x2="565.5614316680745" y1="418" y2="430" />
<line x1="633.7203402137276" x2="633.7203402137276" y1="418" y2="430" />
</g>
</g>
<text fill="hsl(288, 100%, 40%)" y="462">local.deep.10000.effectful.5+5 445  μs</text>
<g>
<title>445  μs ±  24 μs</title>
<rect y="468" rx="5" height="22" width="76.19241958772773" fill="hsl(288, 100%, 80%)" stroke="hsl(288, 100%, 55%)" />
<g stroke="hsl(288, 100%, 40%)"><line x1="72.04340950598248" x2="80.34142966947297" y1="479" y2="479" />
<line x1="72.04340950598248" x2="72.04340950598248" y1="473" y2="485" />
<line x1="80.34142966947297" x2="80.34142966947297" y1="473" y2="485" />
</g>
</g>
<text fill="hsl(324, 100%, 40%)" y="517">local.deep.10000.monad-effect.5+5 75.5 μs</text>
<g>
<title>75.5 μs ± 5.7 μs</title>
<rect y="523" rx="5" height="22" width="12.925291071319048" fill="hsl(324, 100%, 80%)" stroke="hsl(324, 100%, 55%)" />
<g stroke="hsl(324, 100%, 40%)"><line x1="11.942013983058537" x2="13.90856815957956" y1="534" y2="534" />
<line x1="11.942013983058537" x2="11.942013983058537" y1="528" y2="540" />
<line x1="13.90856815957956" x2="13.90856815957956" y1="528" y2="540" />
</g>
</g>
</g>
</svg>
