<svg xmlns="http://www.w3.org/2000/svg" height="282" width="960.0" font-size="16" font-family="sans-serif" stroke-width="2">
<g transform="translate(10.0 0)">
<g fill="hsl(0, 100%, 40%)">
<text y="22">local.shallow.10000.heftia</text>
<text y="22" x="395.62652609032517" text-anchor="end">972  μs</text>
</g>
<g>
<title>972  μs ±  47 μs</title>
<rect y="28" rx="5" height="22" width="395.62652609032517" fill="hsl(0, 100%, 80%)" stroke="hsl(0, 100%, 55%)" />
<g stroke="hsl(0, 100%, 40%)"><line x1="376.6052769175383" x2="414.64777526311207" y1="39" y2="39" />
<line x1="376.6052769175383" x2="376.6052769175383" y1="33" y2="45" />
<line x1="414.64777526311207" x2="414.64777526311207" y1="33" y2="45" />
</g>
</g>
<g fill="hsl(72, 100%, 40%)">
<text y="77">local.shallow.10000.polysemy</text>
<text y="77" x="873.5353288600661" text-anchor="end">2.15 ms</text>
</g>
<g>
<title>2.15 ms ± 163 μs</title>
<rect y="83" rx="5" height="22" width="873.5353288600661" fill="hsl(72, 100%, 80%)" stroke="hsl(72, 100%, 55%)" />
<g stroke="hsl(72, 100%, 40%)"><line x1="807.0706577201322" x2="940.0" y1="94" y2="94" />
<line x1="807.0706577201322" x2="807.0706577201322" y1="88" y2="100" />
<line x1="940.0" x2="940.0" y1="88" y2="100" />
</g>
</g>
<g fill="hsl(144, 100%, 40%)">
<text y="132">local.shallow.10000.fused</text>
<text y="132" x="342.9846639491903" text-anchor="end">843  μs</text>
</g>
<g>
<title>843  μs ±  52 μs</title>
<rect y="138" rx="5" height="22" width="342.9846639491903" fill="hsl(144, 100%, 80%)" stroke="hsl(144, 100%, 55%)" />
<g stroke="hsl(144, 100%, 40%)"><line x1="321.7133595789423" x2="364.2559683194383" y1="149" y2="149" />
<line x1="321.7133595789423" x2="321.7133595789423" y1="143" y2="155" />
<line x1="364.2559683194383" x2="364.2559683194383" y1="143" y2="155" />
</g>
</g>
<text fill="hsl(216, 100%, 40%)" y="187">local.shallow.10000.effectful 460  μs</text>
<g>
<title>460  μs ±  43 μs</title>
<rect y="193" rx="5" height="22" width="187.1191508215872" fill="hsl(216, 100%, 80%)" stroke="hsl(216, 100%, 55%)" />
<g stroke="hsl(216, 100%, 40%)"><line x1="169.59765336616317" x2="204.64064827701122" y1="204" y2="204" />
<line x1="169.59765336616317" x2="169.59765336616317" y1="198" y2="210" />
<line x1="204.64064827701122" x2="204.64064827701122" y1="198" y2="210" />
</g>
</g>
<text fill="hsl(288, 100%, 40%)" y="242">local.shallow.10000.monad-effect 49.5 μs</text>
<g>
<title>49.5 μs ± 4.9 μs</title>
<rect y="248" rx="5" height="22" width="20.159863414687845" fill="hsl(288, 100%, 80%)" stroke="hsl(288, 100%, 55%)" />
<g stroke="hsl(288, 100%, 40%)"><line x1="18.152348086669274" x2="22.167378742706415" y1="259" y2="259" />
<line x1="18.152348086669274" x2="18.152348086669274" y1="253" y2="265" />
<line x1="22.167378742706415" x2="22.167378742706415" y1="253" y2="265" />
</g>
</g>
</g>
</svg>
