<svg xmlns="http://www.w3.org/2000/svg" height="227" width="960.0" font-size="16" font-family="sans-serif" stroke-width="2">
<g transform="translate(10.0 0)">
<text fill="hsl(0, 100%, 40%)" y="22">nondet.deep.32.heftia.5+5 5.49 ms</text>
<g>
<title>5.49 ms ± 440 μs</title>
<rect y="28" rx="5" height="22" width="234.80710369104688" fill="hsl(0, 100%, 80%)" stroke="hsl(0, 100%, 55%)" />
<g stroke="hsl(0, 100%, 40%)"><line x1="215.98804298297463" x2="253.62616439911912" y1="39" y2="39" />
<line x1="215.98804298297463" x2="215.98804298297463" y1="33" y2="45" />
<line x1="253.62616439911912" x2="253.62616439911912" y1="33" y2="45" />
</g>
</g>
<g fill="hsl(90, 100%, 40%)">
<text y="77">nondet.deep.32.heftia.shift.5+5</text>
<text y="77" x="876.8302203785528" text-anchor="end">20.5 ms</text>
</g>
<g>
<title>20.5 ms ± 1.5 ms</title>
<rect y="83" rx="5" height="22" width="876.8302203785528" fill="hsl(90, 100%, 80%)" stroke="hsl(90, 100%, 55%)" />
<g stroke="hsl(90, 100%, 40%)"><line x1="813.6604407571056" x2="940.0" y1="94" y2="94" />
<line x1="813.6604407571056" x2="813.6604407571056" y1="88" y2="100" />
<line x1="940.0" x2="940.0" y1="88" y2="100" />
</g>
</g>
<g fill="hsl(180, 100%, 40%)">
<text y="132">nondet.deep.32.fused.5+5</text>
<text y="132" x="270.0807211220331" text-anchor="end">6.32 ms</text>
</g>
<g>
<title>6.32 ms ± 438 μs</title>
<rect y="138" rx="5" height="22" width="270.0807211220331" fill="hsl(180, 100%, 80%)" stroke="hsl(180, 100%, 55%)" />
<g stroke="hsl(180, 100%, 40%)"><line x1="251.3786993140532" x2="288.78274293001294" y1="149" y2="149" />
<line x1="251.3786993140532" x2="251.3786993140532" y1="143" y2="155" />
<line x1="288.78274293001294" x2="288.78274293001294" y1="143" y2="155" />
</g>
</g>
<text fill="hsl(270, 100%, 40%)" y="187">nondet.deep.32.mtl-logict.5+5 3.90 ms</text>
<g>
<title>3.90 ms ± 376 μs</title>
<rect y="193" rx="5" height="22" width="166.72672871961768" fill="hsl(270, 100%, 80%)" stroke="hsl(270, 100%, 55%)" />
<g stroke="hsl(270, 100%, 40%)"><line x1="150.6752306547443" x2="182.77822678449107" y1="204" y2="204" />
<line x1="150.6752306547443" x2="150.6752306547443" y1="198" y2="210" />
<line x1="182.77822678449107" x2="182.77822678449107" y1="198" y2="210" />
</g>
</g>
</g>
</svg>
