<svg xmlns="http://www.w3.org/2000/svg" height="612" width="960.0" font-size="16" font-family="sans-serif" stroke-width="2">
<g transform="translate(10.0 0)">
<text fill="hsl(0, 100%, 40%)" y="22">catch.deep.10000.heftia.5+5+0 1.00 ms</text>
<g>
<title>1.00 ms ±  96 μs</title>
<rect y="28" rx="5" height="22" width="59.36138415392068" fill="hsl(0, 100%, 80%)" stroke="hsl(0, 100%, 55%)" />
<g stroke="hsl(0, 100%, 40%)"><line x1="53.63988095102191" x2="65.08288735681946" y1="39" y2="39" />
<line x1="53.63988095102191" x2="53.63988095102191" y1="33" y2="45" />
<line x1="65.08288735681946" x2="65.08288735681946" y1="33" y2="45" />
</g>
</g>
<text fill="hsl(32, 100%, 40%)" y="77">catch.deep.10000.heftia.5+4+1 2.21 ms</text>
<g>
<title>2.21 ms ± 182 μs</title>
<rect y="83" rx="5" height="22" width="131.61131882134453" fill="hsl(32, 100%, 80%)" stroke="hsl(32, 100%, 55%)" />
<g stroke="hsl(32, 100%, 40%)"><line x1="120.76719379744702" x2="142.45544384524203" y1="94" y2="94" />
<line x1="120.76719379744702" x2="120.76719379744702" y1="88" y2="100" />
<line x1="142.45544384524203" x2="142.45544384524203" y1="88" y2="100" />
</g>
</g>
<text fill="hsl(65, 100%, 40%)" y="132">catch.deep.10000.heftia.5+3+2 3.66 ms</text>
<g>
<title>3.66 ms ± 347 μs</title>
<rect y="138" rx="5" height="22" width="217.8428053918208" fill="hsl(65, 100%, 80%)" stroke="hsl(65, 100%, 55%)" />
<g stroke="hsl(65, 100%, 40%)"><line x1="197.18216976697718" x2="238.50344101666442" y1="149" y2="149" />
<line x1="197.18216976697718" x2="197.18216976697718" y1="143" y2="155" />
<line x1="238.50344101666442" x2="238.50344101666442" y1="143" y2="155" />
</g>
</g>
<text fill="hsl(98, 100%, 40%)" y="187">catch.deep.10000.heftia.5+2+3 4.91 ms</text>
<g>
<title>4.91 ms ± 267 μs</title>
<rect y="193" rx="5" height="22" width="291.9311564370864" fill="hsl(98, 100%, 80%)" stroke="hsl(98, 100%, 55%)" />
<g stroke="hsl(98, 100%, 40%)"><line x1="276.03855191956734" x2="307.8237609546054" y1="204" y2="204" />
<line x1="276.03855191956734" x2="276.03855191956734" y1="198" y2="210" />
<line x1="307.8237609546054" x2="307.8237609546054" y1="198" y2="210" />
</g>
</g>
<g fill="hsl(130, 100%, 40%)">
<text y="242">catch.deep.10000.heftia.5+1+4</text>
<text y="242" x="390.8725820673096" text-anchor="end">6.57 ms</text>
</g>
<g>
<title>6.57 ms ± 646 μs</title>
<rect y="248" rx="5" height="22" width="390.8725820673096" fill="hsl(130, 100%, 80%)" stroke="hsl(130, 100%, 55%)" />
<g stroke="hsl(130, 100%, 40%)"><line x1="352.42518656729203" x2="429.3199775673272" y1="259" y2="259" />
<line x1="352.42518656729203" x2="352.42518656729203" y1="253" y2="265" />
<line x1="429.3199775673272" x2="429.3199775673272" y1="253" y2="265" />
</g>
</g>
<g fill="hsl(163, 100%, 40%)">
<text y="297">catch.deep.10000.heftia.5+0+5</text>
<text y="297" x="442.80152821968414" text-anchor="end">7.44 ms</text>
</g>
<g>
<title>7.44 ms ± 561 μs</title>
<rect y="303" rx="5" height="22" width="442.80152821968414" fill="hsl(163, 100%, 80%)" stroke="hsl(163, 100%, 55%)" />
<g stroke="hsl(163, 100%, 40%)"><line x1="409.4409194671001" x2="476.1621369722682" y1="314" y2="314" />
<line x1="409.4409194671001" x2="409.4409194671001" y1="308" y2="320" />
<line x1="476.1621369722682" x2="476.1621369722682" y1="308" y2="320" />
</g>
</g>
<g fill="hsl(196, 100%, 40%)">
<text y="352">catch.deep.10000.polysemy.5+5</text>
<text y="352" x="410.59339767068224" text-anchor="end">6.90 ms</text>
</g>
<g>
<title>6.90 ms ± 353 μs</title>
<rect y="358" rx="5" height="22" width="410.59339767068224" fill="hsl(196, 100%, 80%)" stroke="hsl(196, 100%, 55%)" />
<g stroke="hsl(196, 100%, 40%)"><line x1="389.56653447756094" x2="431.62026086380354" y1="369" y2="369" />
<line x1="389.56653447756094" x2="389.56653447756094" y1="363" y2="375" />
<line x1="431.62026086380354" x2="431.62026086380354" y1="363" y2="375" />
</g>
</g>
<g fill="hsl(229, 100%, 40%)">
<text y="407">catch.deep.10000.fused.5+5</text>
<text y="407" x="859.2941332878028" text-anchor="end">14.4 ms</text>
</g>
<g>
<title>14.4 ms ± 1.4 ms</title>
<rect y="413" rx="5" height="22" width="859.2941332878028" fill="hsl(229, 100%, 80%)" stroke="hsl(229, 100%, 55%)" />
<g stroke="hsl(229, 100%, 40%)"><line x1="778.5882665756055" x2="940.0" y1="424" y2="424" />
<line x1="778.5882665756055" x2="778.5882665756055" y1="418" y2="430" />
<line x1="940.0" x2="940.0" y1="418" y2="430" />
</g>
</g>
<text fill="hsl(261, 100%, 40%)" y="462">catch.deep.10000.effectful.5+5 4.73 ms</text>
<g>
<title>4.73 ms ± 216 μs</title>
<rect y="468" rx="5" height="22" width="281.20533535038226" fill="hsl(261, 100%, 80%)" stroke="hsl(261, 100%, 55%)" />
<g stroke="hsl(261, 100%, 40%)"><line x1="268.3713763586326" x2="294.03929434213194" y1="479" y2="479" />
<line x1="268.3713763586326" x2="268.3713763586326" y1="473" y2="485" />
<line x1="294.03929434213194" x2="294.03929434213194" y1="473" y2="485" />
</g>
</g>
<text fill="hsl(294, 100%, 40%)" y="517">catch.deep.10000.mtl.5+5 3.77 ms</text>
<g>
<title>3.77 ms ± 210 μs</title>
<rect y="523" rx="5" height="22" width="224.03623775093868" fill="hsl(294, 100%, 80%)" stroke="hsl(294, 100%, 55%)" />
<g stroke="hsl(294, 100%, 40%)"><line x1="211.54726104334173" x2="236.52521445853563" y1="534" y2="534" />
<line x1="211.54726104334173" x2="211.54726104334173" y1="528" y2="540" />
<line x1="236.52521445853563" x2="236.52521445853563" y1="528" y2="540" />
</g>
</g>
<text fill="hsl(327, 100%, 40%)" y="572">catch.deep.10000.monad-effect.10 630  μs</text>
<g>
<title>630  μs ±  51 μs</title>
<rect y="578" rx="5" height="22" width="37.48385706242108" fill="hsl(327, 100%, 80%)" stroke="hsl(327, 100%, 55%)" />
<g stroke="hsl(327, 100%, 40%)"><line x1="34.47402103568265" x2="40.493693089159514" y1="589" y2="589" />
<line x1="34.47402103568265" x2="34.47402103568265" y1="583" y2="595" />
<line x1="40.493693089159514" x2="40.493693089159514" y1="583" y2="595" />
</g>
</g>
</g>
</svg>
