<svg xmlns="http://www.w3.org/2000/svg" height="337" width="960.0" font-size="16" font-family="sans-serif" stroke-width="2">
<g transform="translate(10.0 0)">
<text fill="hsl(0, 100%, 40%)" y="22">catch.shallow.10000.heftia 994  μs</text>
<g>
<title>994  μs ±  94 μs</title>
<rect y="28" rx="5" height="22" width="181.4008721281454" fill="hsl(0, 100%, 80%)" stroke="hsl(0, 100%, 55%)" />
<g stroke="hsl(0, 100%, 40%)"><line x1="164.28957543081256" x2="198.51216882547826" y1="39" y2="39" />
<line x1="164.28957543081256" x2="164.28957543081256" y1="33" y2="45" />
<line x1="198.51216882547826" x2="198.51216882547826" y1="33" y2="45" />
</g>
</g>
<g fill="hsl(60, 100%, 40%)">
<text y="77">catch.shallow.10000.polysemy</text>
<text y="77" x="441.7845435804554" text-anchor="end">2.42 ms</text>
</g>
<g>
<title>2.42 ms ± 182 μs</title>
<rect y="83" rx="5" height="22" width="441.7845435804554" fill="hsl(60, 100%, 80%)" stroke="hsl(60, 100%, 55%)" />
<g stroke="hsl(60, 100%, 40%)"><line x1="408.4908202341574" x2="475.07826692675343" y1="94" y2="94" />
<line x1="408.4908202341574" x2="408.4908202341574" y1="88" y2="100" />
<line x1="475.07826692675343" x2="475.07826692675343" y1="88" y2="100" />
</g>
</g>
<g fill="hsl(120, 100%, 40%)">
<text y="132">catch.shallow.10000.fused</text>
<text y="132" x="584.5794390934357" text-anchor="end">3.20 ms</text>
</g>
<g>
<title>3.20 ms ± 217 μs</title>
<rect y="138" rx="5" height="22" width="584.5794390934357" fill="hsl(120, 100%, 80%)" stroke="hsl(120, 100%, 55%)" />
<g stroke="hsl(120, 100%, 40%)"><line x1="545.0688960522203" x2="624.089982134651" y1="149" y2="149" />
<line x1="545.0688960522203" x2="545.0688960522203" y1="143" y2="155" />
<line x1="624.089982134651" x2="624.089982134651" y1="143" y2="155" />
</g>
</g>
<g fill="hsl(180, 100%, 40%)">
<text y="187">catch.shallow.10000.effectful</text>
<text y="187" x="877.3926653613909" text-anchor="end">4.81 ms</text>
</g>
<g>
<title>4.81 ms ± 343 μs</title>
<rect y="193" rx="5" height="22" width="877.3926653613909" fill="hsl(180, 100%, 80%)" stroke="hsl(180, 100%, 55%)" />
<g stroke="hsl(180, 100%, 40%)"><line x1="814.7853307227817" x2="940.0" y1="204" y2="204" />
<line x1="814.7853307227817" x2="814.7853307227817" y1="198" y2="210" />
<line x1="940.0" x2="940.0" y1="198" y2="210" />
</g>
</g>
<text fill="hsl(240, 100%, 40%)" y="242">catch.shallow.10000.mtl 255  μs</text>
<g>
<title>255  μs ±  23 μs</title>
<rect y="248" rx="5" height="22" width="46.47963242289841" fill="hsl(240, 100%, 80%)" stroke="hsl(240, 100%, 55%)" />
<g stroke="hsl(240, 100%, 40%)"><line x1="42.33015498556333" x2="50.62910986023349" y1="259" y2="259" />
<line x1="42.33015498556333" x2="42.33015498556333" y1="253" y2="265" />
<line x1="50.62910986023349" x2="50.62910986023349" y1="253" y2="265" />
</g>
</g>
<text fill="hsl(300, 100%, 40%)" y="297">catch.shallow.10000.monad-effect 624  μs</text>
<g>
<title>624  μs ±  46 μs</title>
<rect y="303" rx="5" height="22" width="113.88630177382683" fill="hsl(300, 100%, 80%)" stroke="hsl(300, 100%, 55%)" />
<g stroke="hsl(300, 100%, 40%)"><line x1="105.46762662976094" x2="122.30497691789272" y1="314" y2="314" />
<line x1="105.46762662976094" x2="105.46762662976094" y1="308" y2="320" />
<line x1="122.30497691789272" x2="122.30497691789272" y1="308" y2="320" />
</g>
</g>
</g>
</svg>
