<svg xmlns="http://www.w3.org/2000/svg" height="337" width="960.0" font-size="16" font-family="sans-serif" stroke-width="2">
<g transform="translate(10.0 0)">
<text fill="hsl(0, 100%, 40%)" y="22">countdown.deep.10000.heftia.5+5 3.01 ms</text>
<g>
<title>3.01 ms ± 272 μs</title>
<rect y="28" rx="5" height="22" width="275.80695586547137" fill="hsl(0, 100%, 80%)" stroke="hsl(0, 100%, 55%)" />
<g stroke="hsl(0, 100%, 40%)"><line x1="250.89301276754904" x2="300.7208989633937" y1="39" y2="39" />
<line x1="250.89301276754904" x2="250.89301276754904" y1="33" y2="45" />
<line x1="300.7208989633937" x2="300.7208989633937" y1="33" y2="45" />
</g>
</g>
<text fill="hsl(60, 100%, 40%)" y="77">countdown.deep.10000.polysemy.5+5 2.89 ms</text>
<g>
<title>2.89 ms ± 168 μs</title>
<rect y="83" rx="5" height="22" width="264.88821117739764" fill="hsl(60, 100%, 80%)" stroke="hsl(60, 100%, 55%)" />
<g stroke="hsl(60, 100%, 40%)"><line x1="249.4827818947427" x2="280.2936404600526" y1="94" y2="94" />
<line x1="249.4827818947427" x2="249.4827818947427" y1="88" y2="100" />
<line x1="280.2936404600526" x2="280.2936404600526" y1="88" y2="100" />
</g>
</g>
<g fill="hsl(120, 100%, 40%)">
<text y="132">countdown.deep.10000.fused.5+5</text>
<text y="132" x="864.489254061151" text-anchor="end">9.42 ms</text>
</g>
<g>
<title>9.42 ms ± 823 μs</title>
<rect y="138" rx="5" height="22" width="864.489254061151" fill="hsl(120, 100%, 80%)" stroke="hsl(120, 100%, 55%)" />
<g stroke="hsl(120, 100%, 40%)"><line x1="788.978508122302" x2="940.0" y1="149" y2="149" />
<line x1="788.978508122302" x2="788.978508122302" y1="143" y2="155" />
<line x1="940.0" x2="940.0" y1="143" y2="155" />
</g>
</g>
<text fill="hsl(180, 100%, 40%)" y="187">countdown.deep.10000.effectful.5+5 648  μs</text>
<g>
<title>648  μs ±  56 μs</title>
<rect y="193" rx="5" height="22" width="59.44841390861876" fill="hsl(180, 100%, 80%)" stroke="hsl(180, 100%, 55%)" />
<g stroke="hsl(180, 100%, 40%)"><line x1="54.31126571376447" x2="64.58556210347305" y1="204" y2="204" />
<line x1="54.31126571376447" x2="54.31126571376447" y1="198" y2="210" />
<line x1="64.58556210347305" x2="64.58556210347305" y1="198" y2="210" />
</g>
</g>
<g fill="hsl(240, 100%, 40%)">
<text y="242">countdown.deep.10000.mtl.5+5</text>
<text y="242" x="428.5139836304561" text-anchor="end">4.67 ms</text>
</g>
<g>
<title>4.67 ms ± 270 μs</title>
<rect y="248" rx="5" height="22" width="428.5139836304561" fill="hsl(240, 100%, 80%)" stroke="hsl(240, 100%, 55%)" />
<g stroke="hsl(240, 100%, 40%)"><line x1="403.7381921131386" x2="453.2897751477736" y1="259" y2="259" />
<line x1="403.7381921131386" x2="403.7381921131386" y1="253" y2="265" />
<line x1="453.2897751477736" x2="453.2897751477736" y1="253" y2="265" />
</g>
</g>
<text fill="hsl(300, 100%, 40%)" y="297">countdown.deep.10000.monad-effect.5+5 1.57 ms</text>
<g>
<title>1.57 ms ± 139 μs</title>
<rect y="303" rx="5" height="22" width="144.1807681282505" fill="hsl(300, 100%, 80%)" stroke="hsl(300, 100%, 55%)" />
<g stroke="hsl(300, 100%, 40%)"><line x1="131.42309074885537" x2="156.9384455076456" y1="314" y2="314" />
<line x1="131.42309074885537" x2="131.42309074885537" y1="308" y2="320" />
<line x1="156.9384455076456" x2="156.9384455076456" y1="308" y2="320" />
</g>
</g>
</g>
</svg>
