<svg xmlns="http://www.w3.org/2000/svg" height="337" width="960.0" font-size="16" font-family="sans-serif" stroke-width="2">
<g transform="translate(10.0 0)">
<g fill="hsl(0, 100%, 40%)">
<text y="22">countdown.shallow.10000.heftia</text>
<text y="22" x="422.7021143280723" text-anchor="end">955  μs</text>
</g>
<g>
<title>955  μs ±  76 μs</title>
<rect y="28" rx="5" height="22" width="422.7021143280723" fill="hsl(0, 100%, 80%)" stroke="hsl(0, 100%, 55%)" />
<g stroke="hsl(0, 100%, 40%)"><line x1="389.0941647243509" x2="456.3100639317937" y1="39" y2="39" />
<line x1="389.0941647243509" x2="389.0941647243509" y1="33" y2="45" />
<line x1="456.3100639317937" x2="456.3100639317937" y1="33" y2="45" />
</g>
</g>
<g fill="hsl(60, 100%, 40%)">
<text y="77">countdown.shallow.10000.polyemy</text>
<text y="77" x="858.504367828387" text-anchor="end">1.94 ms</text>
</g>
<g>
<title>1.94 ms ± 184 μs</title>
<rect y="83" rx="5" height="22" width="858.504367828387" fill="hsl(60, 100%, 80%)" stroke="hsl(60, 100%, 55%)" />
<g stroke="hsl(60, 100%, 40%)"><line x1="777.008735656774" x2="940.0" y1="94" y2="94" />
<line x1="777.008735656774" x2="777.008735656774" y1="88" y2="100" />
<line x1="940.0" x2="940.0" y1="88" y2="100" />
</g>
</g>
<g fill="hsl(120, 100%, 40%)">
<text y="132">countdown.shallow.10000.fused</text>
<text y="132" x="779.2883639165437" text-anchor="end">1.76 ms</text>
</g>
<g>
<title>1.76 ms ± 171 μs</title>
<rect y="138" rx="5" height="22" width="779.2883639165437" fill="hsl(120, 100%, 80%)" stroke="hsl(120, 100%, 55%)" />
<g stroke="hsl(120, 100%, 40%)"><line x1="703.7815432978244" x2="854.795184535263" y1="149" y2="149" />
<line x1="703.7815432978244" x2="703.7815432978244" y1="143" y2="155" />
<line x1="854.795184535263" x2="854.795184535263" y1="143" y2="155" />
</g>
</g>
<text fill="hsl(180, 100%, 40%)" y="187">countdown.shallow.10000.effectful 634  μs</text>
<g>
<title>634  μs ±  52 μs</title>
<rect y="193" rx="5" height="22" width="280.45653101880316" fill="hsl(180, 100%, 80%)" stroke="hsl(180, 100%, 55%)" />
<g stroke="hsl(180, 100%, 40%)"><line x1="257.58295327155923" x2="303.3301087660471" y1="204" y2="204" />
<line x1="257.58295327155923" x2="257.58295327155923" y1="198" y2="210" />
<line x1="303.3301087660471" x2="303.3301087660471" y1="198" y2="210" />
</g>
</g>
<g fill="hsl(240, 100%, 40%)">
<text y="242">countdown.shallow.10000.mtl</text>
<text y="242" x="292.07392829096545" text-anchor="end">660  μs</text>
</g>
<g>
<title>660  μs ±  50 μs</title>
<rect y="248" rx="5" height="22" width="292.07392829096545" fill="hsl(240, 100%, 80%)" stroke="hsl(240, 100%, 55%)" />
<g stroke="hsl(240, 100%, 40%)"><line x1="269.8997999792316" x2="314.2480566026993" y1="259" y2="259" />
<line x1="269.8997999792316" x2="269.8997999792316" y1="253" y2="265" />
<line x1="314.2480566026993" x2="314.2480566026993" y1="253" y2="265" />
</g>
</g>
<g fill="hsl(300, 100%, 40%)">
<text y="297">countdown.shallow.10000.monad-effect</text>
<text y="297" x="808.571837035926" text-anchor="end">1.83 ms</text>
</g>
<g>
<title>1.83 ms ± 181 μs</title>
<rect y="303" rx="5" height="22" width="808.571837035926" fill="hsl(300, 100%, 80%)" stroke="hsl(300, 100%, 55%)" />
<g stroke="hsl(300, 100%, 40%)"><line x1="728.2919613016703" x2="888.8517127701817" y1="314" y2="314" />
<line x1="728.2919613016703" x2="728.2919613016703" y1="308" y2="320" />
<line x1="888.8517127701817" x2="888.8517127701817" y1="308" y2="320" />
</g>
</g>
</g>
</svg>
