<svg xmlns="http://www.w3.org/2000/svg" height="337" width="960.0" font-size="16" font-family="sans-serif" stroke-width="2">
<g transform="translate(10.0 0)">
<text fill="hsl(0, 100%, 40%)" y="22">countdown.deep.10000.heftia.5+5 2.98 ms</text>
<g>
<title>2.98 ms ± 172 μs</title>
<rect y="28" rx="5" height="22" width="276.22799355201266" fill="hsl(0, 100%, 80%)" stroke="hsl(0, 100%, 55%)" />
<g stroke="hsl(0, 100%, 40%)"><line x1="260.3048736131908" x2="292.1511134908345" y1="39" y2="39" />
<line x1="260.3048736131908" x2="260.3048736131908" y1="33" y2="45" />
<line x1="292.1511134908345" x2="292.1511134908345" y1="33" y2="45" />
</g>
</g>
<text fill="hsl(60, 100%, 40%)" y="77">countdown.deep.10000.polysemy.5+5 2.91 ms</text>
<g>
<title>2.91 ms ± 171 μs</title>
<rect y="83" rx="5" height="22" width="269.62004829466747" fill="hsl(60, 100%, 80%)" stroke="hsl(60, 100%, 55%)" />
<g stroke="hsl(60, 100%, 40%)"><line x1="253.760786757507" x2="285.47930983182795" y1="94" y2="94" />
<line x1="253.760786757507" x2="253.760786757507" y1="88" y2="100" />
<line x1="285.47930983182795" x2="285.47930983182795" y1="88" y2="100" />
</g>
</g>
<g fill="hsl(120, 100%, 40%)">
<text y="132">countdown.deep.10000.fused.5+5</text>
<text y="132" x="874.9881433804102" text-anchor="end">9.45 ms</text>
</g>
<g>
<title>9.45 ms ± 702 μs</title>
<rect y="138" rx="5" height="22" width="874.9881433804102" fill="hsl(120, 100%, 80%)" stroke="hsl(120, 100%, 55%)" />
<g stroke="hsl(120, 100%, 40%)"><line x1="809.9762867608204" x2="940.0" y1="149" y2="149" />
<line x1="809.9762867608204" x2="809.9762867608204" y1="143" y2="155" />
<line x1="940.0" x2="940.0" y1="143" y2="155" />
</g>
</g>
<text fill="hsl(180, 100%, 40%)" y="187">countdown.deep.10000.effectful.5+5 656  μs</text>
<g>
<title>656  μs ±  56 μs</title>
<rect y="193" rx="5" height="22" width="60.733197167192344" fill="hsl(180, 100%, 80%)" stroke="hsl(180, 100%, 55%)" />
<g stroke="hsl(180, 100%, 40%)"><line x1="55.54899518607861" x2="65.91739914830607" y1="204" y2="204" />
<line x1="55.54899518607861" x2="55.54899518607861" y1="198" y2="210" />
<line x1="65.91739914830607" x2="65.91739914830607" y1="198" y2="210" />
</g>
</g>
<g fill="hsl(240, 100%, 40%)">
<text y="242">countdown.deep.10000.mtl.5+5</text>
<text y="242" x="431.03837687971526" text-anchor="end">4.66 ms</text>
</g>
<g>
<title>4.66 ms ± 366 μs</title>
<rect y="248" rx="5" height="22" width="431.03837687971526" fill="hsl(240, 100%, 80%)" stroke="hsl(240, 100%, 55%)" />
<g stroke="hsl(240, 100%, 40%)"><line x1="397.1126788435883" x2="464.9640749158422" y1="259" y2="259" />
<line x1="397.1126788435883" x2="397.1126788435883" y1="253" y2="265" />
<line x1="464.9640749158422" x2="464.9640749158422" y1="253" y2="265" />
</g>
</g>
<text fill="hsl(300, 100%, 40%)" y="297">countdown.deep.10000.monad-effect.5+5 1.67 ms</text>
<g>
<title>1.67 ms ±  91 μs</title>
<rect y="303" rx="5" height="22" width="154.60272979790525" fill="hsl(300, 100%, 80%)" stroke="hsl(300, 100%, 55%)" />
<g stroke="hsl(300, 100%, 40%)"><line x1="146.17844168530715" x2="163.02701791050336" y1="314" y2="314" />
<line x1="146.17844168530715" x2="146.17844168530715" y1="308" y2="320" />
<line x1="163.02701791050336" x2="163.02701791050336" y1="308" y2="320" />
</g>
</g>
</g>
</svg>
