<svg xmlns="http://www.w3.org/2000/svg" height="337" width="960.0" font-size="16" font-family="sans-serif" stroke-width="2">
<g transform="translate(10.0 0)">
<g fill="hsl(0, 100%, 40%)">
<text y="22">countdown.shallow.10000.heftia</text>
<text y="22" x="423.244764978266" text-anchor="end">958  μs</text>
</g>
<g>
<title>958  μs ±  59 μs</title>
<rect y="28" rx="5" height="22" width="423.244764978266" fill="hsl(0, 100%, 80%)" stroke="hsl(0, 100%, 55%)" />
<g stroke="hsl(0, 100%, 40%)"><line x1="397.0938483826882" x2="449.39568157384383" y1="39" y2="39" />
<line x1="397.0938483826882" x2="397.0938483826882" y1="33" y2="45" />
<line x1="449.39568157384383" x2="449.39568157384383" y1="33" y2="45" />
</g>
</g>
<g fill="hsl(60, 100%, 40%)">
<text y="77">countdown.shallow.10000.polyemy</text>
<text y="77" x="857.8163646849877" text-anchor="end">1.94 ms</text>
</g>
<g>
<title>1.94 ms ± 186 μs</title>
<rect y="83" rx="5" height="22" width="857.8163646849877" fill="hsl(60, 100%, 80%)" stroke="hsl(60, 100%, 55%)" />
<g stroke="hsl(60, 100%, 40%)"><line x1="775.6327293699753" x2="940.0" y1="94" y2="94" />
<line x1="775.6327293699753" x2="775.6327293699753" y1="88" y2="100" />
<line x1="940.0" x2="940.0" y1="88" y2="100" />
</g>
</g>
<g fill="hsl(120, 100%, 40%)">
<text y="132">countdown.shallow.10000.fused</text>
<text y="132" x="778.6835498215017" text-anchor="end">1.76 ms</text>
</g>
<g>
<title>1.76 ms ± 101 μs</title>
<rect y="138" rx="5" height="22" width="778.6835498215017" fill="hsl(120, 100%, 80%)" stroke="hsl(120, 100%, 55%)" />
<g stroke="hsl(120, 100%, 40%)"><line x1="733.9422294670118" x2="823.4248701759917" y1="149" y2="149" />
<line x1="733.9422294670118" x2="733.9422294670118" y1="143" y2="155" />
<line x1="823.4248701759917" x2="823.4248701759917" y1="143" y2="155" />
</g>
</g>
<text fill="hsl(180, 100%, 40%)" y="187">countdown.shallow.10000.effectful 645  μs</text>
<g>
<title>645  μs ±  47 μs</title>
<rect y="193" rx="5" height="22" width="284.7814071445522" fill="hsl(180, 100%, 80%)" stroke="hsl(180, 100%, 55%)" />
<g stroke="hsl(180, 100%, 40%)"><line x1="264.204770422444" x2="305.35804386666035" y1="204" y2="204" />
<line x1="264.204770422444" x2="264.204770422444" y1="198" y2="210" />
<line x1="305.35804386666035" x2="305.35804386666035" y1="198" y2="210" />
</g>
</g>
<g fill="hsl(240, 100%, 40%)">
<text y="242">countdown.shallow.10000.mtl</text>
<text y="242" x="289.58732973048575" text-anchor="end">655  μs</text>
</g>
<g>
<title>655  μs ±  42 μs</title>
<rect y="248" rx="5" height="22" width="289.58732973048575" fill="hsl(240, 100%, 80%)" stroke="hsl(240, 100%, 55%)" />
<g stroke="hsl(240, 100%, 40%)"><line x1="270.83430877425866" x2="308.34035068671284" y1="259" y2="259" />
<line x1="270.83430877425866" x2="270.83430877425866" y1="253" y2="265" />
<line x1="308.34035068671284" x2="308.34035068671284" y1="253" y2="265" />
</g>
</g>
<g fill="hsl(300, 100%, 40%)">
<text y="297">countdown.shallow.10000.monad-effect</text>
<text y="297" x="813.9528236188759" text-anchor="end">1.84 ms</text>
</g>
<g>
<title>1.84 ms ±  94 μs</title>
<rect y="303" rx="5" height="22" width="813.9528236188759" fill="hsl(300, 100%, 80%)" stroke="hsl(300, 100%, 55%)" />
<g stroke="hsl(300, 100%, 40%)"><line x1="772.20428660728" x2="855.7013606304718" y1="314" y2="314" />
<line x1="772.20428660728" x2="772.20428660728" y1="308" y2="320" />
<line x1="855.7013606304718" x2="855.7013606304718" y1="308" y2="320" />
</g>
</g>
</g>
</svg>
