<svg xmlns="http://www.w3.org/2000/svg" height="997" width="960.0" font-size="16" font-family="sans-serif" stroke-width="2">
<g transform="translate(10.0 0)">
<text fill="hsl(0, 100%, 40%)" y="22">filesize.shallow.1000.reference 1.26 ms</text>
<g>
<title>1.26 ms ± 106 μs</title>
<rect y="28" rx="5" height="22" width="108.12204594532697" fill="hsl(0, 100%, 80%)" stroke="hsl(0, 100%, 55%)" />
<g stroke="hsl(0, 100%, 40%)"><line x1="99.04318613265677" x2="117.20090575799718" y1="39" y2="39" />
<line x1="99.04318613265677" x2="99.04318613265677" y1="33" y2="45" />
<line x1="117.20090575799718" x2="117.20090575799718" y1="33" y2="45" />
</g>
</g>
<text fill="hsl(20, 100%, 40%)" y="77">filesize.shallow.1000.heftia 2.01 ms</text>
<g>
<title>2.01 ms ± 170 μs</title>
<rect y="83" rx="5" height="22" width="171.47313667834183" fill="hsl(20, 100%, 80%)" stroke="hsl(20, 100%, 55%)" />
<g stroke="hsl(20, 100%, 40%)"><line x1="156.9507730894169" x2="185.99550026726675" y1="94" y2="94" />
<line x1="156.9507730894169" x2="156.9507730894169" y1="88" y2="100" />
<line x1="185.99550026726675" x2="185.99550026726675" y1="88" y2="100" />
</g>
</g>
<text fill="hsl(40, 100%, 40%)" y="132">filesize.shallow.1000.effectful 1.46 ms</text>
<g>
<title>1.46 ms ±  88 μs</title>
<rect y="138" rx="5" height="22" width="124.81854411907663" fill="hsl(40, 100%, 80%)" stroke="hsl(40, 100%, 55%)" />
<g stroke="hsl(40, 100%, 40%)"><line x1="117.30429537983039" x2="132.33279285832288" y1="149" y2="149" />
<line x1="117.30429537983039" x2="117.30429537983039" y1="143" y2="155" />
<line x1="132.33279285832288" x2="132.33279285832288" y1="143" y2="155" />
</g>
</g>
<text fill="hsl(60, 100%, 40%)" y="187">filesize.shallow.1000.mtl 1.68 ms</text>
<g>
<title>1.68 ms ±  89 μs</title>
<rect y="193" rx="5" height="22" width="143.76798895301647" fill="hsl(60, 100%, 80%)" stroke="hsl(60, 100%, 55%)" />
<g stroke="hsl(60, 100%, 40%)"><line x1="136.1629003246659" x2="151.37307758136703" y1="204" y2="204" />
<line x1="136.1629003246659" x2="136.1629003246659" y1="198" y2="210" />
<line x1="151.37307758136703" x2="151.37307758136703" y1="198" y2="210" />
</g>
</g>
<text fill="hsl(80, 100%, 40%)" y="242">filesize.shallow.1000.fused-effects 2.51 ms</text>
<g>
<title>2.51 ms ± 182 μs</title>
<rect y="248" rx="5" height="22" width="214.67321813125469" fill="hsl(80, 100%, 80%)" stroke="hsl(80, 100%, 55%)" />
<g stroke="hsl(80, 100%, 40%)"><line x1="199.15199408079536" x2="230.194442181714" y1="259" y2="259" />
<line x1="199.15199408079536" x2="199.15199408079536" y1="253" y2="265" />
<line x1="230.194442181714" x2="230.194442181714" y1="253" y2="265" />
</g>
</g>
<text fill="hsl(100, 100%, 40%)" y="297">filesize.shallow.1000.polysemy 3.16 ms</text>
<g>
<title>3.16 ms ± 184 μs</title>
<rect y="303" rx="5" height="22" width="270.0862018151576" fill="hsl(100, 100%, 80%)" stroke="hsl(100, 100%, 55%)" />
<g stroke="hsl(100, 100%, 40%)"><line x1="254.38170214182136" x2="285.7907014884938" y1="314" y2="314" />
<line x1="254.38170214182136" x2="254.38170214182136" y1="308" y2="320" />
<line x1="285.7907014884938" x2="285.7907014884938" y1="308" y2="320" />
</g>
</g>
<text fill="hsl(120, 100%, 40%)" y="352">filesize.shallow.2000.reference 2.59 ms</text>
<g>
<title>2.59 ms ± 200 μs</title>
<rect y="358" rx="5" height="22" width="221.0259129084903" fill="hsl(120, 100%, 80%)" stroke="hsl(120, 100%, 55%)" />
<g stroke="hsl(120, 100%, 40%)"><line x1="203.90274288319833" x2="238.1490829337823" y1="369" y2="369" />
<line x1="203.90274288319833" x2="203.90274288319833" y1="363" y2="375" />
<line x1="238.1490829337823" x2="238.1490829337823" y1="363" y2="375" />
</g>
</g>
<g fill="hsl(140, 100%, 40%)">
<text y="407">filesize.shallow.2000.heftia</text>
<text y="407" x="352.5481425820614" text-anchor="end">4.12 ms</text>
</g>
<g>
<title>4.12 ms ± 362 μs</title>
<rect y="413" rx="5" height="22" width="352.5481425820614" fill="hsl(140, 100%, 80%)" stroke="hsl(140, 100%, 55%)" />
<g stroke="hsl(140, 100%, 40%)"><line x1="321.59399691739094" x2="383.5022882467319" y1="424" y2="424" />
<line x1="321.59399691739094" x2="321.59399691739094" y1="418" y2="430" />
<line x1="383.5022882467319" x2="383.5022882467319" y1="418" y2="430" />
</g>
</g>
<text fill="hsl(160, 100%, 40%)" y="462">filesize.shallow.2000.effectful 3.03 ms</text>
<g>
<title>3.03 ms ± 206 μs</title>
<rect y="468" rx="5" height="22" width="258.60061737381267" fill="hsl(160, 100%, 80%)" stroke="hsl(160, 100%, 55%)" />
<g stroke="hsl(160, 100%, 40%)"><line x1="241.03520827584657" x2="276.16602647177876" y1="479" y2="479" />
<line x1="241.03520827584657" x2="241.03520827584657" y1="473" y2="485" />
<line x1="276.16602647177876" x2="276.16602647177876" y1="473" y2="485" />
</g>
</g>
<g fill="hsl(180, 100%, 40%)">
<text y="517">filesize.shallow.2000.mtl</text>
<text y="517" x="300.2607011998636" text-anchor="end">3.51 ms</text>
</g>
<g>
<title>3.51 ms ± 197 μs</title>
<rect y="523" rx="5" height="22" width="300.2607011998636" fill="hsl(180, 100%, 80%)" stroke="hsl(180, 100%, 55%)" />
<g stroke="hsl(180, 100%, 40%)"><line x1="283.40850713782936" x2="317.11289526189785" y1="534" y2="534" />
<line x1="283.40850713782936" x2="283.40850713782936" y1="528" y2="540" />
<line x1="317.11289526189785" x2="317.11289526189785" y1="528" y2="540" />
</g>
</g>
<g fill="hsl(200, 100%, 40%)">
<text y="572">filesize.shallow.2000.fused-effects</text>
<text y="572" x="442.2398697416691" text-anchor="end">5.17 ms</text>
</g>
<g>
<title>5.17 ms ± 380 μs</title>
<rect y="578" rx="5" height="22" width="442.2398697416691" fill="hsl(200, 100%, 80%)" stroke="hsl(200, 100%, 55%)" />
<g stroke="hsl(200, 100%, 40%)"><line x1="409.7277668296251" x2="474.7519726537131" y1="589" y2="589" />
<line x1="409.7277668296251" x2="409.7277668296251" y1="583" y2="595" />
<line x1="474.7519726537131" x2="474.7519726537131" y1="583" y2="595" />
</g>
</g>
<g fill="hsl(220, 100%, 40%)">
<text y="627">filesize.shallow.2000.polysemy</text>
<text y="627" x="561.9970946246455" text-anchor="end">6.57 ms</text>
</g>
<g>
<title>6.57 ms ± 340 μs</title>
<rect y="633" rx="5" height="22" width="561.9970946246455" fill="hsl(220, 100%, 80%)" stroke="hsl(220, 100%, 55%)" />
<g stroke="hsl(220, 100%, 40%)"><line x1="532.9668934797161" x2="591.0272957695748" y1="644" y2="644" />
<line x1="532.9668934797161" x2="532.9668934797161" y1="638" y2="650" />
<line x1="591.0272957695748" x2="591.0272957695748" y1="638" y2="650" />
</g>
</g>
<g fill="hsl(240, 100%, 40%)">
<text y="682">filesize.shallow.3000.reference</text>
<text y="682" x="331.7833143442749" text-anchor="end">3.88 ms</text>
</g>
<g>
<title>3.88 ms ± 197 μs</title>
<rect y="688" rx="5" height="22" width="331.7833143442749" fill="hsl(240, 100%, 80%)" stroke="hsl(240, 100%, 55%)" />
<g stroke="hsl(240, 100%, 40%)"><line x1="314.9677792361594" x2="348.5988494523904" y1="699" y2="699" />
<line x1="314.9677792361594" x2="314.9677792361594" y1="693" y2="705" />
<line x1="348.5988494523904" x2="348.5988494523904" y1="693" y2="705" />
</g>
</g>
<g fill="hsl(260, 100%, 40%)">
<text y="737">filesize.shallow.3000.heftia</text>
<text y="737" x="540.2607393168888" text-anchor="end">6.32 ms</text>
</g>
<g>
<title>6.32 ms ± 375 μs</title>
<rect y="743" rx="5" height="22" width="540.2607393168888" fill="hsl(260, 100%, 80%)" stroke="hsl(260, 100%, 55%)" />
<g stroke="hsl(260, 100%, 40%)"><line x1="508.21282701756456" x2="572.3086516162131" y1="754" y2="754" />
<line x1="508.21282701756456" x2="508.21282701756456" y1="748" y2="760" />
<line x1="572.3086516162131" x2="572.3086516162131" y1="748" y2="760" />
</g>
</g>
<g fill="hsl(280, 100%, 40%)">
<text y="792">filesize.shallow.3000.effectful</text>
<text y="792" x="392.0287434785237" text-anchor="end">4.59 ms</text>
</g>
<g>
<title>4.59 ms ± 347 μs</title>
<rect y="798" rx="5" height="22" width="392.0287434785237" fill="hsl(280, 100%, 80%)" stroke="hsl(280, 100%, 55%)" />
<g stroke="hsl(280, 100%, 40%)"><line x1="362.39264721053456" x2="421.6648397465129" y1="809" y2="809" />
<line x1="362.39264721053456" x2="362.39264721053456" y1="803" y2="815" />
<line x1="421.6648397465129" x2="421.6648397465129" y1="803" y2="815" />
</g>
</g>
<g fill="hsl(300, 100%, 40%)">
<text y="847">filesize.shallow.3000.mtl</text>
<text y="847" x="481.2919795065719" text-anchor="end">5.63 ms</text>
</g>
<g>
<title>5.63 ms ± 440 μs</title>
<rect y="853" rx="5" height="22" width="481.2919795065719" fill="hsl(300, 100%, 80%)" stroke="hsl(300, 100%, 55%)" />
<g stroke="hsl(300, 100%, 40%)"><line x1="443.7085767903048" x2="518.875382222839" y1="864" y2="864" />
<line x1="443.7085767903048" x2="443.7085767903048" y1="858" y2="870" />
<line x1="518.875382222839" x2="518.875382222839" y1="858" y2="870" />
</g>
</g>
<g fill="hsl(320, 100%, 40%)">
<text y="902">filesize.shallow.3000.fused-effects</text>
<text y="902" x="680.5164522022858" text-anchor="end">7.96 ms</text>
</g>
<g>
<title>7.96 ms ± 744 μs</title>
<rect y="908" rx="5" height="22" width="680.5164522022858" fill="hsl(320, 100%, 80%)" stroke="hsl(320, 100%, 55%)" />
<g stroke="hsl(320, 100%, 40%)"><line x1="616.9358594318662" x2="744.0970449727054" y1="919" y2="919" />
<line x1="616.9358594318662" x2="616.9358594318662" y1="913" y2="925" />
<line x1="744.0970449727054" x2="744.0970449727054" y1="913" y2="925" />
</g>
</g>
<g fill="hsl(340, 100%, 40%)">
<text y="957">filesize.shallow.3000.polysemy</text>
<text y="957" x="868.8091602705365" text-anchor="end">10.2 ms</text>
</g>
<g>
<title>10.2 ms ± 833 μs</title>
<rect y="963" rx="5" height="22" width="868.8091602705365" fill="hsl(340, 100%, 80%)" stroke="hsl(340, 100%, 55%)" />
<g stroke="hsl(340, 100%, 40%)"><line x1="797.618320541073" x2="940.0" y1="974" y2="974" />
<line x1="797.618320541073" x2="797.618320541073" y1="968" y2="980" />
<line x1="940.0" x2="940.0" y1="968" y2="980" />
</g>
</g>
</g>
</svg>
