<svg xmlns="http://www.w3.org/2000/svg" height="997" width="960.0" font-size="16" font-family="sans-serif" stroke-width="2">
<g transform="translate(10.0 0)">
<text fill="hsl(0, 100%, 40%)" y="22">filesize.deep.1000.reference 1.24 ms</text>
<g>
<title>1.24 ms ±  96 μs</title>
<rect y="28" rx="5" height="22" width="71.44086985389986" fill="hsl(0, 100%, 80%)" stroke="hsl(0, 100%, 55%)" />
<g stroke="hsl(0, 100%, 40%)"><line x1="65.9473925118198" x2="76.93434719597991" y1="39" y2="39" />
<line x1="65.9473925118198" x2="65.9473925118198" y1="33" y2="45" />
<line x1="76.93434719597991" x2="76.93434719597991" y1="33" y2="45" />
</g>
</g>
<text fill="hsl(20, 100%, 40%)" y="77">filesize.deep.1000.heftia 2.49 ms</text>
<g>
<title>2.49 ms ± 206 μs</title>
<rect y="83" rx="5" height="22" width="142.90027778887966" fill="hsl(20, 100%, 80%)" stroke="hsl(20, 100%, 55%)" />
<g stroke="hsl(20, 100%, 40%)"><line x1="131.06043180772133" x2="154.740123770038" y1="94" y2="94" />
<line x1="131.06043180772133" x2="131.06043180772133" y1="88" y2="100" />
<line x1="154.740123770038" x2="154.740123770038" y1="88" y2="100" />
</g>
</g>
<text fill="hsl(40, 100%, 40%)" y="132">filesize.deep.1000.effectful 1.44 ms</text>
<g>
<title>1.44 ms ±  92 μs</title>
<rect y="138" rx="5" height="22" width="83.04258403793875" fill="hsl(40, 100%, 80%)" stroke="hsl(40, 100%, 55%)" />
<g stroke="hsl(40, 100%, 40%)"><line x1="77.77961753095799" x2="88.30555054491951" y1="149" y2="149" />
<line x1="77.77961753095799" x2="77.77961753095799" y1="143" y2="155" />
<line x1="88.30555054491951" x2="88.30555054491951" y1="143" y2="155" />
</g>
</g>
<text fill="hsl(60, 100%, 40%)" y="187">filesize.deep.1000.mtl 3.29 ms</text>
<g>
<title>3.29 ms ± 172 μs</title>
<rect y="193" rx="5" height="22" width="189.18457711542484" fill="hsl(60, 100%, 80%)" stroke="hsl(60, 100%, 55%)" />
<g stroke="hsl(60, 100%, 40%)"><line x1="179.2711049367706" x2="199.0980492940791" y1="204" y2="204" />
<line x1="179.2711049367706" x2="179.2711049367706" y1="198" y2="210" />
<line x1="199.0980492940791" x2="199.0980492940791" y1="198" y2="210" />
</g>
</g>
<text fill="hsl(80, 100%, 40%)" y="242">filesize.deep.1000.fused-effects 4.97 ms</text>
<g>
<title>4.97 ms ± 355 μs</title>
<rect y="248" rx="5" height="22" width="285.8902094742194" fill="hsl(80, 100%, 80%)" stroke="hsl(80, 100%, 55%)" />
<g stroke="hsl(80, 100%, 40%)"><line x1="265.4857204842762" x2="306.29469846416254" y1="259" y2="259" />
<line x1="265.4857204842762" x2="265.4857204842762" y1="253" y2="265" />
<line x1="306.29469846416254" x2="306.29469846416254" y1="253" y2="265" />
</g>
</g>
<text fill="hsl(100, 100%, 40%)" y="297">filesize.deep.1000.polysemy 3.40 ms</text>
<g>
<title>3.40 ms ± 242 μs</title>
<rect y="303" rx="5" height="22" width="195.45665736929055" fill="hsl(100, 100%, 80%)" stroke="hsl(100, 100%, 55%)" />
<g stroke="hsl(100, 100%, 40%)"><line x1="181.54967290627616" x2="209.36364183230495" y1="314" y2="314" />
<line x1="181.54967290627616" x2="181.54967290627616" y1="308" y2="320" />
<line x1="209.36364183230495" x2="209.36364183230495" y1="308" y2="320" />
</g>
</g>
<text fill="hsl(120, 100%, 40%)" y="352">filesize.deep.2000.reference 2.60 ms</text>
<g>
<title>2.60 ms ± 255 μs</title>
<rect y="358" rx="5" height="22" width="149.41986510792057" fill="hsl(120, 100%, 80%)" stroke="hsl(120, 100%, 55%)" />
<g stroke="hsl(120, 100%, 40%)"><line x1="134.7520425031779" x2="164.08768771266324" y1="369" y2="369" />
<line x1="134.7520425031779" x2="134.7520425031779" y1="363" y2="375" />
<line x1="164.08768771266324" x2="164.08768771266324" y1="363" y2="375" />
</g>
</g>
<g fill="hsl(140, 100%, 40%)">
<text y="407">filesize.deep.2000.heftia</text>
<text y="407" x="297.0441115635894" text-anchor="end">5.17 ms</text>
</g>
<g>
<title>5.17 ms ± 336 μs</title>
<rect y="413" rx="5" height="22" width="297.0441115635894" fill="hsl(140, 100%, 80%)" stroke="hsl(140, 100%, 55%)" />
<g stroke="hsl(140, 100%, 40%)"><line x1="277.73476951419724" x2="316.3534536129816" y1="424" y2="424" />
<line x1="277.73476951419724" x2="277.73476951419724" y1="418" y2="430" />
<line x1="316.3534536129816" x2="316.3534536129816" y1="418" y2="430" />
</g>
</g>
<text fill="hsl(160, 100%, 40%)" y="462">filesize.deep.2000.effectful 2.97 ms</text>
<g>
<title>2.97 ms ± 275 μs</title>
<rect y="468" rx="5" height="22" width="170.94688049081535" fill="hsl(160, 100%, 80%)" stroke="hsl(160, 100%, 55%)" />
<g stroke="hsl(160, 100%, 40%)"><line x1="155.11163277808723" x2="186.78212820354346" y1="479" y2="479" />
<line x1="155.11163277808723" x2="155.11163277808723" y1="473" y2="485" />
<line x1="186.78212820354346" x2="186.78212820354346" y1="473" y2="485" />
</g>
</g>
<g fill="hsl(180, 100%, 40%)">
<text y="517">filesize.deep.2000.mtl</text>
<text y="517" x="391.37424616137724" text-anchor="end">6.81 ms</text>
</g>
<g>
<title>6.81 ms ± 413 μs</title>
<rect y="523" rx="5" height="22" width="391.37424616137724" fill="hsl(180, 100%, 80%)" stroke="hsl(180, 100%, 55%)" />
<g stroke="hsl(180, 100%, 40%)"><line x1="367.6298176104216" x2="415.1186747123329" y1="534" y2="534" />
<line x1="367.6298176104216" x2="367.6298176104216" y1="528" y2="540" />
<line x1="415.1186747123329" x2="415.1186747123329" y1="528" y2="540" />
</g>
</g>
<g fill="hsl(200, 100%, 40%)">
<text y="572">filesize.deep.2000.fused-effects</text>
<text y="572" x="583.2225594573911" text-anchor="end">10.1 ms</text>
</g>
<g>
<title>10.1 ms ± 906 μs</title>
<rect y="578" rx="5" height="22" width="583.2225594573911" fill="hsl(200, 100%, 80%)" stroke="hsl(200, 100%, 55%)" />
<g stroke="hsl(200, 100%, 40%)"><line x1="531.1268422820416" x2="635.3182766327405" y1="589" y2="589" />
<line x1="531.1268422820416" x2="531.1268422820416" y1="583" y2="595" />
<line x1="635.3182766327405" x2="635.3182766327405" y1="583" y2="595" />
</g>
</g>
<g fill="hsl(220, 100%, 40%)">
<text y="627">filesize.deep.2000.polysemy</text>
<text y="627" x="397.08811243132203" text-anchor="end">6.91 ms</text>
</g>
<g>
<title>6.91 ms ± 338 μs</title>
<rect y="633" rx="5" height="22" width="397.08811243132203" fill="hsl(220, 100%, 80%)" stroke="hsl(220, 100%, 55%)" />
<g stroke="hsl(220, 100%, 40%)"><line x1="377.6458849331199" x2="416.5303399295242" y1="644" y2="644" />
<line x1="377.6458849331199" x2="377.6458849331199" y1="638" y2="650" />
<line x1="416.5303399295242" x2="416.5303399295242" y1="638" y2="650" />
</g>
</g>
<text fill="hsl(240, 100%, 40%)" y="682">filesize.deep.3000.reference 3.83 ms</text>
<g>
<title>3.83 ms ± 220 μs</title>
<rect y="688" rx="5" height="22" width="220.2639718286771" fill="hsl(240, 100%, 80%)" stroke="hsl(240, 100%, 55%)" />
<g stroke="hsl(240, 100%, 40%)"><line x1="207.59463736897038" x2="232.9333062883838" y1="699" y2="699" />
<line x1="207.59463736897038" x2="207.59463736897038" y1="693" y2="705" />
<line x1="232.9333062883838" x2="232.9333062883838" y1="693" y2="705" />
</g>
</g>
<g fill="hsl(260, 100%, 40%)">
<text y="737">filesize.deep.3000.heftia</text>
<text y="737" x="448.91674155683495" text-anchor="end">7.81 ms</text>
</g>
<g>
<title>7.81 ms ± 403 μs</title>
<rect y="743" rx="5" height="22" width="448.91674155683495" fill="hsl(260, 100%, 80%)" stroke="hsl(260, 100%, 55%)" />
<g stroke="hsl(260, 100%, 40%)"><line x1="425.77309019403003" x2="472.06039291963987" y1="754" y2="754" />
<line x1="425.77309019403003" x2="425.77309019403003" y1="748" y2="760" />
<line x1="472.06039291963987" x2="472.06039291963987" y1="748" y2="760" />
</g>
</g>
<text fill="hsl(280, 100%, 40%)" y="792">filesize.deep.3000.effectful 4.49 ms</text>
<g>
<title>4.49 ms ± 367 μs</title>
<rect y="798" rx="5" height="22" width="257.88140646568877" fill="hsl(280, 100%, 80%)" stroke="hsl(280, 100%, 55%)" />
<g stroke="hsl(280, 100%, 40%)"><line x1="236.7977149499567" x2="278.9650979814208" y1="809" y2="809" />
<line x1="236.7977149499567" x2="236.7977149499567" y1="803" y2="815" />
<line x1="278.9650979814208" x2="278.9650979814208" y1="803" y2="815" />
</g>
</g>
<g fill="hsl(300, 100%, 40%)">
<text y="847">filesize.deep.3000.mtl</text>
<text y="847" x="605.6304491551152" text-anchor="end">10.5 ms</text>
</g>
<g>
<title>10.5 ms ± 687 μs</title>
<rect y="853" rx="5" height="22" width="605.6304491551152" fill="hsl(300, 100%, 80%)" stroke="hsl(300, 100%, 55%)" />
<g stroke="hsl(300, 100%, 40%)"><line x1="566.1204418167686" x2="645.1404564934619" y1="864" y2="864" />
<line x1="566.1204418167686" x2="566.1204418167686" y1="858" y2="870" />
<line x1="645.1404564934619" x2="645.1404564934619" y1="858" y2="870" />
</g>
</g>
<g fill="hsl(320, 100%, 40%)">
<text y="902">filesize.deep.3000.fused-effects</text>
<text y="902" x="886.9408774327126" text-anchor="end">15.4 ms</text>
</g>
<g>
<title>15.4 ms ± 923 μs</title>
<rect y="908" rx="5" height="22" width="886.9408774327126" fill="hsl(320, 100%, 80%)" stroke="hsl(320, 100%, 55%)" />
<g stroke="hsl(320, 100%, 40%)"><line x1="833.8817548654251" x2="940.0" y1="919" y2="919" />
<line x1="833.8817548654251" x2="833.8817548654251" y1="913" y2="925" />
<line x1="940.0" x2="940.0" y1="913" y2="925" />
</g>
</g>
<g fill="hsl(340, 100%, 40%)">
<text y="957">filesize.deep.3000.polysemy</text>
<text y="957" x="609.7357043361492" text-anchor="end">10.6 ms</text>
</g>
<g>
<title>10.6 ms ± 392 μs</title>
<rect y="963" rx="5" height="22" width="609.7357043361492" fill="hsl(340, 100%, 80%)" stroke="hsl(340, 100%, 55%)" />
<g stroke="hsl(340, 100%, 40%)"><line x1="587.1832735938805" x2="632.2881350784179" y1="974" y2="974" />
<line x1="587.1832735938805" x2="587.1832735938805" y1="968" y2="980" />
<line x1="632.2881350784179" x2="632.2881350784179" y1="968" y2="980" />
</g>
</g>
</g>
</svg>
