<svg xmlns="http://www.w3.org/2000/svg" height="282" width="960.0" font-size="16" font-family="sans-serif" stroke-width="2">
<g transform="translate(10.0 0)">
<g fill="hsl(0, 100%, 40%)">
<text y="22">local.shallow.10000.heftia</text>
<text y="22" x="901.7420830694359" text-anchor="end">4.39 ms</text>
</g>
<g>
<title>4.39 ms ± 186 μs</title>
<rect y="28" rx="5" height="22" width="901.7420830694359" fill="hsl(0, 100%, 80%)" stroke="hsl(0, 100%, 55%)" />
<g stroke="hsl(0, 100%, 40%)"><line x1="863.4841661388718" x2="940.0" y1="39" y2="39" />
<line x1="863.4841661388718" x2="863.4841661388718" y1="33" y2="45" />
<line x1="940.0" x2="940.0" y1="33" y2="45" />
</g>
</g>
<g fill="hsl(72, 100%, 40%)">
<text y="77">local.shallow.10000.polysemy</text>
<text y="77" x="548.3520361833306" text-anchor="end">2.67 ms</text>
</g>
<g>
<title>2.67 ms ± 238 μs</title>
<rect y="83" rx="5" height="22" width="548.3520361833306" fill="hsl(72, 100%, 80%)" stroke="hsl(72, 100%, 55%)" />
<g stroke="hsl(72, 100%, 40%)"><line x1="499.5403507342127" x2="597.1637216324485" y1="94" y2="94" />
<line x1="499.5403507342127" x2="499.5403507342127" y1="88" y2="100" />
<line x1="597.1637216324485" x2="597.1637216324485" y1="88" y2="100" />
</g>
</g>
<g fill="hsl(144, 100%, 40%)">
<text y="132">local.shallow.10000.fused</text>
<text y="132" x="267.5982828533129" text-anchor="end">1.30 ms</text>
</g>
<g>
<title>1.30 ms ± 107 μs</title>
<rect y="138" rx="5" height="22" width="267.5982828533129" fill="hsl(144, 100%, 80%)" stroke="hsl(144, 100%, 55%)" />
<g stroke="hsl(144, 100%, 40%)"><line x1="245.7267969811151" x2="289.4697687255108" y1="149" y2="149" />
<line x1="245.7267969811151" x2="245.7267969811151" y1="143" y2="155" />
<line x1="289.4697687255108" x2="289.4697687255108" y1="143" y2="155" />
</g>
</g>
<text fill="hsl(216, 100%, 40%)" y="187">local.shallow.10000.effectful 902  μs</text>
<g>
<title>902  μs ±  90 μs</title>
<rect y="193" rx="5" height="22" width="185.1198567528217" fill="hsl(216, 100%, 80%)" stroke="hsl(216, 100%, 55%)" />
<g stroke="hsl(216, 100%, 40%)"><line x1="166.7021145547116" x2="203.5375989509318" y1="204" y2="204" />
<line x1="166.7021145547116" x2="166.7021145547116" y1="198" y2="210" />
<line x1="203.5375989509318" x2="203.5375989509318" y1="198" y2="210" />
</g>
</g>
<text fill="hsl(288, 100%, 40%)" y="242">local.shallow.10000.monad-effect 497  μs</text>
<g>
<title>497  μs ±  22 μs</title>
<rect y="248" rx="5" height="22" width="102.00003358555811" fill="hsl(288, 100%, 80%)" stroke="hsl(288, 100%, 55%)" />
<g stroke="hsl(288, 100%, 40%)"><line x1="97.38364737262785" x2="106.61641979848838" y1="259" y2="259" />
<line x1="97.38364737262785" x2="97.38364737262785" y1="253" y2="265" />
<line x1="106.61641979848838" x2="106.61641979848838" y1="253" y2="265" />
</g>
</g>
</g>
</svg>
