<svg xmlns="http://www.w3.org/2000/svg" height="557" width="960.0" font-size="16" font-family="sans-serif" stroke-width="2">
<g transform="translate(10.0 0)">
<text fill="hsl(0, 100%, 40%)" y="22">local.deep.10000.heftia.5+5+0 4.40 ms</text>
<g>
<title>4.40 ms ± 224 μs</title>
<rect y="28" rx="5" height="22" width="286.5824932475006" fill="hsl(0, 100%, 80%)" stroke="hsl(0, 100%, 55%)" />
<g stroke="hsl(0, 100%, 40%)"><line x1="272.00962101559986" x2="301.1553654794014" y1="39" y2="39" />
<line x1="272.00962101559986" x2="272.00962101559986" y1="33" y2="45" />
<line x1="301.1553654794014" x2="301.1553654794014" y1="33" y2="45" />
</g>
</g>
<g fill="hsl(36, 100%, 40%)">
<text y="77">local.deep.10000.heftia.5+4+1</text>
<text y="77" x="376.4362719254217" text-anchor="end">5.78 ms</text>
</g>
<g>
<title>5.78 ms ± 344 μs</title>
<rect y="83" rx="5" height="22" width="376.4362719254217" fill="hsl(36, 100%, 80%)" stroke="hsl(36, 100%, 55%)" />
<g stroke="hsl(36, 100%, 40%)"><line x1="354.0346839610076" x2="398.8378598898358" y1="94" y2="94" />
<line x1="354.0346839610076" x2="354.0346839610076" y1="88" y2="100" />
<line x1="398.8378598898358" x2="398.8378598898358" y1="88" y2="100" />
</g>
</g>
<g fill="hsl(72, 100%, 40%)">
<text y="132">local.deep.10000.heftia.5+3+2</text>
<text y="132" x="470.9038631980424" text-anchor="end">7.23 ms</text>
</g>
<g>
<title>7.23 ms ± 453 μs</title>
<rect y="138" rx="5" height="22" width="470.9038631980424" fill="hsl(72, 100%, 80%)" stroke="hsl(72, 100%, 55%)" />
<g stroke="hsl(72, 100%, 40%)"><line x1="441.4045648880403" x2="500.40316150804455" y1="149" y2="149" />
<line x1="441.4045648880403" x2="441.4045648880403" y1="143" y2="155" />
<line x1="500.40316150804455" x2="500.40316150804455" y1="143" y2="155" />
</g>
</g>
<g fill="hsl(108, 100%, 40%)">
<text y="187">local.deep.10000.heftia.5+2+3</text>
<text y="187" x="548.9075945251112" text-anchor="end">8.43 ms</text>
</g>
<g>
<title>8.43 ms ± 681 μs</title>
<rect y="193" rx="5" height="22" width="548.9075945251112" fill="hsl(108, 100%, 80%)" stroke="hsl(108, 100%, 55%)" />
<g stroke="hsl(108, 100%, 40%)"><line x1="504.53152971709784" x2="593.2836593331245" y1="204" y2="204" />
<line x1="504.53152971709784" x2="504.53152971709784" y1="198" y2="210" />
<line x1="593.2836593331245" x2="593.2836593331245" y1="198" y2="210" />
</g>
</g>
<g fill="hsl(144, 100%, 40%)">
<text y="242">local.deep.10000.heftia.5+1+4</text>
<text y="242" x="744.323950313562" text-anchor="end">11.4 ms</text>
</g>
<g>
<title>11.4 ms ± 1.1 ms</title>
<rect y="248" rx="5" height="22" width="744.323950313562" fill="hsl(144, 100%, 80%)" stroke="hsl(144, 100%, 55%)" />
<g stroke="hsl(144, 100%, 40%)"><line x1="672.4657091043683" x2="816.1821915227557" y1="259" y2="259" />
<line x1="672.4657091043683" x2="672.4657091043683" y1="253" y2="265" />
<line x1="816.1821915227557" x2="816.1821915227557" y1="253" y2="265" />
</g>
</g>
<g fill="hsl(180, 100%, 40%)">
<text y="297">local.deep.10000.heftia.5+0+5</text>
<text y="297" x="877.3328969401978" text-anchor="end">13.5 ms</text>
</g>
<g>
<title>13.5 ms ± 962 μs</title>
<rect y="303" rx="5" height="22" width="877.3328969401978" fill="hsl(180, 100%, 80%)" stroke="hsl(180, 100%, 55%)" />
<g stroke="hsl(180, 100%, 40%)"><line x1="814.6657938803955" x2="940.0" y1="314" y2="314" />
<line x1="814.6657938803955" x2="814.6657938803955" y1="308" y2="320" />
<line x1="940.0" x2="940.0" y1="308" y2="320" />
</g>
</g>
<g fill="hsl(216, 100%, 40%)">
<text y="352">local.deep.10000.polysemy.5+5</text>
<text y="352" x="397.5007955633354" text-anchor="end">6.10 ms</text>
</g>
<g>
<title>6.10 ms ± 378 μs</title>
<rect y="358" rx="5" height="22" width="397.5007955633354" fill="hsl(216, 100%, 80%)" stroke="hsl(216, 100%, 55%)" />
<g stroke="hsl(216, 100%, 40%)"><line x1="372.87717548821075" x2="422.12441563846" y1="369" y2="369" />
<line x1="372.87717548821075" x2="372.87717548821075" y1="363" y2="375" />
<line x1="422.12441563846" x2="422.12441563846" y1="363" y2="375" />
</g>
</g>
<g fill="hsl(252, 100%, 40%)">
<text y="407">local.deep.10000.fused.5+5</text>
<text y="407" x="320.247254941262" text-anchor="end">4.92 ms</text>
</g>
<g>
<title>4.92 ms ± 406 μs</title>
<rect y="413" rx="5" height="22" width="320.247254941262" fill="hsl(252, 100%, 80%)" stroke="hsl(252, 100%, 55%)" />
<g stroke="hsl(252, 100%, 40%)"><line x1="293.7965200497099" x2="346.6979898328141" y1="424" y2="424" />
<line x1="293.7965200497099" x2="293.7965200497099" y1="418" y2="430" />
<line x1="346.6979898328141" x2="346.6979898328141" y1="418" y2="430" />
</g>
</g>
<text fill="hsl(288, 100%, 40%)" y="462">local.deep.10000.effectful.5+5 902  μs</text>
<g>
<title>902  μs ±  46 μs</title>
<rect y="468" rx="5" height="22" width="58.70562136388726" fill="hsl(288, 100%, 80%)" stroke="hsl(288, 100%, 55%)" />
<g stroke="hsl(288, 100%, 40%)"><line x1="55.699463538043695" x2="61.71177918973083" y1="479" y2="479" />
<line x1="55.699463538043695" x2="55.699463538043695" y1="473" y2="485" />
<line x1="61.71177918973083" x2="61.71177918973083" y1="473" y2="485" />
</g>
</g>
<text fill="hsl(324, 100%, 40%)" y="517">local.deep.10000.monad-effect.5+5 547  μs</text>
<g>
<title>547  μs ±  47 μs</title>
<rect y="523" rx="5" height="22" width="35.599927830853005" fill="hsl(324, 100%, 80%)" stroke="hsl(324, 100%, 55%)" />
<g stroke="hsl(324, 100%, 40%)"><line x1="32.50772679190377" x2="38.69212886980224" y1="534" y2="534" />
<line x1="32.50772679190377" x2="32.50772679190377" y1="528" y2="540" />
<line x1="38.69212886980224" x2="38.69212886980224" y1="528" y2="540" />
</g>
</g>
</g>
</svg>
