<svg xmlns="http://www.w3.org/2000/svg" height="227" width="960.0" font-size="16" font-family="sans-serif" stroke-width="2">
<g transform="translate(10.0 0)">
<g fill="hsl(0, 100%, 40%)">
<text y="22">nondet.deep.32.heftia.5+5</text>
<text y="22" x="314.2774542659736" text-anchor="end">16.4 ms</text>
</g>
<g>
<title>16.4 ms ± 969 μs</title>
<rect y="28" rx="5" height="22" width="314.2774542659736" fill="hsl(0, 100%, 80%)" stroke="hsl(0, 100%, 55%)" />
<g stroke="hsl(0, 100%, 40%)"><line x1="295.6988366824822" x2="332.85607184946497" y1="39" y2="39" />
<line x1="295.6988366824822" x2="295.6988366824822" y1="33" y2="45" />
<line x1="332.85607184946497" x2="332.85607184946497" y1="33" y2="45" />
</g>
</g>
<g fill="hsl(90, 100%, 40%)">
<text y="77">nondet.deep.32.heftia.shift.5+5</text>
<text y="77" x="881.8606281368069" text-anchor="end">46.0 ms</text>
</g>
<g>
<title>46.0 ms ± 3.0 ms</title>
<rect y="83" rx="5" height="22" width="881.8606281368069" fill="hsl(90, 100%, 80%)" stroke="hsl(90, 100%, 55%)" />
<g stroke="hsl(90, 100%, 40%)"><line x1="823.7212562736138" x2="940.0" y1="94" y2="94" />
<line x1="823.7212562736138" x2="823.7212562736138" y1="88" y2="100" />
<line x1="940.0" x2="940.0" y1="88" y2="100" />
</g>
</g>
<text fill="hsl(180, 100%, 40%)" y="132">nondet.deep.32.fused.5+5 10.4 ms</text>
<g>
<title>10.4 ms ± 676 μs</title>
<rect y="138" rx="5" height="22" width="199.49034497401715" fill="hsl(180, 100%, 80%)" stroke="hsl(180, 100%, 55%)" />
<g stroke="hsl(180, 100%, 40%)"><line x1="186.53724749981987" x2="212.44344244821443" y1="149" y2="149" />
<line x1="186.53724749981987" x2="186.53724749981987" y1="143" y2="155" />
<line x1="212.44344244821443" x2="212.44344244821443" y1="143" y2="155" />
</g>
</g>
<text fill="hsl(270, 100%, 40%)" y="187">nondet.deep.32.mtl-logict.5+5 7.13 ms</text>
<g>
<title>7.13 ms ± 688 μs</title>
<rect y="193" rx="5" height="22" width="136.63421356592286" fill="hsl(270, 100%, 80%)" stroke="hsl(270, 100%, 55%)" />
<g stroke="hsl(270, 100%, 40%)"><line x1="123.44991698162963" x2="149.8185101502161" y1="204" y2="204" />
<line x1="123.44991698162963" x2="123.44991698162963" y1="198" y2="210" />
<line x1="149.8185101502161" x2="149.8185101502161" y1="198" y2="210" />
</g>
</g>
</g>
</svg>
