<svg xmlns="http://www.w3.org/2000/svg" height="612" width="960.0" font-size="16" font-family="sans-serif" stroke-width="2">
<g transform="translate(10.0 0)">
<text fill="hsl(0, 100%, 40%)" y="22">catch.deep.10000.heftia.5+5+0 652  μs</text>
<g>
<title>652  μs ±  48 μs</title>
<rect y="28" rx="5" height="22" width="37.65598213203923" fill="hsl(0, 100%, 80%)" stroke="hsl(0, 100%, 55%)" />
<g stroke="hsl(0, 100%, 40%)"><line x1="34.91309502369226" x2="40.3988692403862" y1="39" y2="39" />
<line x1="34.91309502369226" x2="34.91309502369226" y1="33" y2="45" />
<line x1="40.3988692403862" x2="40.3988692403862" y1="33" y2="45" />
</g>
</g>
<text fill="hsl(32, 100%, 40%)" y="77">catch.deep.10000.heftia.5+4+1 1.10 ms</text>
<g>
<title>1.10 ms ± 105 μs</title>
<rect y="83" rx="5" height="22" width="63.36407951374035" fill="hsl(32, 100%, 80%)" stroke="hsl(32, 100%, 55%)" />
<g stroke="hsl(32, 100%, 40%)"><line x1="57.29069167624983" x2="69.43746735123086" y1="94" y2="94" />
<line x1="57.29069167624983" x2="57.29069167624983" y1="88" y2="100" />
<line x1="69.43746735123086" x2="69.43746735123086" y1="88" y2="100" />
</g>
</g>
<text fill="hsl(65, 100%, 40%)" y="132">catch.deep.10000.heftia.5+3+2 1.72 ms</text>
<g>
<title>1.72 ms ±  86 μs</title>
<rect y="138" rx="5" height="22" width="99.4897999990422" fill="hsl(65, 100%, 80%)" stroke="hsl(65, 100%, 55%)" />
<g stroke="hsl(65, 100%, 40%)"><line x1="94.51914355199355" x2="104.46045644609086" y1="149" y2="149" />
<line x1="94.51914355199355" x2="94.51914355199355" y1="143" y2="155" />
<line x1="104.46045644609086" x2="104.46045644609086" y1="143" y2="155" />
</g>
</g>
<text fill="hsl(98, 100%, 40%)" y="187">catch.deep.10000.heftia.5+2+3 2.42 ms</text>
<g>
<title>2.42 ms ± 124 μs</title>
<rect y="193" rx="5" height="22" width="139.71927593001706" fill="hsl(98, 100%, 80%)" stroke="hsl(98, 100%, 55%)" />
<g stroke="hsl(98, 100%, 40%)"><line x1="132.53909104701827" x2="146.89946081301585" y1="204" y2="204" />
<line x1="132.53909104701827" x2="132.53909104701827" y1="198" y2="210" />
<line x1="146.89946081301585" x2="146.89946081301585" y1="198" y2="210" />
</g>
</g>
<text fill="hsl(130, 100%, 40%)" y="242">catch.deep.10000.heftia.5+1+4 3.19 ms</text>
<g>
<title>3.19 ms ± 278 μs</title>
<rect y="248" rx="5" height="22" width="184.33004416640503" fill="hsl(130, 100%, 80%)" stroke="hsl(130, 100%, 55%)" />
<g stroke="hsl(130, 100%, 40%)"><line x1="168.26250573413176" x2="200.3975825986783" y1="259" y2="259" />
<line x1="168.26250573413176" x2="168.26250573413176" y1="253" y2="265" />
<line x1="200.3975825986783" x2="200.3975825986783" y1="253" y2="265" />
</g>
</g>
<text fill="hsl(163, 100%, 40%)" y="297">catch.deep.10000.heftia.5+0+5 4.06 ms</text>
<g>
<title>4.06 ms ± 382 μs</title>
<rect y="303" rx="5" height="22" width="234.19041141337073" fill="hsl(163, 100%, 80%)" stroke="hsl(163, 100%, 55%)" />
<g stroke="hsl(163, 100%, 40%)"><line x1="212.1267546387659" x2="256.2540681879756" y1="314" y2="314" />
<line x1="212.1267546387659" x2="212.1267546387659" y1="308" y2="320" />
<line x1="256.2540681879756" x2="256.2540681879756" y1="308" y2="320" />
</g>
</g>
<g fill="hsl(196, 100%, 40%)">
<text y="352">catch.deep.10000.polysemy.5+5</text>
<text y="352" x="419.6649254175647" text-anchor="end">7.27 ms</text>
</g>
<g>
<title>7.27 ms ± 444 μs</title>
<rect y="358" rx="5" height="22" width="419.6649254175647" fill="hsl(196, 100%, 80%)" stroke="hsl(196, 100%, 55%)" />
<g stroke="hsl(196, 100%, 40%)"><line x1="394.0297753122154" x2="445.30007552291397" y1="369" y2="369" />
<line x1="394.0297753122154" x2="394.0297753122154" y1="363" y2="375" />
<line x1="445.30007552291397" x2="445.30007552291397" y1="363" y2="375" />
</g>
</g>
<g fill="hsl(229, 100%, 40%)">
<text y="407">catch.deep.10000.fused.5+5</text>
<text y="407" x="860.8316267837972" text-anchor="end">14.9 ms</text>
</g>
<g>
<title>14.9 ms ± 1.4 ms</title>
<rect y="413" rx="5" height="22" width="860.8316267837972" fill="hsl(229, 100%, 80%)" stroke="hsl(229, 100%, 55%)" />
<g stroke="hsl(229, 100%, 40%)"><line x1="781.6632535675944" x2="940.0" y1="424" y2="424" />
<line x1="781.6632535675944" x2="781.6632535675944" y1="418" y2="430" />
<line x1="940.0" x2="940.0" y1="418" y2="430" />
</g>
</g>
<text fill="hsl(261, 100%, 40%)" y="462">catch.deep.10000.effectful.5+5 3.19 ms</text>
<g>
<title>3.19 ms ± 307 μs</title>
<rect y="468" rx="5" height="22" width="184.02841080550297" fill="hsl(261, 100%, 80%)" stroke="hsl(261, 100%, 55%)" />
<g stroke="hsl(261, 100%, 40%)"><line x1="166.31991400619555" x2="201.7369076048104" y1="479" y2="479" />
<line x1="166.31991400619555" x2="166.31991400619555" y1="473" y2="485" />
<line x1="201.7369076048104" x2="201.7369076048104" y1="473" y2="485" />
</g>
</g>
<text fill="hsl(294, 100%, 40%)" y="517">catch.deep.10000.mtl.5+5 4.23 ms</text>
<g>
<title>4.23 ms ± 361 μs</title>
<rect y="523" rx="5" height="22" width="244.03114601089288" fill="hsl(294, 100%, 80%)" stroke="hsl(294, 100%, 55%)" />
<g stroke="hsl(294, 100%, 40%)"><line x1="223.2065132886514" x2="264.8557787331344" y1="534" y2="534" />
<line x1="223.2065132886514" x2="223.2065132886514" y1="528" y2="540" />
<line x1="264.8557787331344" x2="264.8557787331344" y1="528" y2="540" />
</g>
</g>
<text fill="hsl(327, 100%, 40%)" y="572">catch.deep.10000.monad-effect.10 37.4 μs</text>
<g>
<title>37.4 μs ± 2.0 μs</title>
<rect y="578" rx="5" height="22" width="2.156025747445329" fill="hsl(327, 100%, 80%)" stroke="hsl(327, 100%, 55%)" />
<g stroke="hsl(327, 100%, 40%)"><line x1="2.04224385538112" x2="2.2698076395095375" y1="589" y2="589" />
<line x1="2.04224385538112" x2="2.04224385538112" y1="583" y2="595" />
<line x1="2.2698076395095375" x2="2.2698076395095375" y1="583" y2="595" />
</g>
</g>
</g>
</svg>
