<svg xmlns="http://www.w3.org/2000/svg" height="337" width="960.0" font-size="16" font-family="sans-serif" stroke-width="2">
<g transform="translate(10.0 0)">
<text fill="hsl(0, 100%, 40%)" y="22">catch.shallow.10000.heftia 643  μs</text>
<g>
<title>643  μs ±  53 μs</title>
<rect y="28" rx="5" height="22" width="178.47961990510316" fill="hsl(0, 100%, 80%)" stroke="hsl(0, 100%, 55%)" />
<g stroke="hsl(0, 100%, 40%)"><line x1="163.83492096404953" x2="193.1243188461568" y1="39" y2="39" />
<line x1="163.83492096404953" x2="163.83492096404953" y1="33" y2="45" />
<line x1="193.1243188461568" x2="193.1243188461568" y1="33" y2="45" />
</g>
</g>
<g fill="hsl(60, 100%, 40%)">
<text y="77">catch.shallow.10000.polysemy</text>
<text y="77" x="415.1799209945788" text-anchor="end">1.50 ms</text>
</g>
<g>
<title>1.50 ms ±  90 μs</title>
<rect y="83" rx="5" height="22" width="415.1799209945788" fill="hsl(60, 100%, 80%)" stroke="hsl(60, 100%, 55%)" />
<g stroke="hsl(60, 100%, 40%)"><line x1="390.23168550271816" x2="440.1281564864395" y1="94" y2="94" />
<line x1="390.23168550271816" x2="390.23168550271816" y1="88" y2="100" />
<line x1="440.1281564864395" x2="440.1281564864395" y1="88" y2="100" />
</g>
</g>
<g fill="hsl(120, 100%, 40%)">
<text y="132">catch.shallow.10000.fused</text>
<text y="132" x="673.061410603631" text-anchor="end">2.43 ms</text>
</g>
<g>
<title>2.43 ms ± 150 μs</title>
<rect y="138" rx="5" height="22" width="673.061410603631" fill="hsl(120, 100%, 80%)" stroke="hsl(120, 100%, 55%)" />
<g stroke="hsl(120, 100%, 40%)"><line x1="631.5922004307589" x2="714.530620776503" y1="149" y2="149" />
<line x1="631.5922004307589" x2="631.5922004307589" y1="143" y2="155" />
<line x1="714.530620776503" x2="714.530620776503" y1="143" y2="155" />
</g>
</g>
<g fill="hsl(180, 100%, 40%)">
<text y="187">catch.shallow.10000.effectful</text>
<text y="187" x="857.2248637104509" text-anchor="end">3.09 ms</text>
</g>
<g>
<title>3.09 ms ± 298 μs</title>
<rect y="193" rx="5" height="22" width="857.2248637104509" fill="hsl(180, 100%, 80%)" stroke="hsl(180, 100%, 55%)" />
<g stroke="hsl(180, 100%, 40%)"><line x1="774.4497274209018" x2="940.0" y1="204" y2="204" />
<line x1="774.4497274209018" x2="774.4497274209018" y1="198" y2="210" />
<line x1="940.0" x2="940.0" y1="198" y2="210" />
</g>
</g>
<text fill="hsl(240, 100%, 40%)" y="242">catch.shallow.10000.mtl 208  μs</text>
<g>
<title>208  μs ±  11 μs</title>
<rect y="248" rx="5" height="22" width="57.62883299641576" fill="hsl(240, 100%, 80%)" stroke="hsl(240, 100%, 55%)" />
<g stroke="hsl(240, 100%, 40%)"><line x1="54.52305136341496" x2="60.73461462941656" y1="259" y2="259" />
<line x1="54.52305136341496" x2="54.52305136341496" y1="253" y2="265" />
<line x1="60.73461462941656" x2="60.73461462941656" y1="253" y2="265" />
</g>
</g>
<text fill="hsl(300, 100%, 40%)" y="297">catch.shallow.10000.monad-effect 35.7 μs</text>
<g>
<title>35.7 μs ± 1.8 μs</title>
<rect y="303" rx="5" height="22" width="9.908730420599827" fill="hsl(300, 100%, 80%)" stroke="hsl(300, 100%, 55%)" />
<g stroke="hsl(300, 100%, 40%)"><line x1="9.409052416816008" x2="10.408408424383646" y1="314" y2="314" />
<line x1="9.409052416816008" x2="9.409052416816008" y1="308" y2="320" />
<line x1="10.408408424383646" x2="10.408408424383646" y1="308" y2="320" />
</g>
</g>
</g>
</svg>
