<svg xmlns="http://www.w3.org/2000/svg" height="337" width="960.0" font-size="16" font-family="sans-serif" stroke-width="2">
<g transform="translate(10.0 0)">
<text fill="hsl(0, 100%, 40%)" y="22">countdown.shallow.10000.heftia 163  μs</text>
<g>
<title>163  μs ±  15 μs</title>
<rect y="28" rx="5" height="22" width="110.07947416511223" fill="hsl(0, 100%, 80%)" stroke="hsl(0, 100%, 55%)" />
<g stroke="hsl(0, 100%, 40%)"><line x1="99.86953442021925" x2="120.28941391000521" y1="39" y2="39" />
<line x1="99.86953442021925" x2="99.86953442021925" y1="33" y2="45" />
<line x1="120.28941391000521" x2="120.28941391000521" y1="33" y2="45" />
</g>
</g>
<g fill="hsl(60, 100%, 40%)">
<text y="77">countdown.shallow.10000.polyemy</text>
<text y="77" x="871.7624321768004" text-anchor="end">1.29 ms</text>
</g>
<g>
<title>1.29 ms ± 101 μs</title>
<rect y="83" rx="5" height="22" width="871.7624321768004" fill="hsl(60, 100%, 80%)" stroke="hsl(60, 100%, 55%)" />
<g stroke="hsl(60, 100%, 40%)"><line x1="803.5248643536008" x2="940.0" y1="94" y2="94" />
<line x1="803.5248643536008" x2="803.5248643536008" y1="88" y2="100" />
<line x1="940.0" x2="940.0" y1="88" y2="100" />
</g>
</g>
<text fill="hsl(120, 100%, 40%)" y="132">countdown.shallow.10000.fused 901  ns</text>
<g>
<title>901  ns ±  70 ns</title>
<rect y="138" rx="5" height="22" width="0.6095925066748017" fill="hsl(120, 100%, 80%)" stroke="hsl(120, 100%, 55%)" />
<g stroke="hsl(120, 100%, 40%)"><line x1="0.5621183331079637" x2="0.6570666802416397" y1="149" y2="149" />
<line x1="0.5621183331079637" x2="0.5621183331079637" y1="143" y2="155" />
<line x1="0.6570666802416397" x2="0.6570666802416397" y1="143" y2="155" />
</g>
</g>
<text fill="hsl(180, 100%, 40%)" y="187">countdown.shallow.10000.effectful 136  μs</text>
<g>
<title>136  μs ±  11 μs</title>
<rect y="193" rx="5" height="22" width="91.75372855863569" fill="hsl(180, 100%, 80%)" stroke="hsl(180, 100%, 55%)" />
<g stroke="hsl(180, 100%, 40%)"><line x1="83.99492436785538" x2="99.512532749416" y1="204" y2="204" />
<line x1="83.99492436785538" x2="83.99492436785538" y1="198" y2="210" />
<line x1="99.512532749416" x2="99.512532749416" y1="198" y2="210" />
</g>
</g>
<text fill="hsl(240, 100%, 40%)" y="242">countdown.shallow.10000.mtl 890  ns</text>
<g>
<title>890  ns ±  28 ns</title>
<rect y="248" rx="5" height="22" width="0.6023097137346085" fill="hsl(240, 100%, 80%)" stroke="hsl(240, 100%, 55%)" />
<g stroke="hsl(240, 100%, 40%)"><line x1="0.5830978115257176" x2="0.6215216159434994" y1="259" y2="259" />
<line x1="0.5830978115257176" x2="0.5830978115257176" y1="253" y2="265" />
<line x1="0.6215216159434994" x2="0.6215216159434994" y1="253" y2="265" />
</g>
</g>
<text fill="hsl(300, 100%, 40%)" y="297">countdown.shallow.10000.monad-effect 4.71 μs</text>
<g>
<title>4.71 μs ± 347 ns</title>
<rect y="303" rx="5" height="22" width="3.185531663350952" fill="hsl(300, 100%, 80%)" stroke="hsl(300, 100%, 55%)" />
<g stroke="hsl(300, 100%, 40%)"><line x1="2.9503750027738063" x2="3.420688323928098" y1="314" y2="314" />
<line x1="2.9503750027738063" x2="2.9503750027738063" y1="308" y2="320" />
<line x1="3.420688323928098" x2="3.420688323928098" y1="308" y2="320" />
</g>
</g>
</g>
</svg>
