<svg xmlns="http://www.w3.org/2000/svg" height="337" width="960.0" font-size="16" font-family="sans-serif" stroke-width="2">
<g transform="translate(10.0 0)">
<g fill="hsl(0, 100%, 40%)">
<text y="22">countdown.deep.10000.heftia.5+5</text>
<text y="22" x="430.5176980350955" text-anchor="end">1.15 ms</text>
</g>
<g>
<title>1.15 ms ± 110 μs</title>
<rect y="28" rx="5" height="22" width="430.5176980350955" fill="hsl(0, 100%, 80%)" stroke="hsl(0, 100%, 55%)" />
<g stroke="hsl(0, 100%, 40%)"><line x1="389.3413219611365" x2="471.69407410905455" y1="39" y2="39" />
<line x1="389.3413219611365" x2="389.3413219611365" y1="33" y2="45" />
<line x1="471.69407410905455" x2="471.69407410905455" y1="33" y2="45" />
</g>
</g>
<g fill="hsl(60, 100%, 40%)">
<text y="77">countdown.deep.10000.polysemy.5+5</text>
<text y="77" x="859.0389281640406" text-anchor="end">2.30 ms</text>
</g>
<g>
<title>2.30 ms ± 170 μs</title>
<rect y="83" rx="5" height="22" width="859.0389281640406" fill="hsl(60, 100%, 80%)" stroke="hsl(60, 100%, 55%)" />
<g stroke="hsl(60, 100%, 40%)"><line x1="795.2446226736461" x2="922.8332336544352" y1="94" y2="94" />
<line x1="795.2446226736461" x2="795.2446226736461" y1="88" y2="100" />
<line x1="922.8332336544352" x2="922.8332336544352" y1="88" y2="100" />
</g>
</g>
<g fill="hsl(120, 100%, 40%)">
<text y="132">countdown.deep.10000.fused.5+5</text>
<text y="132" x="872.9061796175753" text-anchor="end">2.33 ms</text>
</g>
<g>
<title>2.33 ms ± 179 μs</title>
<rect y="138" rx="5" height="22" width="872.9061796175753" fill="hsl(120, 100%, 80%)" stroke="hsl(120, 100%, 55%)" />
<g stroke="hsl(120, 100%, 40%)"><line x1="805.8123592351506" x2="940.0" y1="149" y2="149" />
<line x1="805.8123592351506" x2="805.8123592351506" y1="143" y2="155" />
<line x1="940.0" x2="940.0" y1="143" y2="155" />
</g>
</g>
<text fill="hsl(180, 100%, 40%)" y="187">countdown.deep.10000.effectful.5+5 143  μs</text>
<g>
<title>143  μs ±  13 μs</title>
<rect y="193" rx="5" height="22" width="53.5454697805265" fill="hsl(180, 100%, 80%)" stroke="hsl(180, 100%, 55%)" />
<g stroke="hsl(180, 100%, 40%)"><line x1="48.68344375006772" x2="58.40749581098529" y1="204" y2="204" />
<line x1="48.68344375006772" x2="48.68344375006772" y1="198" y2="210" />
<line x1="58.40749581098529" x2="58.40749581098529" y1="198" y2="210" />
</g>
</g>
<text fill="hsl(240, 100%, 40%)" y="242">countdown.deep.10000.mtl.5+5 882  ns</text>
<g>
<title>882  ns ±  86 ns</title>
<rect y="248" rx="5" height="22" width="0.32996331591222783" fill="hsl(240, 100%, 80%)" stroke="hsl(240, 100%, 55%)" />
<g stroke="hsl(240, 100%, 40%)"><line x1="0.29784556659610073" x2="0.3620810652283549" y1="259" y2="259" />
<line x1="0.29784556659610073" x2="0.29784556659610073" y1="253" y2="265" />
<line x1="0.3620810652283549" x2="0.3620810652283549" y1="253" y2="265" />
</g>
</g>
<text fill="hsl(300, 100%, 40%)" y="297">countdown.deep.10000.monad-effect.5+5 33.8 μs</text>
<g>
<title>33.8 μs ± 2.8 μs</title>
<rect y="303" rx="5" height="22" width="12.636728767840578" fill="hsl(300, 100%, 80%)" stroke="hsl(300, 100%, 55%)" />
<g stroke="hsl(300, 100%, 40%)"><line x1="11.581654564893423" x2="13.691802970787734" y1="314" y2="314" />
<line x1="11.581654564893423" x2="11.581654564893423" y1="308" y2="320" />
<line x1="13.691802970787734" x2="13.691802970787734" y1="308" y2="320" />
</g>
</g>
</g>
</svg>
