<svg xmlns="http://www.w3.org/2000/svg" height="337" width="960.0" font-size="16" font-family="sans-serif" stroke-width="2">
<g transform="translate(10.0 0)">
<g fill="hsl(0, 100%, 40%)">
<text y="22">countdown.deep.10000.heftia.5+5</text>
<text y="22" x="438.3535399554129" text-anchor="end">1.16 ms</text>
</g>
<g>
<title>1.16 ms ± 109 μs</title>
<rect y="28" rx="5" height="22" width="438.3535399554129" fill="hsl(0, 100%, 80%)" stroke="hsl(0, 100%, 55%)" />
<g stroke="hsl(0, 100%, 40%)"><line x1="397.2052136105068" x2="479.50186630031897" y1="39" y2="39" />
<line x1="397.2052136105068" x2="397.2052136105068" y1="33" y2="45" />
<line x1="479.50186630031897" x2="479.50186630031897" y1="33" y2="45" />
</g>
</g>
<g fill="hsl(60, 100%, 40%)">
<text y="77">countdown.deep.10000.polysemy.5+5</text>
<text y="77" x="870.4592495949252" text-anchor="end">2.30 ms</text>
</g>
<g>
<title>2.30 ms ± 184 μs</title>
<rect y="83" rx="5" height="22" width="870.4592495949252" fill="hsl(60, 100%, 80%)" stroke="hsl(60, 100%, 55%)" />
<g stroke="hsl(60, 100%, 40%)"><line x1="800.9184991898503" x2="940.0" y1="94" y2="94" />
<line x1="800.9184991898503" x2="800.9184991898503" y1="88" y2="100" />
<line x1="940.0" x2="940.0" y1="88" y2="100" />
</g>
</g>
<g fill="hsl(120, 100%, 40%)">
<text y="132">countdown.deep.10000.fused.5+5</text>
<text y="132" x="864.7976396279397" text-anchor="end">2.29 ms</text>
</g>
<g>
<title>2.29 ms ± 184 μs</title>
<rect y="138" rx="5" height="22" width="864.7976396279397" fill="hsl(120, 100%, 80%)" stroke="hsl(120, 100%, 55%)" />
<g stroke="hsl(120, 100%, 40%)"><line x1="795.3897195926152" x2="934.2055596632642" y1="149" y2="149" />
<line x1="795.3897195926152" x2="795.3897195926152" y1="143" y2="155" />
<line x1="934.2055596632642" x2="934.2055596632642" y1="143" y2="155" />
</g>
</g>
<text fill="hsl(180, 100%, 40%)" y="187">countdown.deep.10000.effectful.5+5 153  μs</text>
<g>
<title>153  μs ±  13 μs</title>
<rect y="193" rx="5" height="22" width="57.82242326691225" fill="hsl(180, 100%, 80%)" stroke="hsl(180, 100%, 55%)" />
<g stroke="hsl(180, 100%, 40%)"><line x1="52.8229968741432" x2="62.821849659681305" y1="204" y2="204" />
<line x1="52.8229968741432" x2="52.8229968741432" y1="198" y2="210" />
<line x1="62.821849659681305" x2="62.821849659681305" y1="198" y2="210" />
</g>
</g>
<text fill="hsl(240, 100%, 40%)" y="242">countdown.deep.10000.mtl.5+5 934  ns</text>
<g>
<title>934  ns ±  76 ns</title>
<rect y="248" rx="5" height="22" width="0.35319093249751293" fill="hsl(240, 100%, 80%)" stroke="hsl(240, 100%, 55%)" />
<g stroke="hsl(240, 100%, 40%)"><line x1="0.32448217228316045" x2="0.3818996927118654" y1="259" y2="259" />
<line x1="0.32448217228316045" x2="0.32448217228316045" y1="253" y2="265" />
<line x1="0.3818996927118654" x2="0.3818996927118654" y1="253" y2="265" />
</g>
</g>
<text fill="hsl(300, 100%, 40%)" y="297">countdown.deep.10000.monad-effect.5+5 35.6 μs</text>
<g>
<title>35.6 μs ± 2.6 μs</title>
<rect y="303" rx="5" height="22" width="13.448506227982502" fill="hsl(300, 100%, 80%)" stroke="hsl(300, 100%, 55%)" />
<g stroke="hsl(300, 100%, 40%)"><line x1="12.483583734712756" x2="14.413428721252249" y1="314" y2="314" />
<line x1="12.483583734712756" x2="12.483583734712756" y1="308" y2="320" />
<line x1="14.413428721252249" x2="14.413428721252249" y1="308" y2="320" />
</g>
</g>
</g>
</svg>
