<svg xmlns="http://www.w3.org/2000/svg" height="337" width="960.0" font-size="16" font-family="sans-serif" stroke-width="2">
<g transform="translate(10.0 0)">
<text fill="hsl(0, 100%, 40%)" y="22">countdown.shallow.10000.heftia 162  μs</text>
<g>
<title>162  μs ±  14 μs</title>
<rect y="28" rx="5" height="22" width="109.7576033916474" fill="hsl(0, 100%, 80%)" stroke="hsl(0, 100%, 55%)" />
<g stroke="hsl(0, 100%, 40%)"><line x1="100.11522081760158" x2="119.3999859656932" y1="39" y2="39" />
<line x1="100.11522081760158" x2="100.11522081760158" y1="33" y2="45" />
<line x1="119.3999859656932" x2="119.3999859656932" y1="33" y2="45" />
</g>
</g>
<g fill="hsl(60, 100%, 40%)">
<text y="77">countdown.shallow.10000.polyemy</text>
<text y="77" x="876.3368343209098" text-anchor="end">1.30 ms</text>
</g>
<g>
<title>1.30 ms ±  94 μs</title>
<rect y="83" rx="5" height="22" width="876.3368343209098" fill="hsl(60, 100%, 80%)" stroke="hsl(60, 100%, 55%)" />
<g stroke="hsl(60, 100%, 40%)"><line x1="812.6736686418196" x2="940.0" y1="94" y2="94" />
<line x1="812.6736686418196" x2="812.6736686418196" y1="88" y2="100" />
<line x1="940.0" x2="940.0" y1="88" y2="100" />
</g>
</g>
<text fill="hsl(120, 100%, 40%)" y="132">countdown.shallow.10000.fused 884  ns</text>
<g>
<title>884  ns ±  66 ns</title>
<rect y="138" rx="5" height="22" width="0.5975022679922245" fill="hsl(120, 100%, 80%)" stroke="hsl(120, 100%, 55%)" />
<g stroke="hsl(120, 100%, 40%)"><line x1="0.5530085902302984" x2="0.6419959457541506" y1="149" y2="149" />
<line x1="0.5530085902302984" x2="0.5530085902302984" y1="143" y2="155" />
<line x1="0.6419959457541506" x2="0.6419959457541506" y1="143" y2="155" />
</g>
</g>
<text fill="hsl(180, 100%, 40%)" y="187">countdown.shallow.10000.effectful 133  μs</text>
<g>
<title>133  μs ±  12 μs</title>
<rect y="193" rx="5" height="22" width="89.96860359693481" fill="hsl(180, 100%, 80%)" stroke="hsl(180, 100%, 55%)" />
<g stroke="hsl(180, 100%, 40%)"><line x1="81.95466854192443" x2="97.98253865194519" y1="204" y2="204" />
<line x1="81.95466854192443" x2="81.95466854192443" y1="198" y2="210" />
<line x1="97.98253865194519" x2="97.98253865194519" y1="198" y2="210" />
</g>
</g>
<text fill="hsl(240, 100%, 40%)" y="242">countdown.shallow.10000.mtl 888  ns</text>
<g>
<title>888  ns ±  73 ns</title>
<rect y="248" rx="5" height="22" width="0.5999063269878372" fill="hsl(240, 100%, 80%)" stroke="hsl(240, 100%, 55%)" />
<g stroke="hsl(240, 100%, 40%)"><line x1="0.550539648000618" x2="0.6492730059750563" y1="259" y2="259" />
<line x1="0.550539648000618" x2="0.550539648000618" y1="253" y2="265" />
<line x1="0.6492730059750563" x2="0.6492730059750563" y1="253" y2="265" />
</g>
</g>
<text fill="hsl(300, 100%, 40%)" y="297">countdown.shallow.10000.monad-effect 4.60 μs</text>
<g>
<title>4.60 μs ± 357 ns</title>
<rect y="303" rx="5" height="22" width="3.109714856125509" fill="hsl(300, 100%, 80%)" stroke="hsl(300, 100%, 55%)" />
<g stroke="hsl(300, 100%, 40%)"><line x1="2.86813835488294" x2="3.351291357368078" y1="314" y2="314" />
<line x1="2.86813835488294" x2="2.86813835488294" y1="308" y2="320" />
<line x1="3.351291357368078" x2="3.351291357368078" y1="308" y2="320" />
</g>
</g>
</g>
</svg>
