<svg xmlns="http://www.w3.org/2000/svg" height="997" width="960.0" font-size="16" font-family="sans-serif" stroke-width="2">
<g transform="translate(10.0 0)">
<text fill="hsl(0, 100%, 40%)" y="22">filesize.deep.1000.reference 885  μs</text>
<g>
<title>885  μs ±  42 μs</title>
<rect y="28" rx="5" height="22" width="66.34593371075928" fill="hsl(0, 100%, 80%)" stroke="hsl(0, 100%, 55%)" />
<g stroke="hsl(0, 100%, 40%)"><line x1="63.18440040121096" x2="69.5074670203076" y1="39" y2="39" />
<line x1="63.18440040121096" x2="63.18440040121096" y1="33" y2="45" />
<line x1="69.5074670203076" x2="69.5074670203076" y1="33" y2="45" />
</g>
</g>
<text fill="hsl(20, 100%, 40%)" y="77">filesize.deep.1000.heftia 1.44 ms</text>
<g>
<title>1.44 ms ± 107 μs</title>
<rect y="83" rx="5" height="22" width="107.86943242134856" fill="hsl(20, 100%, 80%)" stroke="hsl(20, 100%, 55%)" />
<g stroke="hsl(20, 100%, 40%)"><line x1="99.88619441941944" x2="115.85267042327769" y1="94" y2="94" />
<line x1="99.88619441941944" x2="99.88619441941944" y1="88" y2="100" />
<line x1="115.85267042327769" x2="115.85267042327769" y1="88" y2="100" />
</g>
</g>
<text fill="hsl(40, 100%, 40%)" y="132">filesize.deep.1000.effectful 899  μs</text>
<g>
<title>899  μs ±  86 μs</title>
<rect y="138" rx="5" height="22" width="67.39798000560201" fill="hsl(40, 100%, 80%)" stroke="hsl(40, 100%, 55%)" />
<g stroke="hsl(40, 100%, 40%)"><line x1="60.96330243227764" x2="73.83265757892637" y1="149" y2="149" />
<line x1="60.96330243227764" x2="60.96330243227764" y1="143" y2="155" />
<line x1="73.83265757892637" x2="73.83265757892637" y1="143" y2="155" />
</g>
</g>
<text fill="hsl(60, 100%, 40%)" y="187">filesize.deep.1000.mtl 2.52 ms</text>
<g>
<title>2.52 ms ± 168 μs</title>
<rect y="193" rx="5" height="22" width="188.6878041431461" fill="hsl(60, 100%, 80%)" stroke="hsl(60, 100%, 55%)" />
<g stroke="hsl(60, 100%, 40%)"><line x1="176.09102849601834" x2="201.28457979027388" y1="204" y2="204" />
<line x1="176.09102849601834" x2="176.09102849601834" y1="198" y2="210" />
<line x1="201.28457979027388" x2="201.28457979027388" y1="198" y2="210" />
</g>
</g>
<text fill="hsl(80, 100%, 40%)" y="242">filesize.deep.1000.fused-effects 3.70 ms</text>
<g>
<title>3.70 ms ± 351 μs</title>
<rect y="248" rx="5" height="22" width="276.9619723509159" fill="hsl(80, 100%, 80%)" stroke="hsl(80, 100%, 55%)" />
<g stroke="hsl(80, 100%, 40%)"><line x1="250.65544319056096" x2="303.26850151127087" y1="259" y2="259" />
<line x1="250.65544319056096" x2="250.65544319056096" y1="253" y2="265" />
<line x1="303.26850151127087" x2="303.26850151127087" y1="253" y2="265" />
</g>
</g>
<text fill="hsl(100, 100%, 40%)" y="297">filesize.deep.1000.polysemy 2.73 ms</text>
<g>
<title>2.73 ms ± 179 μs</title>
<rect y="303" rx="5" height="22" width="204.4906799353888" fill="hsl(100, 100%, 80%)" stroke="hsl(100, 100%, 55%)" />
<g stroke="hsl(100, 100%, 40%)"><line x1="191.08412652223473" x2="217.8972333485429" y1="314" y2="314" />
<line x1="191.08412652223473" x2="191.08412652223473" y1="308" y2="320" />
<line x1="217.8972333485429" x2="217.8972333485429" y1="308" y2="320" />
</g>
</g>
<text fill="hsl(120, 100%, 40%)" y="352">filesize.deep.2000.reference 1.89 ms</text>
<g>
<title>1.89 ms ± 168 μs</title>
<rect y="358" rx="5" height="22" width="141.64695413994707" fill="hsl(120, 100%, 80%)" stroke="hsl(120, 100%, 55%)" />
<g stroke="hsl(120, 100%, 40%)"><line x1="129.06014646024272" x2="154.23376181965142" y1="369" y2="369" />
<line x1="129.06014646024272" x2="129.06014646024272" y1="363" y2="375" />
<line x1="154.23376181965142" x2="154.23376181965142" y1="363" y2="375" />
</g>
</g>
<text fill="hsl(140, 100%, 40%)" y="407">filesize.deep.2000.heftia 3.00 ms</text>
<g>
<title>3.00 ms ± 178 μs</title>
<rect y="413" rx="5" height="22" width="224.5538198828428" fill="hsl(140, 100%, 80%)" stroke="hsl(140, 100%, 55%)" />
<g stroke="hsl(140, 100%, 40%)"><line x1="211.18580178178337" x2="237.9218379839022" y1="424" y2="424" />
<line x1="211.18580178178337" x2="211.18580178178337" y1="418" y2="430" />
<line x1="237.9218379839022" x2="237.9218379839022" y1="418" y2="430" />
</g>
</g>
<text fill="hsl(160, 100%, 40%)" y="462">filesize.deep.2000.effectful 1.91 ms</text>
<g>
<title>1.91 ms ± 188 μs</title>
<rect y="468" rx="5" height="22" width="142.84145190096464" fill="hsl(160, 100%, 80%)" stroke="hsl(160, 100%, 55%)" />
<g stroke="hsl(160, 100%, 40%)"><line x1="128.72461616213678" x2="156.9582876397925" y1="479" y2="479" />
<line x1="128.72461616213678" x2="128.72461616213678" y1="473" y2="485" />
<line x1="156.9582876397925" x2="156.9582876397925" y1="473" y2="485" />
</g>
</g>
<g fill="hsl(180, 100%, 40%)">
<text y="517">filesize.deep.2000.mtl</text>
<text y="517" x="395.38510739550264" text-anchor="end">5.28 ms</text>
</g>
<g>
<title>5.28 ms ± 450 μs</title>
<rect y="523" rx="5" height="22" width="395.38510739550264" fill="hsl(180, 100%, 80%)" stroke="hsl(180, 100%, 55%)" />
<g stroke="hsl(180, 100%, 40%)"><line x1="361.6362318718779" x2="429.1339829191274" y1="534" y2="534" />
<line x1="361.6362318718779" x2="361.6362318718779" y1="528" y2="540" />
<line x1="429.1339829191274" x2="429.1339829191274" y1="528" y2="540" />
</g>
</g>
<g fill="hsl(200, 100%, 40%)">
<text y="572">filesize.deep.2000.fused-effects</text>
<text y="572" x="565.3887468303755" text-anchor="end">7.54 ms</text>
</g>
<g>
<title>7.54 ms ± 365 μs</title>
<rect y="578" rx="5" height="22" width="565.3887468303755" fill="hsl(200, 100%, 80%)" stroke="hsl(200, 100%, 55%)" />
<g stroke="hsl(200, 100%, 40%)"><line x1="538.01064535697" x2="592.7668483037809" y1="589" y2="589" />
<line x1="538.01064535697" x2="538.01064535697" y1="583" y2="595" />
<line x1="592.7668483037809" x2="592.7668483037809" y1="583" y2="595" />
</g>
</g>
<g fill="hsl(220, 100%, 40%)">
<text y="627">filesize.deep.2000.polysemy</text>
<text y="627" x="423.2328493654946" text-anchor="end">5.65 ms</text>
</g>
<g>
<title>5.65 ms ± 336 μs</title>
<rect y="633" rx="5" height="22" width="423.2328493654946" fill="hsl(220, 100%, 80%)" stroke="hsl(220, 100%, 55%)" />
<g stroke="hsl(220, 100%, 40%)"><line x1="398.04332033609967" x2="448.4223783948895" y1="644" y2="644" />
<line x1="398.04332033609967" x2="398.04332033609967" y1="638" y2="650" />
<line x1="448.4223783948895" x2="448.4223783948895" y1="638" y2="650" />
</g>
</g>
<text fill="hsl(240, 100%, 40%)" y="682">filesize.deep.3000.reference 2.86 ms</text>
<g>
<title>2.86 ms ± 183 μs</title>
<rect y="688" rx="5" height="22" width="214.44913397987477" fill="hsl(240, 100%, 80%)" stroke="hsl(240, 100%, 55%)" />
<g stroke="hsl(240, 100%, 40%)"><line x1="200.72949644631427" x2="228.16877151343527" y1="699" y2="699" />
<line x1="200.72949644631427" x2="200.72949644631427" y1="693" y2="705" />
<line x1="228.16877151343527" x2="228.16877151343527" y1="693" y2="705" />
</g>
</g>
<g fill="hsl(260, 100%, 40%)">
<text y="737">filesize.deep.3000.heftia</text>
<text y="737" x="344.390008412889" text-anchor="end">4.59 ms</text>
</g>
<g>
<title>4.59 ms ± 343 μs</title>
<rect y="743" rx="5" height="22" width="344.390008412889" fill="hsl(260, 100%, 80%)" stroke="hsl(260, 100%, 55%)" />
<g stroke="hsl(260, 100%, 40%)"><line x1="318.6699767968584" x2="370.1100400289196" y1="754" y2="754" />
<line x1="318.6699767968584" x2="318.6699767968584" y1="748" y2="760" />
<line x1="370.1100400289196" x2="370.1100400289196" y1="748" y2="760" />
</g>
</g>
<text fill="hsl(280, 100%, 40%)" y="792">filesize.deep.3000.effectful 2.94 ms</text>
<g>
<title>2.94 ms ± 220 μs</title>
<rect y="798" rx="5" height="22" width="220.49692407432227" fill="hsl(280, 100%, 80%)" stroke="hsl(280, 100%, 55%)" />
<g stroke="hsl(280, 100%, 40%)"><line x1="203.98401517432958" x2="237.00983297431495" y1="809" y2="809" />
<line x1="203.98401517432958" x2="203.98401517432958" y1="803" y2="815" />
<line x1="237.00983297431495" x2="237.00983297431495" y1="803" y2="815" />
</g>
</g>
<g fill="hsl(300, 100%, 40%)">
<text y="847">filesize.deep.3000.mtl</text>
<text y="847" x="595.7187386713689" text-anchor="end">7.95 ms</text>
</g>
<g>
<title>7.95 ms ± 700 μs</title>
<rect y="853" rx="5" height="22" width="595.7187386713689" fill="hsl(300, 100%, 80%)" stroke="hsl(300, 100%, 55%)" />
<g stroke="hsl(300, 100%, 40%)"><line x1="543.2540728723257" x2="648.1834044704121" y1="864" y2="864" />
<line x1="543.2540728723257" x2="543.2540728723257" y1="858" y2="870" />
<line x1="648.1834044704121" x2="648.1834044704121" y1="858" y2="870" />
</g>
</g>
<g fill="hsl(320, 100%, 40%)">
<text y="902">filesize.deep.3000.fused-effects</text>
<text y="902" x="862.7668819767065" text-anchor="end">11.5 ms</text>
</g>
<g>
<title>11.5 ms ± 1.0 ms</title>
<rect y="908" rx="5" height="22" width="862.7668819767065" fill="hsl(320, 100%, 80%)" stroke="hsl(320, 100%, 55%)" />
<g stroke="hsl(320, 100%, 40%)"><line x1="785.533763953413" x2="940.0" y1="919" y2="919" />
<line x1="785.533763953413" x2="785.533763953413" y1="913" y2="925" />
<line x1="940.0" x2="940.0" y1="913" y2="925" />
</g>
</g>
<g fill="hsl(340, 100%, 40%)">
<text y="957">filesize.deep.3000.polysemy</text>
<text y="957" x="638.5761603915047" text-anchor="end">8.52 ms</text>
</g>
<g>
<title>8.52 ms ± 430 μs</title>
<rect y="963" rx="5" height="22" width="638.5761603915047" fill="hsl(340, 100%, 80%)" stroke="hsl(340, 100%, 55%)" />
<g stroke="hsl(340, 100%, 40%)"><line x1="606.3275430402663" x2="670.8247777427431" y1="974" y2="974" />
<line x1="606.3275430402663" x2="606.3275430402663" y1="968" y2="980" />
<line x1="670.8247777427431" x2="670.8247777427431" y1="968" y2="980" />
</g>
</g>
</g>
</svg>
