<svg xmlns="http://www.w3.org/2000/svg" height="997" width="960.0" font-size="16" font-family="sans-serif" stroke-width="2">
<g transform="translate(10.0 0)">
<text fill="hsl(0, 100%, 40%)" y="22">filesize.shallow.1000.reference 886  μs</text>
<g>
<title>886  μs ±  47 μs</title>
<rect y="28" rx="5" height="22" width="100.14469824806007" fill="hsl(0, 100%, 80%)" stroke="hsl(0, 100%, 55%)" />
<g stroke="hsl(0, 100%, 40%)"><line x1="94.82330840990043" x2="105.4660880862197" y1="39" y2="39" />
<line x1="94.82330840990043" x2="94.82330840990043" y1="33" y2="45" />
<line x1="105.4660880862197" x2="105.4660880862197" y1="33" y2="45" />
</g>
</g>
<text fill="hsl(20, 100%, 40%)" y="77">filesize.shallow.1000.heftia 1.15 ms</text>
<g>
<title>1.15 ms ±  88 μs</title>
<rect y="83" rx="5" height="22" width="129.88473898101566" fill="hsl(20, 100%, 80%)" stroke="hsl(20, 100%, 55%)" />
<g stroke="hsl(20, 100%, 40%)"><line x1="119.94190576494233" x2="139.82757219708898" y1="94" y2="94" />
<line x1="119.94190576494233" x2="119.94190576494233" y1="88" y2="100" />
<line x1="139.82757219708898" x2="139.82757219708898" y1="88" y2="100" />
</g>
</g>
<text fill="hsl(40, 100%, 40%)" y="132">filesize.shallow.1000.effectful 879  μs</text>
<g>
<title>879  μs ±  84 μs</title>
<rect y="138" rx="5" height="22" width="99.40798080775872" fill="hsl(40, 100%, 80%)" stroke="hsl(40, 100%, 55%)" />
<g stroke="hsl(40, 100%, 40%)"><line x1="89.88547950940934" x2="108.9304821061081" y1="149" y2="149" />
<line x1="89.88547950940934" x2="89.88547950940934" y1="143" y2="155" />
<line x1="108.9304821061081" x2="108.9304821061081" y1="143" y2="155" />
</g>
</g>
<text fill="hsl(60, 100%, 40%)" y="187">filesize.shallow.1000.mtl 1.16 ms</text>
<g>
<title>1.16 ms ±  92 μs</title>
<rect y="193" rx="5" height="22" width="131.34907463088658" fill="hsl(60, 100%, 80%)" stroke="hsl(60, 100%, 55%)" />
<g stroke="hsl(60, 100%, 40%)"><line x1="121.0026368254405" x2="141.69551243633265" y1="204" y2="204" />
<line x1="121.0026368254405" x2="121.0026368254405" y1="198" y2="210" />
<line x1="141.69551243633265" x2="141.69551243633265" y1="198" y2="210" />
</g>
</g>
<text fill="hsl(80, 100%, 40%)" y="242">filesize.shallow.1000.fused-effects 1.89 ms</text>
<g>
<title>1.89 ms ± 181 μs</title>
<rect y="248" rx="5" height="22" width="213.37603653848467" fill="hsl(80, 100%, 80%)" stroke="hsl(80, 100%, 55%)" />
<g stroke="hsl(80, 100%, 40%)"><line x1="192.95882577048764" x2="233.7932473064817" y1="259" y2="259" />
<line x1="192.95882577048764" x2="192.95882577048764" y1="253" y2="265" />
<line x1="233.7932473064817" x2="233.7932473064817" y1="253" y2="265" />
</g>
</g>
<text fill="hsl(100, 100%, 40%)" y="297">filesize.shallow.1000.polysemy 2.49 ms</text>
<g>
<title>2.49 ms ± 168 μs</title>
<rect y="303" rx="5" height="22" width="281.3190911258684" fill="hsl(100, 100%, 80%)" stroke="hsl(100, 100%, 55%)" />
<g stroke="hsl(100, 100%, 40%)"><line x1="262.29995962693755" x2="300.33822262479924" y1="314" y2="314" />
<line x1="262.29995962693755" x2="262.29995962693755" y1="308" y2="320" />
<line x1="300.33822262479924" x2="300.33822262479924" y1="308" y2="320" />
</g>
</g>
<text fill="hsl(120, 100%, 40%)" y="352">filesize.shallow.2000.reference 1.90 ms</text>
<g>
<title>1.90 ms ± 173 μs</title>
<rect y="358" rx="5" height="22" width="214.37165837192205" fill="hsl(120, 100%, 80%)" stroke="hsl(120, 100%, 55%)" />
<g stroke="hsl(120, 100%, 40%)"><line x1="194.79264666402474" x2="233.95067007981936" y1="369" y2="369" />
<line x1="194.79264666402474" x2="194.79264666402474" y1="363" y2="375" />
<line x1="233.95067007981936" x2="233.95067007981936" y1="363" y2="375" />
</g>
</g>
<text fill="hsl(140, 100%, 40%)" y="407">filesize.shallow.2000.heftia 2.45 ms</text>
<g>
<title>2.45 ms ± 207 μs</title>
<rect y="413" rx="5" height="22" width="276.3939165249003" fill="hsl(140, 100%, 80%)" stroke="hsl(140, 100%, 55%)" />
<g stroke="hsl(140, 100%, 40%)"><line x1="253.0189448176712" x2="299.76888823212937" y1="424" y2="424" />
<line x1="253.0189448176712" x2="253.0189448176712" y1="418" y2="430" />
<line x1="299.76888823212937" x2="299.76888823212937" y1="418" y2="430" />
</g>
</g>
<text fill="hsl(160, 100%, 40%)" y="462">filesize.shallow.2000.effectful 1.87 ms</text>
<g>
<title>1.87 ms ± 179 μs</title>
<rect y="468" rx="5" height="22" width="211.4906610997088" fill="hsl(160, 100%, 80%)" stroke="hsl(160, 100%, 55%)" />
<g stroke="hsl(160, 100%, 40%)"><line x1="191.2881281497955" x2="231.6931940496221" y1="479" y2="479" />
<line x1="191.2881281497955" x2="191.2881281497955" y1="473" y2="485" />
<line x1="231.6931940496221" x2="231.6931940496221" y1="473" y2="485" />
</g>
</g>
<g fill="hsl(180, 100%, 40%)">
<text y="517">filesize.shallow.2000.mtl</text>
<text y="517" x="284.99331073411" text-anchor="end">2.52 ms</text>
</g>
<g>
<title>2.52 ms ± 174 μs</title>
<rect y="523" rx="5" height="22" width="284.99331073411" fill="hsl(180, 100%, 80%)" stroke="hsl(180, 100%, 55%)" />
<g stroke="hsl(180, 100%, 40%)"><line x1="265.3544241120175" x2="304.63219735620254" y1="534" y2="534" />
<line x1="265.3544241120175" x2="265.3544241120175" y1="528" y2="540" />
<line x1="304.63219735620254" x2="304.63219735620254" y1="528" y2="540" />
</g>
</g>
<g fill="hsl(200, 100%, 40%)">
<text y="572">filesize.shallow.2000.fused-effects</text>
<text y="572" x="447.28861338190814" text-anchor="end">3.96 ms</text>
</g>
<g>
<title>3.96 ms ± 227 μs</title>
<rect y="578" rx="5" height="22" width="447.28861338190814" fill="hsl(200, 100%, 80%)" stroke="hsl(200, 100%, 55%)" />
<g stroke="hsl(200, 100%, 40%)"><line x1="421.66459182107565" x2="472.9126349427406" y1="589" y2="589" />
<line x1="421.66459182107565" x2="421.66459182107565" y1="583" y2="595" />
<line x1="472.9126349427406" x2="472.9126349427406" y1="583" y2="595" />
</g>
</g>
<g fill="hsl(220, 100%, 40%)">
<text y="627">filesize.shallow.2000.polysemy</text>
<text y="627" x="582.5569306399657" text-anchor="end">5.15 ms</text>
</g>
<g>
<title>5.15 ms ± 362 μs</title>
<rect y="633" rx="5" height="22" width="582.5569306399657" fill="hsl(220, 100%, 80%)" stroke="hsl(220, 100%, 55%)" />
<g stroke="hsl(220, 100%, 40%)"><line x1="541.6450726088996" x2="623.4687886710318" y1="644" y2="644" />
<line x1="541.6450726088996" x2="541.6450726088996" y1="638" y2="650" />
<line x1="623.4687886710318" x2="623.4687886710318" y1="638" y2="650" />
</g>
</g>
<g fill="hsl(240, 100%, 40%)">
<text y="682">filesize.shallow.3000.reference</text>
<text y="682" x="326.4628522222007" text-anchor="end">2.89 ms</text>
</g>
<g>
<title>2.89 ms ± 185 μs</title>
<rect y="688" rx="5" height="22" width="326.4628522222007" fill="hsl(240, 100%, 80%)" stroke="hsl(240, 100%, 55%)" />
<g stroke="hsl(240, 100%, 40%)"><line x1="305.57950115985676" x2="347.34620328454463" y1="699" y2="699" />
<line x1="305.57950115985676" x2="305.57950115985676" y1="693" y2="705" />
<line x1="347.34620328454463" x2="347.34620328454463" y1="693" y2="705" />
</g>
</g>
<g fill="hsl(260, 100%, 40%)">
<text y="737">filesize.shallow.3000.heftia</text>
<text y="737" x="426.7026029195789" text-anchor="end">3.77 ms</text>
</g>
<g>
<title>3.77 ms ± 343 μs</title>
<rect y="743" rx="5" height="22" width="426.7026029195789" fill="hsl(260, 100%, 80%)" stroke="hsl(260, 100%, 55%)" />
<g stroke="hsl(260, 100%, 40%)"><line x1="387.9212451973732" x2="465.4839606417846" y1="754" y2="754" />
<line x1="387.9212451973732" x2="387.9212451973732" y1="748" y2="760" />
<line x1="465.4839606417846" x2="465.4839606417846" y1="748" y2="760" />
</g>
</g>
<g fill="hsl(280, 100%, 40%)">
<text y="792">filesize.shallow.3000.effectful</text>
<text y="792" x="327.8838369230442" text-anchor="end">2.90 ms</text>
</g>
<g>
<title>2.90 ms ± 196 μs</title>
<rect y="798" rx="5" height="22" width="327.8838369230442" fill="hsl(280, 100%, 80%)" stroke="hsl(280, 100%, 55%)" />
<g stroke="hsl(280, 100%, 40%)"><line x1="305.76203753419077" x2="350.00563631189766" y1="809" y2="809" />
<line x1="305.76203753419077" x2="305.76203753419077" y1="803" y2="815" />
<line x1="350.00563631189766" x2="350.00563631189766" y1="803" y2="815" />
</g>
</g>
<g fill="hsl(300, 100%, 40%)">
<text y="847">filesize.shallow.3000.mtl</text>
<text y="847" x="449.81291829989647" text-anchor="end">3.98 ms</text>
</g>
<g>
<title>3.98 ms ± 362 μs</title>
<rect y="853" rx="5" height="22" width="449.81291829989647" fill="hsl(300, 100%, 80%)" stroke="hsl(300, 100%, 55%)" />
<g stroke="hsl(300, 100%, 40%)"><line x1="408.89882316077035" x2="490.7270134390226" y1="864" y2="864" />
<line x1="408.89882316077035" x2="408.89882316077035" y1="858" y2="870" />
<line x1="490.7270134390226" x2="490.7270134390226" y1="858" y2="870" />
</g>
</g>
<g fill="hsl(320, 100%, 40%)">
<text y="902">filesize.shallow.3000.fused-effects</text>
<text y="902" x="678.5245905870645" text-anchor="end">6.00 ms</text>
</g>
<g>
<title>6.00 ms ± 407 μs</title>
<rect y="908" rx="5" height="22" width="678.5245905870645" fill="hsl(320, 100%, 80%)" stroke="hsl(320, 100%, 55%)" />
<g stroke="hsl(320, 100%, 40%)"><line x1="632.4700054700459" x2="724.5791757040831" y1="919" y2="919" />
<line x1="632.4700054700459" x2="632.4700054700459" y1="913" y2="925" />
<line x1="724.5791757040831" x2="724.5791757040831" y1="913" y2="925" />
</g>
</g>
<g fill="hsl(340, 100%, 40%)">
<text y="957">filesize.shallow.3000.polysemy</text>
<text y="957" x="898.4982137474539" text-anchor="end">7.95 ms</text>
</g>
<g>
<title>7.95 ms ± 367 μs</title>
<rect y="963" rx="5" height="22" width="898.4982137474539" fill="hsl(340, 100%, 80%)" stroke="hsl(340, 100%, 55%)" />
<g stroke="hsl(340, 100%, 40%)"><line x1="856.9964274949077" x2="940.0" y1="974" y2="974" />
<line x1="856.9964274949077" x2="856.9964274949077" y1="968" y2="980" />
<line x1="940.0" x2="940.0" y1="968" y2="980" />
</g>
</g>
</g>
</svg>
