<svg xmlns="http://www.w3.org/2000/svg" height="557" width="960.0" font-size="16" font-family="sans-serif" stroke-width="2">
<g transform="translate(10.0 0)">
<text fill="hsl(0, 100%, 40%)" y="22">local.deep.10000.heftia.5+5+0 1.17 ms</text>
<g>
<title>1.17 ms ± 113 μs</title>
<rect y="28" rx="5" height="22" width="178.85301708254994" fill="hsl(0, 100%, 80%)" stroke="hsl(0, 100%, 55%)" />
<g stroke="hsl(0, 100%, 40%)"><line x1="161.61599473852695" x2="196.09003942657293" y1="39" y2="39" />
<line x1="161.61599473852695" x2="161.61599473852695" y1="33" y2="45" />
<line x1="196.09003942657293" x2="196.09003942657293" y1="33" y2="45" />
</g>
</g>
<text fill="hsl(36, 100%, 40%)" y="77">local.deep.10000.heftia.5+4+1 1.70 ms</text>
<g>
<title>1.70 ms ±  85 μs</title>
<rect y="83" rx="5" height="22" width="260.2562881035138" fill="hsl(36, 100%, 80%)" stroke="hsl(36, 100%, 55%)" />
<g stroke="hsl(36, 100%, 40%)"><line x1="247.24318170587765" x2="273.2693945011499" y1="94" y2="94" />
<line x1="247.24318170587765" x2="247.24318170587765" y1="88" y2="100" />
<line x1="273.2693945011499" x2="273.2693945011499" y1="88" y2="100" />
</g>
</g>
<g fill="hsl(72, 100%, 40%)">
<text y="132">local.deep.10000.heftia.5+3+2</text>
<text y="132" x="350.2645898795944" text-anchor="end">2.29 ms</text>
</g>
<g>
<title>2.29 ms ± 144 μs</title>
<rect y="138" rx="5" height="22" width="350.2645898795944" fill="hsl(72, 100%, 80%)" stroke="hsl(72, 100%, 55%)" />
<g stroke="hsl(72, 100%, 40%)"><line x1="328.18996906105326" x2="372.3392106981355" y1="149" y2="149" />
<line x1="328.18996906105326" x2="328.18996906105326" y1="143" y2="155" />
<line x1="372.3392106981355" x2="372.3392106981355" y1="143" y2="155" />
</g>
</g>
<g fill="hsl(108, 100%, 40%)">
<text y="187">local.deep.10000.heftia.5+2+3</text>
<text y="187" x="426.02342656742536" text-anchor="end">2.78 ms</text>
</g>
<g>
<title>2.78 ms ± 194 μs</title>
<rect y="193" rx="5" height="22" width="426.02342656742536" fill="hsl(108, 100%, 80%)" stroke="hsl(108, 100%, 55%)" />
<g stroke="hsl(108, 100%, 40%)"><line x1="396.2709098464047" x2="455.775943288446" y1="204" y2="204" />
<line x1="396.2709098464047" x2="396.2709098464047" y1="198" y2="210" />
<line x1="455.775943288446" x2="455.775943288446" y1="198" y2="210" />
</g>
</g>
<g fill="hsl(144, 100%, 40%)">
<text y="242">local.deep.10000.heftia.5+1+4</text>
<text y="242" x="555.2478845558635" text-anchor="end">3.62 ms</text>
</g>
<g>
<title>3.62 ms ± 234 μs</title>
<rect y="248" rx="5" height="22" width="555.2478845558635" fill="hsl(144, 100%, 80%)" stroke="hsl(144, 100%, 55%)" />
<g stroke="hsl(144, 100%, 40%)"><line x1="519.3672694658402" x2="591.1284996458868" y1="259" y2="259" />
<line x1="519.3672694658402" x2="519.3672694658402" y1="253" y2="265" />
<line x1="591.1284996458868" x2="591.1284996458868" y1="253" y2="265" />
</g>
</g>
<g fill="hsl(180, 100%, 40%)">
<text y="297">local.deep.10000.heftia.5+0+5</text>
<text y="297" x="672.748581675511" text-anchor="end">4.39 ms</text>
</g>
<g>
<title>4.39 ms ±  93 μs</title>
<rect y="303" rx="5" height="22" width="672.748581675511" fill="hsl(180, 100%, 80%)" stroke="hsl(180, 100%, 55%)" />
<g stroke="hsl(180, 100%, 40%)"><line x1="658.440020573371" x2="687.0571427776509" y1="314" y2="314" />
<line x1="658.440020573371" x2="658.440020573371" y1="308" y2="320" />
<line x1="687.0571427776509" x2="687.0571427776509" y1="308" y2="320" />
</g>
</g>
<g fill="hsl(216, 100%, 40%)">
<text y="352">local.deep.10000.polysemy.5+5</text>
<text y="352" x="860.7442322218801" text-anchor="end">5.62 ms</text>
</g>
<g>
<title>5.62 ms ± 517 μs</title>
<rect y="358" rx="5" height="22" width="860.7442322218801" fill="hsl(216, 100%, 80%)" stroke="hsl(216, 100%, 55%)" />
<g stroke="hsl(216, 100%, 40%)"><line x1="781.4884644437602" x2="940.0" y1="369" y2="369" />
<line x1="781.4884644437602" x2="781.4884644437602" y1="363" y2="375" />
<line x1="940.0" x2="940.0" y1="363" y2="375" />
</g>
</g>
<g fill="hsl(252, 100%, 40%)">
<text y="407">local.deep.10000.fused.5+5</text>
<text y="407" x="595.7135477370822" text-anchor="end">3.89 ms</text>
</g>
<g>
<title>3.89 ms ± 206 μs</title>
<rect y="413" rx="5" height="22" width="595.7135477370822" fill="hsl(252, 100%, 80%)" stroke="hsl(252, 100%, 55%)" />
<g stroke="hsl(252, 100%, 40%)"><line x1="564.0825237687824" x2="627.344571705382" y1="424" y2="424" />
<line x1="564.0825237687824" x2="564.0825237687824" y1="418" y2="430" />
<line x1="627.344571705382" x2="627.344571705382" y1="418" y2="430" />
</g>
</g>
<text fill="hsl(288, 100%, 40%)" y="462">local.deep.10000.effectful.5+5 513  μs</text>
<g>
<title>513  μs ±  40 μs</title>
<rect y="468" rx="5" height="22" width="78.52022713465138" fill="hsl(288, 100%, 80%)" stroke="hsl(288, 100%, 55%)" />
<g stroke="hsl(288, 100%, 40%)"><line x1="72.43033451488593" x2="84.61011975441683" y1="479" y2="479" />
<line x1="72.43033451488593" x2="72.43033451488593" y1="473" y2="485" />
<line x1="84.61011975441683" x2="84.61011975441683" y1="473" y2="485" />
</g>
</g>
<text fill="hsl(324, 100%, 40%)" y="517">local.deep.10000.monad-effect.5+5 76.1 μs</text>
<g>
<title>76.1 μs ± 6.3 μs</title>
<rect y="523" rx="5" height="22" width="11.657879605510901" fill="hsl(324, 100%, 80%)" stroke="hsl(324, 100%, 55%)" />
<g stroke="hsl(324, 100%, 40%)"><line x1="10.698612636782613" x2="12.61714657423919" y1="534" y2="534" />
<line x1="10.698612636782613" x2="10.698612636782613" y1="528" y2="540" />
<line x1="12.61714657423919" x2="12.61714657423919" y1="528" y2="540" />
</g>
</g>
</g>
</svg>
