<svg xmlns="http://www.w3.org/2000/svg" height="282" width="960.0" font-size="16" font-family="sans-serif" stroke-width="2">
<g transform="translate(10.0 0)">
<g fill="hsl(0, 100%, 40%)">
<text y="22">local.shallow.10000.heftia</text>
<text y="22" x="458.9178352953773" text-anchor="end">1.13 ms</text>
</g>
<g>
<title>1.13 ms ±  46 μs</title>
<rect y="28" rx="5" height="22" width="458.9178352953773" fill="hsl(0, 100%, 80%)" stroke="hsl(0, 100%, 55%)" />
<g stroke="hsl(0, 100%, 40%)"><line x1="440.38231562692494" x2="477.45335496382967" y1="39" y2="39" />
<line x1="440.38231562692494" x2="440.38231562692494" y1="33" y2="45" />
<line x1="477.45335496382967" x2="477.45335496382967" y1="33" y2="45" />
</g>
</g>
<g fill="hsl(72, 100%, 40%)">
<text y="77">local.shallow.10000.polysemy</text>
<text y="77" x="871.341717587563" text-anchor="end">2.15 ms</text>
</g>
<g>
<title>2.15 ms ± 169 μs</title>
<rect y="83" rx="5" height="22" width="871.341717587563" fill="hsl(72, 100%, 80%)" stroke="hsl(72, 100%, 55%)" />
<g stroke="hsl(72, 100%, 40%)"><line x1="802.6834351751261" x2="940.0" y1="94" y2="94" />
<line x1="802.6834351751261" x2="802.6834351751261" y1="88" y2="100" />
<line x1="940.0" x2="940.0" y1="88" y2="100" />
</g>
</g>
<g fill="hsl(144, 100%, 40%)">
<text y="132">local.shallow.10000.fused</text>
<text y="132" x="352.4343234882288" text-anchor="end">870  μs</text>
</g>
<g>
<title>870  μs ±  51 μs</title>
<rect y="138" rx="5" height="22" width="352.4343234882288" fill="hsl(144, 100%, 80%)" stroke="hsl(144, 100%, 55%)" />
<g stroke="hsl(144, 100%, 40%)"><line x1="331.6944604614902" x2="373.1741865149674" y1="149" y2="149" />
<line x1="331.6944604614902" x2="331.6944604614902" y1="143" y2="155" />
<line x1="373.1741865149674" x2="373.1741865149674" y1="143" y2="155" />
</g>
</g>
<text fill="hsl(216, 100%, 40%)" y="187">local.shallow.10000.effectful 482  μs</text>
<g>
<title>482  μs ±  38 μs</title>
<rect y="193" rx="5" height="22" width="195.28668425196938" fill="hsl(216, 100%, 80%)" stroke="hsl(216, 100%, 55%)" />
<g stroke="hsl(216, 100%, 40%)"><line x1="179.8803196720295" x2="210.69304883190927" y1="204" y2="204" />
<line x1="179.8803196720295" x2="179.8803196720295" y1="198" y2="210" />
<line x1="210.69304883190927" x2="210.69304883190927" y1="198" y2="210" />
</g>
</g>
<text fill="hsl(288, 100%, 40%)" y="242">local.shallow.10000.monad-effect 50.1 μs</text>
<g>
<title>50.1 μs ± 4.1 μs</title>
<rect y="248" rx="5" height="22" width="20.311803930162988" fill="hsl(288, 100%, 80%)" stroke="hsl(288, 100%, 55%)" />
<g stroke="hsl(288, 100%, 40%)"><line x1="18.648937527835677" x2="21.974670332490298" y1="259" y2="259" />
<line x1="18.648937527835677" x2="18.648937527835677" y1="253" y2="265" />
<line x1="21.974670332490298" x2="21.974670332490298" y1="253" y2="265" />
</g>
</g>
</g>
</svg>
