<svg xmlns="http://www.w3.org/2000/svg" height="227" width="960.0" font-size="16" font-family="sans-serif" stroke-width="2">
<g transform="translate(10.0 0)">
<text fill="hsl(0, 100%, 40%)" y="22">nondet.deep.32.heftia.5+5 5.80 ms</text>
<g>
<title>5.80 ms ± 336 μs</title>
<rect y="28" rx="5" height="22" width="247.18490473421508" fill="hsl(0, 100%, 80%)" stroke="hsl(0, 100%, 55%)" />
<g stroke="hsl(0, 100%, 40%)"><line x1="232.83406753581673" x2="261.53574193261346" y1="39" y2="39" />
<line x1="232.83406753581673" x2="232.83406753581673" y1="33" y2="45" />
<line x1="261.53574193261346" x2="261.53574193261346" y1="33" y2="45" />
</g>
</g>
<g fill="hsl(90, 100%, 40%)">
<text y="77">nondet.deep.32.heftia.shift.5+5</text>
<text y="77" x="873.394626122219" text-anchor="end">20.5 ms</text>
</g>
<g>
<title>20.5 ms ± 1.6 ms</title>
<rect y="83" rx="5" height="22" width="873.394626122219" fill="hsl(90, 100%, 80%)" stroke="hsl(90, 100%, 55%)" />
<g stroke="hsl(90, 100%, 40%)"><line x1="806.7892522444381" x2="940.0" y1="94" y2="94" />
<line x1="806.7892522444381" x2="806.7892522444381" y1="88" y2="100" />
<line x1="940.0" x2="940.0" y1="88" y2="100" />
</g>
</g>
<g fill="hsl(180, 100%, 40%)">
<text y="132">nondet.deep.32.fused.5+5</text>
<text y="132" x="281.5608628756318" text-anchor="end">6.60 ms</text>
</g>
<g>
<title>6.60 ms ± 336 μs</title>
<rect y="138" rx="5" height="22" width="281.5608628756318" fill="hsl(180, 100%, 80%)" stroke="hsl(180, 100%, 55%)" />
<g stroke="hsl(180, 100%, 40%)"><line x1="267.24334095939963" x2="295.878384791864" y1="149" y2="149" />
<line x1="267.24334095939963" x2="267.24334095939963" y1="143" y2="155" />
<line x1="295.878384791864" x2="295.878384791864" y1="143" y2="155" />
</g>
</g>
<text fill="hsl(270, 100%, 40%)" y="187">nondet.deep.32.mtl-logict.5+5 3.94 ms</text>
<g>
<title>3.94 ms ± 393 μs</title>
<rect y="193" rx="5" height="22" width="167.97963503405362" fill="hsl(270, 100%, 80%)" stroke="hsl(270, 100%, 55%)" />
<g stroke="hsl(270, 100%, 40%)"><line x1="151.19725740357202" x2="184.7620126645352" y1="204" y2="204" />
<line x1="151.19725740357202" x2="151.19725740357202" y1="198" y2="210" />
<line x1="184.7620126645352" x2="184.7620126645352" y1="198" y2="210" />
</g>
</g>
</g>
</svg>
